<svg width="14" height="15" viewBox="0 0 14 15" fill="none" xmlns="http://www.w3.org/2000/svg">
<path d="M5.38876 11.7093C5.47973 11.8015 5.58773 11.8746 5.7066 11.9244C5.82547 11.9743 5.95287 12 6.08154 12C6.2102 12 6.33761 11.9743 6.45647 11.9244C6.57534 11.8746 6.68334 11.8015 6.77431 11.7093L12.713 5.69405C12.804 5.6019 12.8762 5.49251 12.9254 5.37211C12.9747 5.25171 13 5.12267 13 4.99235C13 4.86203 12.9747 4.73299 12.9254 4.6126C12.8762 4.4922 12.804 4.3828 12.713 4.29065C12.6221 4.1985 12.5141 4.12541 12.3952 4.07554C12.2763 4.02567 12.1489 4 12.0203 4C11.8916 4 11.7642 4.02567 11.6453 4.07554C11.5265 4.12541 11.4185 4.1985 11.3275 4.29065L6.03922 9.56133L3.6725 7.16413C3.48877 6.97802 3.23957 6.87347 2.97973 6.87347C2.71989 6.87347 2.47069 6.97802 2.28696 7.16413C2.10322 7.35023 2 7.60264 2 7.86582C2 7.99614 2.02534 8.12518 2.07458 8.24558C2.12381 8.36598 2.19598 8.47537 2.28696 8.56752L5.38876 11.7093Z" fill="black"/>
</svg>
