<svg width="20" height="20" viewBox="0 0 20 20" fill="none" xmlns="http://www.w3.org/2000/svg">
<rect width="20" height="20" rx="10" fill="black" fill-opacity="0.15"/>
<path d="M12.6971 6.22347C12.9951 5.92551 13.4782 5.92552 13.7762 6.22347C14.0742 6.52143 14.0742 7.00461 13.7762 7.30257L11.0789 9.99984L13.7762 12.6971C14.0742 12.9951 14.0742 13.4782 13.7762 13.7762C13.4782 14.074 12.995 14.0741 12.6971 13.7762L9.99983 11.0789L7.30257 13.7762C7.00461 14.0742 6.52142 14.0742 6.22346 13.7762C5.92551 13.4782 5.92551 12.9951 6.22346 12.6971L8.92073 9.99984L6.22346 7.30257C5.92558 7.00468 5.92572 6.52145 6.22346 6.22347C6.52142 5.92551 7.00461 5.92551 7.30257 6.22347L9.99983 8.92074L12.6971 6.22347Z" fill="white"/>
</svg>
