<svg width="191" height="80" viewBox="0 0 191 80" fill="none" xmlns="http://www.w3.org/2000/svg">
<path d="M51.4342 24.625H39V54.5208L51.4342 24.625Z" fill="black" fill-opacity="0.15"/>
<path d="M60.1829 24.625H72.6009V54.5208L60.1829 24.625Z" fill="black" fill-opacity="0.15"/>
<path d="M55.8087 35.6436L63.7229 54.5208H58.5305L56.1651 48.5107H50.3733L55.8087 35.6436Z" fill="black" fill-opacity="0.15"/>
<path d="M92.8861 43.6366L94.3523 47.8632C94.4009 47.9691 94.4738 48.018 94.6034 48.018H97.4224C97.5763 48.018 97.6006 47.9447 97.5763 47.7899L91.752 31.5268C91.7277 31.3965 91.7034 31.3721 91.5738 31.3721H88.0744C87.9772 31.3721 87.9205 31.4454 87.9205 31.5512C87.8719 32.4063 87.799 32.6669 87.6937 32.9194L82.5013 47.7655C82.477 47.9447 82.5337 48.018 82.6795 48.018H85.1988C85.3527 48.018 85.4256 47.9691 85.4823 47.8144L86.8674 43.6366H92.8861ZM87.6694 40.8759C88.4308 38.563 89.4353 35.5987 89.8403 33.9048H89.8646C90.3669 35.6801 91.5495 39.1982 92.0842 40.8759H87.6694Z" fill="black" fill-opacity="0.15"/>
<path d="M105.064 48.2704C106.579 48.2704 108.191 47.9935 109.827 47.285C109.957 47.2362 109.981 47.1792 109.981 47.057C109.932 46.601 109.876 45.9413 109.876 45.4364V30.1261C109.876 30.0284 109.876 29.9795 109.754 29.9795H107.008C106.903 29.9795 106.854 30.0284 106.854 30.1587V35.3462C106.425 35.2974 106.125 35.273 105.769 35.273C101.338 35.273 98.616 38.2129 98.616 41.8857C98.616 46.1449 101.411 48.2704 105.064 48.2704ZM106.854 45.4364C106.401 45.583 105.898 45.64 105.388 45.64C103.379 45.64 101.735 44.4999 101.735 41.731C101.735 39.2797 103.428 37.8301 105.671 37.8301C106.125 37.8301 106.522 37.879 106.854 38.0093V45.4364Z" fill="black" fill-opacity="0.15"/>
<path d="M118.741 35.2729C114.958 35.2729 112.617 38.1884 112.617 41.788C112.617 45.0048 114.481 48.2704 118.685 48.2704C122.241 48.2704 124.736 45.64 124.736 41.7065C124.736 38.2373 122.622 35.2729 118.741 35.2729ZM118.587 37.8301C120.726 37.8301 121.633 39.6787 121.633 41.788C121.633 44.394 120.297 45.6889 118.741 45.6889C116.822 45.6889 115.688 44.0682 115.688 41.731C115.688 39.3286 116.894 37.8301 118.587 37.8301Z" fill="black" fill-opacity="0.15"/>
<path d="M127.575 29.9795C127.469 29.9795 127.396 30.0284 127.396 30.1587V47.4886C127.396 47.5619 127.469 47.6922 127.575 47.7167C128.782 48.0913 130.045 48.2704 131.35 48.2704C135.084 48.2704 138.713 45.9413 138.713 41.2505C138.713 37.8545 136.396 35.273 132.767 35.273C131.933 35.273 131.155 35.4033 130.475 35.6313L130.442 30.1831C130.442 30.0039 130.394 29.9795 130.215 29.9795H127.575ZM135.61 41.56C135.61 44.3696 133.699 45.6889 131.633 45.6889C131.204 45.6889 130.823 45.6644 130.475 45.5586V38.164C130.872 38.0093 131.35 37.879 132.232 37.879C134.225 37.879 135.61 39.1494 135.61 41.56Z" fill="black" fill-opacity="0.15"/>
<path d="M148.961 42.4721C150.192 42.4721 151.205 42.4476 151.553 42.3662C151.683 42.3418 151.731 42.2929 151.756 42.187C151.829 41.9101 151.861 41.3319 151.861 40.6234C151.861 38.2129 150.419 35.2729 146.693 35.2729C142.886 35.2729 140.771 38.392 140.771 41.9101C140.771 45.0292 142.408 48.2704 146.993 48.2704C148.71 48.2704 149.82 47.9935 150.776 47.5375C150.873 47.4886 150.921 47.4072 150.921 47.2606V45.1514C150.921 45.0292 150.848 45.0048 150.776 45.0536C149.82 45.4608 148.783 45.6644 147.649 45.6644C145.081 45.6644 143.914 44.2393 143.842 42.4721H148.961ZM143.842 40.2895C144.044 39.0517 144.822 37.7079 146.563 37.7079C148.483 37.7079 148.985 39.3286 148.985 40.0615C148.985 40.0859 148.985 40.1918 148.985 40.2651C148.88 40.2895 148.556 40.2895 147.6 40.2895H143.842Z" fill="black" fill-opacity="0.15"/>
</svg>
