<svg width="190" height="80" viewBox="0 0 190 80" fill="none" xmlns="http://www.w3.org/2000/svg">
<g clip-path="url(#clip0_347_410)">
<path d="M43.135 22H28.5V57L43.135 22Z" fill="black" fill-opacity="0.15"/>
<path d="M53.4321 22H68.048V57L53.4321 22Z" fill="black" fill-opacity="0.15"/>
<path d="M48.2837 34.8999L57.5986 57.0001H51.4872L48.7032 49.9639H41.8862L48.2837 34.8999Z" fill="black" fill-opacity="0.15"/>
<path d="M91.9236 44.2579L93.6493 49.2061C93.7065 49.3301 93.7923 49.3873 93.9448 49.3873H97.2627C97.4439 49.3873 97.4725 49.3015 97.4439 49.1203L90.5888 30.0806C90.5602 29.928 90.5316 29.8994 90.379 29.8994H86.2603C86.1459 29.8994 86.0791 29.9852 86.0791 30.1092C86.0219 31.1103 85.9361 31.4154 85.8122 31.7109L79.7007 49.0917C79.6721 49.3015 79.7389 49.3873 79.9105 49.3873H82.8756C83.0568 49.3873 83.1426 49.3301 83.2093 49.1489L84.8397 44.2579H91.9236ZM85.7836 41.0258C86.6798 38.3181 87.862 34.8477 88.3387 32.8645H88.3673C88.9584 34.943 90.3504 39.0618 90.9797 41.0258H85.7836Z" fill="black" fill-opacity="0.15"/>
<path d="M106.257 49.6828C108.04 49.6828 109.937 49.3587 111.863 48.5292C112.015 48.472 112.044 48.4052 112.044 48.2622C111.987 47.7283 111.92 46.956 111.92 46.3649V28.4407C111.92 28.3262 111.92 28.269 111.777 28.269H108.545C108.421 28.269 108.364 28.3262 108.364 28.4788V34.5521C107.858 34.4949 107.506 34.4663 107.086 34.4663C101.871 34.4663 98.6675 37.9081 98.6675 42.208C98.6675 47.1944 101.957 49.6828 106.257 49.6828ZM108.364 46.3649C107.83 46.5365 107.239 46.6033 106.638 46.6033C104.274 46.6033 102.338 45.2685 102.338 42.0269C102.338 39.1571 104.331 37.46 106.972 37.46C107.506 37.46 107.973 37.5172 108.364 37.6698V46.3649Z" fill="black" fill-opacity="0.15"/>
<path d="M122.355 34.4663C117.902 34.4663 115.147 37.8795 115.147 42.0937C115.147 45.8597 117.34 49.6829 122.288 49.6829C126.474 49.6829 129.41 46.6033 129.41 41.9983C129.41 37.9368 126.922 34.4663 122.355 34.4663ZM122.174 37.46C124.691 37.46 125.759 39.6243 125.759 42.0937C125.759 45.1446 124.185 46.6605 122.355 46.6605C120.095 46.6605 118.76 44.7632 118.76 42.0269C118.76 39.2143 120.181 37.46 122.174 37.46Z" fill="black" fill-opacity="0.15"/>
<path d="M132.752 28.269C132.628 28.269 132.542 28.3262 132.542 28.4788V48.7675C132.542 48.8534 132.628 49.0059 132.752 49.0345C134.172 49.4731 135.66 49.6828 137.195 49.6828C141.59 49.6828 145.861 46.956 145.861 41.4644C145.861 37.4886 143.134 34.4663 138.863 34.4663C137.881 34.4663 136.966 34.6188 136.165 34.8858L136.127 28.5074C136.127 28.2976 136.07 28.269 135.86 28.269H132.752ZM142.21 41.8267C142.21 45.1159 139.96 46.6605 137.528 46.6605C137.023 46.6605 136.575 46.6319 136.165 46.5079V37.8509C136.632 37.6698 137.195 37.5172 138.234 37.5172C140.579 37.5172 142.21 39.0045 142.21 41.8267Z" fill="black" fill-opacity="0.15"/>
<path d="M157.923 42.8945C159.372 42.8945 160.564 42.8659 160.974 42.7706C161.127 42.742 161.184 42.6848 161.213 42.5608C161.298 42.2367 161.336 41.5597 161.336 40.7303C161.336 37.9082 159.639 34.4663 155.254 34.4663C150.773 34.4663 148.284 38.1179 148.284 42.2367C148.284 45.8883 150.21 49.6829 155.606 49.6829C157.628 49.6829 158.934 49.3587 160.059 48.8248C160.173 48.7676 160.23 48.6722 160.23 48.5006V46.0313C160.23 45.8883 160.145 45.8597 160.059 45.9169C158.934 46.3936 157.713 46.6319 156.379 46.6319C153.356 46.6319 151.983 44.9635 151.898 42.8945H157.923ZM151.898 40.3394C152.136 38.8902 153.051 37.317 155.101 37.317C157.361 37.317 157.952 39.2143 157.952 40.0724C157.952 40.101 157.952 40.225 157.952 40.3108C157.828 40.3394 157.447 40.3394 156.321 40.3394H151.898Z" fill="black" fill-opacity="0.15"/>
</g>
<defs>
<clipPath id="clip0_347_410">
<rect width="133" height="48" fill="white" transform="translate(28.5 16)"/>
</clipPath>
</defs>
</svg>
