<svg width="190" height="80" viewBox="0 0 190 80" fill="none" xmlns="http://www.w3.org/2000/svg">
<g clip-path="url(#clip0_347_404)">
<path d="M98.547 30.05C98.547 31.4915 97.3858 32.6527 95.9444 32.6527C94.5029 32.6527 93.3418 31.4915 93.3418 30.05C93.3418 28.6086 94.4629 27.4474 95.9444 27.4474C97.4258 27.4875 98.547 28.6486 98.547 30.05ZM87.8162 35.2953C87.8162 35.5355 87.8162 35.9359 87.8162 35.9359C87.8162 35.9359 86.575 34.3343 83.9324 34.3343C79.568 34.3343 76.1646 37.6577 76.1646 42.2623C76.1646 46.8268 79.5279 50.1902 83.9324 50.1902C86.615 50.1902 87.8162 48.5485 87.8162 48.5485V49.2292C87.8162 49.5495 88.0565 49.7898 88.3768 49.7898H91.62V34.7347C91.62 34.7347 88.6571 34.7347 88.3768 34.7347C88.0565 34.7347 87.8162 35.015 87.8162 35.2953ZM87.8162 44.9449C87.2156 45.8258 86.0144 46.5866 84.573 46.5866C82.0104 46.5866 80.0485 44.985 80.0485 42.2623C80.0485 39.5395 82.0104 37.9379 84.573 37.9379C85.9744 37.9379 87.2557 38.7387 87.8162 39.5796V44.9449ZM94.0224 34.7347H97.8663V49.7898H94.0224V34.7347ZM151.44 34.3343C148.797 34.3343 147.556 35.9359 147.556 35.9359V27.4875H143.712V49.7898C143.712 49.7898 146.675 49.7898 146.955 49.7898C147.276 49.7898 147.516 49.5095 147.516 49.2292V48.5485C147.516 48.5485 148.757 50.1902 151.4 50.1902C155.764 50.1902 159.168 46.8268 159.168 42.2623C159.168 37.6977 155.764 34.3343 151.44 34.3343ZM150.799 46.5465C149.318 46.5465 148.157 45.7858 147.556 44.9049V39.5395C148.157 38.7387 149.438 37.8979 150.799 37.8979C153.362 37.8979 155.324 39.4995 155.324 42.2222C155.324 44.9449 153.362 46.5465 150.799 46.5465ZM141.71 40.8609V49.8298H137.866V41.3013C137.866 38.8188 137.065 37.8178 134.903 37.8178C133.742 37.8178 132.541 38.4184 131.78 39.2993V49.7898H127.936V34.7347H130.979C131.3 34.7347 131.54 35.015 131.54 35.2953V35.9359C132.661 34.7748 134.143 34.3343 135.624 34.3343C137.306 34.3343 138.707 34.8148 139.828 35.7758C141.19 36.8969 141.71 38.3383 141.71 40.8609ZM118.607 34.3343C115.964 34.3343 114.723 35.9359 114.723 35.9359V27.4875H110.879V49.7898C110.879 49.7898 113.842 49.7898 114.123 49.7898C114.443 49.7898 114.683 49.5095 114.683 49.2292V48.5485C114.683 48.5485 115.924 50.1902 118.567 50.1902C122.931 50.1902 126.335 46.8268 126.335 42.2623C126.375 37.6977 122.971 34.3343 118.607 34.3343ZM117.966 46.5465C116.485 46.5465 115.324 45.7858 114.723 44.9049V39.5395C115.324 38.7387 116.605 37.8979 117.966 37.8979C120.529 37.8979 122.491 39.4995 122.491 42.2222C122.491 44.9449 120.529 46.5465 117.966 46.5465ZM107.556 34.3343C108.717 34.3343 109.318 34.5345 109.318 34.5345V38.0981C109.318 38.0981 106.115 37.017 104.113 39.2993V49.8298H100.269V34.7347C100.269 34.7347 103.232 34.7347 103.512 34.7347C103.832 34.7347 104.072 35.015 104.072 35.2953V35.9359C104.793 35.0951 106.355 34.3343 107.556 34.3343ZM67.6361 48.4284C67.4359 47.9479 67.2357 47.4274 67.0355 46.987C66.7151 46.2663 66.3948 45.5856 66.1145 44.9449L66.0745 44.9049C63.3117 38.8989 60.3488 32.8128 57.2257 26.8068L57.1055 26.5666C56.7852 25.966 56.4649 25.3253 56.1446 24.6847C55.7442 23.964 55.3438 23.2032 54.7031 22.4825C53.4218 20.8809 51.58 20 49.618 20C47.616 20 45.8142 20.8809 44.4929 22.4024C43.8923 23.1231 43.4519 23.8839 43.0515 24.6046C42.7312 25.2452 42.4108 25.8859 42.0905 26.4865L41.9704 26.7267C38.8873 32.7327 35.8843 38.8188 33.1216 44.8248L33.0815 44.9049C32.8012 45.5455 32.4809 46.2262 32.1606 46.9469C31.9604 47.3874 31.7602 47.8679 31.56 48.3884C31.0395 49.8699 30.8793 51.2713 31.0795 52.7127C31.52 55.7157 33.522 58.2382 36.2847 59.3594C37.3258 59.7998 38.4068 60 39.528 60C39.8483 60 40.2487 59.96 40.569 59.9199C41.8903 59.7598 43.2517 59.3193 44.573 58.5586C46.2146 57.6376 47.7762 56.3163 49.538 54.3944C51.2997 56.3163 52.9013 57.6376 54.5029 58.5586C55.8243 59.3193 57.1856 59.7598 58.5069 59.9199C58.8272 59.96 59.2277 60 59.548 60C60.6691 60 61.7902 59.7998 62.7912 59.3594C65.594 58.2382 67.556 55.6757 67.9964 52.7127C68.3167 51.3113 68.1566 49.9099 67.6361 48.4284ZM49.578 50.5105C47.4158 47.7878 46.0144 45.2252 45.534 43.0631C45.3338 42.1421 45.2937 41.3413 45.4138 40.6206C45.4939 39.98 45.7342 39.4194 46.0545 38.9389C46.8152 37.8579 48.0965 37.1772 49.578 37.1772C51.0595 37.1772 52.3808 37.8178 53.1015 38.9389C53.4218 39.4194 53.6621 39.98 53.7422 40.6206C53.8623 41.3413 53.8222 42.1822 53.622 43.0631C53.1416 45.1852 51.7402 47.7477 49.578 50.5105ZM65.554 52.3924C65.2737 54.4745 63.8723 56.2763 61.9103 57.0771C60.9494 57.4775 59.9083 57.5976 58.8673 57.4775C57.8663 57.3574 56.8653 57.037 55.8243 56.4364C54.3828 55.6356 52.9414 54.3944 51.2597 52.5526C53.9023 49.3093 55.5039 46.3463 56.1045 43.7037C56.3848 42.4625 56.4249 41.3413 56.3047 40.3003C56.1446 39.2993 55.7842 38.3784 55.2236 37.5776C53.9824 35.7758 51.9003 34.7347 49.578 34.7347C47.2557 34.7347 45.1736 35.8158 43.9324 37.5776C43.3718 38.3784 43.0114 39.2993 42.8513 40.3003C42.6911 41.3413 42.7312 42.5025 43.0515 43.7037C43.6521 46.3463 45.2937 49.3493 47.8963 52.5926C46.2547 54.4344 44.7732 55.6757 43.3318 56.4765C42.2907 57.0771 41.2897 57.3974 40.2887 57.5175C39.2076 57.6376 38.1666 57.4775 37.2457 57.1171C35.2837 56.3163 33.8823 54.5145 33.602 52.4324C33.4819 51.4314 33.562 50.4304 33.9624 49.3093C34.0825 48.9089 34.2827 48.5085 34.4829 48.028C34.7632 47.3874 35.0835 46.7067 35.4038 46.026L35.4439 45.9459C38.2066 39.98 41.1696 33.8939 44.2527 27.968L44.3728 27.7277C44.6931 27.1271 45.0134 26.4865 45.3338 25.8859C45.6541 25.2452 46.0144 24.6446 46.4549 24.1241C47.2957 23.1632 48.4168 22.6426 49.6581 22.6426C50.8993 22.6426 52.0204 23.1632 52.8613 24.1241C53.3017 24.6446 53.6621 25.2452 53.9824 25.8859C54.3027 26.4865 54.623 27.1271 54.9434 27.7277L55.0635 27.968C58.1065 33.9339 61.0695 40.02 63.8323 45.986V46.026C64.1526 46.6667 64.4329 47.3874 64.7532 48.028C64.9534 48.5085 65.1536 48.9089 65.2737 49.3093C65.594 50.3503 65.7141 51.3514 65.554 52.3924Z" fill="black" fill-opacity="0.15"/>
</g>
<defs>
<clipPath id="clip0_347_404">
<rect width="128" height="48" fill="white" transform="translate(31 16)"/>
</clipPath>
</defs>
</svg>
