<svg width="191" height="80" viewBox="0 0 191 80" fill="none" xmlns="http://www.w3.org/2000/svg">
<g clip-path="url(#clip0_676_2891)">
<path d="M98.6868 31.0867C98.6868 32.378 97.6436 33.4182 96.3485 33.4182C95.0535 33.4182 94.0103 32.378 94.0103 31.0867C94.0103 29.7954 95.0175 28.7552 96.3485 28.7552C97.6796 28.791 98.6868 29.8312 98.6868 31.0867ZM89.0459 35.7855C89.0459 36.0007 89.0459 36.3594 89.0459 36.3594C89.0459 36.3594 87.9307 34.9247 85.5565 34.9247C81.6354 34.9247 78.5776 37.9018 78.5776 42.0268C78.5776 46.1159 81.5994 49.1289 85.5565 49.1289C87.9667 49.1289 89.0459 47.6582 89.0459 47.6582V48.268C89.0459 48.555 89.2618 48.7702 89.5496 48.7702H92.4634V35.2834C92.4634 35.2834 89.8014 35.2834 89.5496 35.2834C89.2618 35.2834 89.0459 35.5344 89.0459 35.7855ZM89.0459 44.43C88.5063 45.2191 87.4271 45.9006 86.1321 45.9006C83.8298 45.9006 82.0671 44.4659 82.0671 42.0268C82.0671 39.5877 83.8298 38.1529 86.1321 38.1529C87.3911 38.1529 88.5423 38.8703 89.0459 39.6235V44.43ZM94.6218 35.2834H98.0753V48.7702H94.6218V35.2834ZM146.208 34.9247C143.834 34.9247 142.718 36.3594 142.718 36.3594V28.791H139.265V48.7702C139.265 48.7702 141.927 48.7702 142.179 48.7702C142.467 48.7702 142.682 48.5191 142.682 48.268V47.6582C142.682 47.6582 143.798 49.1289 146.172 49.1289C150.093 49.1289 153.151 46.1159 153.151 42.0268C153.151 37.9377 150.093 34.9247 146.208 34.9247ZM145.632 45.8648C144.301 45.8648 143.258 45.1833 142.718 44.3941V39.5877C143.258 38.8703 144.409 38.117 145.632 38.117C147.934 38.117 149.697 39.5518 149.697 41.9909C149.697 44.43 147.934 45.8648 145.632 45.8648ZM137.466 40.7714V48.8061H134.013V41.1659C134.013 38.942 133.293 38.0453 131.351 38.0453C130.307 38.0453 129.228 38.5833 128.545 39.3725V48.7702H125.091V35.2834H127.825C128.113 35.2834 128.329 35.5344 128.329 35.7855V36.3594C129.336 35.3192 130.667 34.9247 131.998 34.9247C133.509 34.9247 134.768 35.3551 135.775 36.216C136.999 37.2203 137.466 38.5116 137.466 40.7714ZM116.71 34.9247C114.335 34.9247 113.22 36.3594 113.22 36.3594V28.791H109.767V48.7702C109.767 48.7702 112.429 48.7702 112.68 48.7702C112.968 48.7702 113.184 48.5191 113.184 48.268V47.6582C113.184 47.6582 114.299 49.1289 116.674 49.1289C120.595 49.1289 123.652 46.1159 123.652 42.0268C123.688 37.9377 120.631 34.9247 116.71 34.9247ZM116.134 45.8648C114.803 45.8648 113.76 45.1833 113.22 44.3941V39.5877C113.76 38.8703 114.911 38.117 116.134 38.117C118.436 38.117 120.199 39.5518 120.199 41.9909C120.199 44.43 118.436 45.8648 116.134 45.8648ZM106.781 34.9247C107.824 34.9247 108.364 35.104 108.364 35.104V38.2964C108.364 38.2964 105.486 37.3279 103.687 39.3725V48.8061H100.234V35.2834C100.234 35.2834 102.896 35.2834 103.148 35.2834C103.435 35.2834 103.651 35.5344 103.651 35.7855V36.3594C104.299 35.6062 105.702 34.9247 106.781 34.9247ZM70.9153 47.5506C70.7354 47.1202 70.5556 46.6539 70.3757 46.2593C70.0879 45.6137 69.8001 45.0039 69.5483 44.43L69.5123 44.3941C67.0302 39.0138 64.3681 33.5616 61.5622 28.1813L61.4543 27.966C61.1665 27.428 60.8787 26.8541 60.5909 26.2802C60.2312 25.6345 59.8714 24.953 59.2959 24.3074C58.1447 22.8726 56.4899 22.0835 54.7272 22.0835C52.9286 22.0835 51.3098 22.8726 50.1226 24.2356C49.583 24.8813 49.1873 25.5628 48.8276 26.2085C48.5398 26.7824 48.252 27.3563 47.9642 27.8943L47.8563 28.1095C45.0864 33.4899 42.3883 38.942 39.9062 44.3224L39.8702 44.3941C39.6184 44.9681 39.3306 45.5778 39.0428 46.2235C38.8629 46.618 38.6831 47.0485 38.5032 47.5148C38.0356 48.8419 37.8917 50.0973 38.0715 51.3886C38.4672 54.0788 40.2659 56.3386 42.7481 57.3429C43.6834 57.7375 44.6547 57.9168 45.6619 57.9168C45.9497 57.9168 46.3095 57.881 46.5972 57.8451C47.7844 57.7016 49.0075 57.3071 50.1946 56.6255C51.6695 55.8005 53.0725 54.6169 54.6553 52.8951C56.2381 54.6169 57.6771 55.8005 59.116 56.6255C60.3031 57.3071 61.5262 57.7016 62.7133 57.8451C63.0011 57.881 63.3609 57.9168 63.6487 57.9168C64.6559 57.9168 65.6632 57.7375 66.5625 57.3429C69.0807 56.3386 70.8434 54.043 71.2391 51.3886C71.5268 50.1332 71.383 48.8778 70.9153 47.5506ZM54.6913 49.4158C52.7487 46.9767 51.4896 44.6811 51.0579 42.7442C50.8781 41.9192 50.8421 41.2018 50.95 40.5561C51.022 39.9822 51.2378 39.4801 51.5256 39.0496C52.2091 38.0812 53.3603 37.4714 54.6913 37.4714C56.0223 37.4714 57.2094 38.0453 57.8569 39.0496C58.1447 39.4801 58.3606 39.9822 58.4325 40.5561C58.5404 41.2018 58.5045 41.955 58.3246 42.7442C57.8929 44.6452 56.6338 46.9409 54.6913 49.4158ZM69.0447 51.1017C68.7929 52.9669 67.5338 54.581 65.7711 55.2984C64.9077 55.6571 63.9724 55.7647 63.0371 55.6571C62.1378 55.5495 61.2384 55.2625 60.3031 54.7245C59.0081 54.0071 57.713 52.8951 56.2022 51.2452C58.5764 48.3398 60.0153 45.6854 60.5549 43.3181C60.8068 42.2061 60.8427 41.2018 60.7348 40.2692C60.5909 39.3725 60.2672 38.5475 59.7635 37.8301C58.6483 36.216 56.7777 35.2834 54.6913 35.2834C52.6048 35.2834 50.7342 36.2518 49.619 37.8301C49.1154 38.5475 48.7916 39.3725 48.6477 40.2692C48.5038 41.2018 48.5398 42.242 48.8276 43.3181C49.3672 45.6854 50.8421 48.3756 53.1804 51.281C51.7055 52.931 50.3745 54.043 49.0794 54.7603C48.1441 55.2984 47.2448 55.5853 46.3454 55.6929C45.3741 55.8005 44.4388 55.6571 43.6114 55.3342C41.8487 54.6169 40.5897 53.0028 40.3379 51.1376C40.2299 50.2408 40.3019 49.3441 40.6616 48.3398C40.7695 47.9811 40.9494 47.6224 41.1293 47.1919C41.3811 46.618 41.6689 46.0083 41.9567 45.3985L41.9926 45.3267C44.4748 39.9822 47.1368 34.5301 49.9068 29.2215L50.0147 29.0063C50.3025 28.4682 50.5903 27.8943 50.8781 27.3563C51.1659 26.7824 51.4896 26.2443 51.8853 25.778C52.6408 24.9172 53.648 24.4509 54.7632 24.4509C55.8784 24.4509 56.8856 24.9172 57.6411 25.778C58.0368 26.2443 58.3606 26.7824 58.6483 27.3563C58.9361 27.8943 59.2239 28.4682 59.5117 29.0063L59.6196 29.2215C62.3536 34.566 65.0157 40.0181 67.4978 45.3626V45.3985C67.7856 45.9724 68.0374 46.618 68.3252 47.1919C68.5051 47.6224 68.6849 47.9811 68.7929 48.3398C69.0807 49.2724 69.1886 50.1691 69.0447 51.1017Z" fill="black" fill-opacity="0.15"/>
</g>
<defs>
<clipPath id="clip0_676_2891">
<rect width="115" height="43" fill="white" transform="translate(38 18.5)"/>
</clipPath>
</defs>
</svg>
