<svg width="190" height="80" viewBox="0 0 190 80" fill="none" xmlns="http://www.w3.org/2000/svg">
<path fill-rule="evenodd" clip-rule="evenodd" d="M107.935 53.8069C101.571 58.4973 92.3478 60.9998 84.4064 60.9998C73.2714 60.9998 63.247 56.8814 55.6631 50.0316C55.0673 49.493 55.6011 48.7589 56.3161 49.1784C64.5006 53.9403 74.6203 56.8051 85.0738 56.8051C92.1237 56.8051 99.8792 55.3465 107.01 52.3196C108.087 51.862 108.988 53.0251 107.935 53.8069Z" fill="black" fill-opacity="0.15"/>
<path fill-rule="evenodd" clip-rule="evenodd" d="M110.581 50.78C109.77 49.7409 105.204 50.2891 103.154 50.5322C102.53 50.6084 102.434 50.065 102.997 49.6741C106.634 47.1144 112.602 47.8533 113.298 48.7113C113.993 49.574 113.116 55.5563 109.699 58.4115C109.174 58.8501 108.674 58.6165 108.907 58.035C109.675 56.1187 111.396 51.8239 110.581 50.78Z" fill="black" fill-opacity="0.15"/>
<path fill-rule="evenodd" clip-rule="evenodd" d="M103.297 31.6036V29.1154C103.297 28.7388 103.583 28.4862 103.927 28.4862H115.066C115.424 28.4862 115.71 28.7436 115.71 29.1154V31.2461C115.705 31.6036 115.405 32.0708 114.871 32.8096L109.098 41.0513C111.243 40.9988 113.508 41.3182 115.452 42.4145C115.891 42.6624 116.01 43.0247 116.043 43.3822V46.0373C116.043 46.3995 115.643 46.8238 115.224 46.6045C111.796 44.8074 107.244 44.612 103.455 46.6236C103.068 46.8333 102.663 46.4138 102.663 46.0516V43.53C102.663 43.1248 102.668 42.4336 103.073 41.8187L109.761 32.2281H103.941C103.583 32.2281 103.297 31.9754 103.297 31.6036Z" fill="black" fill-opacity="0.15"/>
<path fill-rule="evenodd" clip-rule="evenodd" d="M62.661 47.1289H59.2719C58.9477 47.105 58.6903 46.8619 58.6665 46.5521V29.1583C58.6665 28.8104 58.9573 28.5339 59.3195 28.5339H62.4799C62.8088 28.5482 63.0709 28.8008 63.0948 29.1154V31.3892H63.1568C63.9814 29.1917 65.5306 28.1669 67.6184 28.1669C69.7396 28.1669 71.0647 29.1917 72.0181 31.3892C72.8379 29.1917 74.7017 28.1669 76.699 28.1669C78.1195 28.1669 79.6734 28.7532 80.622 30.0688C81.6945 31.5322 81.4752 33.6581 81.4752 35.5219L81.4705 46.4997C81.4705 46.8476 81.1797 47.1289 80.8174 47.1289H77.4331C77.0946 47.105 76.8229 46.8333 76.8229 46.4997V37.2808C76.8229 36.5468 76.8897 34.7163 76.7276 34.0204C76.475 32.8526 75.7171 32.5236 74.7351 32.5236C73.9152 32.5236 73.0572 33.0718 72.7093 33.9489C72.3613 34.826 72.3946 36.2941 72.3946 37.2808V46.4997C72.3946 46.8476 72.1039 47.1289 71.7416 47.1289H68.3572C68.014 47.105 67.7471 46.8333 67.7471 46.4997L67.7423 37.2808C67.7423 35.3408 68.0617 32.4855 65.6545 32.4855C63.2187 32.4855 63.3141 35.2693 63.3141 37.2808V46.4997C63.3141 46.8476 63.0233 47.1289 62.661 47.1289Z" fill="black" fill-opacity="0.15"/>
<path fill-rule="evenodd" clip-rule="evenodd" d="M125.3 28.1669C130.329 28.1669 133.051 32.4855 133.051 37.9768C133.051 43.2821 130.043 47.4911 125.3 47.4911C120.362 47.4911 117.674 43.1725 117.674 37.7909C117.674 32.3759 120.395 28.1669 125.3 28.1669ZM125.329 31.7181C122.831 31.7181 122.674 35.1215 122.674 37.2427C122.674 39.3686 122.641 43.9066 125.3 43.9066C127.927 43.9066 128.051 40.2457 128.051 38.0149C128.051 36.5468 127.989 34.7926 127.545 33.4007C127.164 32.19 126.406 31.7181 125.329 31.7181Z" fill="black" fill-opacity="0.15"/>
<path fill-rule="evenodd" clip-rule="evenodd" d="M139.572 47.1289H136.197C135.859 47.105 135.587 46.8333 135.587 46.4997L135.582 29.1011C135.611 28.7818 135.892 28.5339 136.235 28.5339H139.377C139.672 28.5482 139.915 28.7484 139.982 29.0201V31.6799H140.044C140.992 29.3013 142.322 28.1669 144.663 28.1669C146.183 28.1669 147.666 28.715 148.619 30.2166C149.506 31.6084 149.506 33.9489 149.506 35.6315V46.5807C149.468 46.8858 149.186 47.1289 148.853 47.1289H145.454C145.144 47.105 144.887 46.8762 144.854 46.5807V37.1331C144.854 35.2311 145.073 32.4474 142.732 32.4474C141.908 32.4474 141.15 33.0003 140.773 33.8393C140.297 34.9022 140.235 35.9605 140.235 37.1331V46.4997C140.23 46.8476 139.934 47.1289 139.572 47.1289Z" fill="black" fill-opacity="0.15"/>
<path fill-rule="evenodd" clip-rule="evenodd" d="M94.4169 38.8204C94.4169 40.1408 94.4503 41.2419 93.783 42.4146C93.2443 43.3679 92.3863 43.9542 91.4377 43.9542C90.1364 43.9542 89.3737 42.9627 89.3737 41.4993C89.3737 38.6107 91.9621 38.0864 94.4169 38.0864V38.8204ZM97.8347 47.0812C97.6106 47.2814 97.2865 47.2957 97.0339 47.1622C95.9089 46.2279 95.7039 45.7942 95.089 44.9028C93.23 46.7999 91.9096 47.3672 89.5024 47.3672C86.6472 47.3672 84.4307 45.6083 84.4307 42.0857C84.4307 39.3353 85.9179 37.4619 88.0438 36.5467C89.8838 35.7364 92.453 35.5934 94.4169 35.3693V34.9308C94.4169 34.1252 94.4789 33.1719 94.0022 32.476C93.5923 31.8515 92.801 31.5941 92.1003 31.5941C90.8085 31.5941 89.6598 32.2567 89.3785 33.6295C89.3213 33.9346 89.0973 34.2349 88.7874 34.2492L85.5032 33.8964C85.2267 33.8345 84.9169 33.6104 84.9979 33.1862C85.751 29.2012 89.3547 28 92.577 28C94.2263 28 96.3808 28.4385 97.6821 29.6874C99.3314 31.2271 99.1741 33.2815 99.1741 35.5171V40.7986C99.1741 42.386 99.8319 43.0819 100.452 43.9399C100.666 44.245 100.714 44.612 100.437 44.8408C99.7461 45.4176 98.5163 46.4901 97.8394 47.0907L97.8347 47.0812Z" fill="black" fill-opacity="0.15"/>
<path fill-rule="evenodd" clip-rule="evenodd" d="M49.9863 38.8204C49.9863 40.1408 50.0196 41.2419 49.3523 42.4145C48.8137 43.3679 47.9604 43.9542 47.0071 43.9542C45.7058 43.9542 44.9478 42.9627 44.9478 41.4993C44.9478 38.6107 47.5362 38.0864 49.9863 38.0864V38.8204ZM53.404 47.0812C53.18 47.2814 52.8558 47.2957 52.6032 47.1622C51.4782 46.2279 51.278 45.7941 50.6584 44.9028C48.7994 46.7999 47.4837 47.3672 45.0718 47.3672C42.2213 47.3672 40 45.6082 40 42.0856C40 39.3352 41.492 37.4619 43.6132 36.5467C45.4531 35.7364 48.0224 35.5934 49.9863 35.3693V34.9308C49.9863 34.1252 50.0482 33.1719 49.5763 32.4759C49.1616 31.8515 48.3703 31.5941 47.6744 31.5941C46.3826 31.5941 45.2291 32.2567 44.9478 33.6295C44.8906 33.9346 44.6666 34.2349 44.3615 34.2492L41.0725 33.8964C40.796 33.8345 40.491 33.6104 40.5672 33.1862C41.3251 29.2012 44.924 28 48.1463 28C49.7956 28 51.9501 28.4385 53.2515 29.6874C54.9007 31.2271 54.7434 33.2815 54.7434 35.5171V40.7986C54.7434 42.3859 55.4013 43.0819 56.0209 43.9399C56.2402 44.245 56.2879 44.612 56.0114 44.8408C55.3202 45.4176 54.0904 46.4901 53.4135 47.0907L53.404 47.0812Z" fill="black" fill-opacity="0.15"/>
</svg>
