<svg width="190" height="80" viewBox="0 0 190 80" fill="none" xmlns="http://www.w3.org/2000/svg">
<path fill-rule="evenodd" clip-rule="evenodd" d="M67.3997 57.6001C69.3162 56.4106 70.927 54.959 72.2897 53.4474C73.2655 55.44 75.2235 56.8001 77.2998 56.8001C78.8998 56.8001 80.4998 56.0001 81.5998 54.5001C81.9998 55.9001 82.9998 56.8001 84.6998 56.8001C85.9755 56.8001 88.7567 55.4982 91.2784 53.569L90.9997 55.0001C90.8997 55.4001 90.8997 55.7001 90.8997 55.9001C90.9997 56.5001 91.3997 56.8001 91.9997 56.8001C93.1997 56.8001 94.8997 55.7001 95.2997 53.9001L95.8997 51.4001C96.5997 48.2001 101.3 43.4001 102.6 43.4001C102.7 43.4001 102.9 43.5001 102.9 43.7001C102.939 44.0176 102.711 44.6187 102.378 45.497C101.871 46.8318 101.122 48.8068 100.7 51.4001C100.5 52.2001 100.5 53.0001 100.6 53.6001C100.8 55.5001 101.9 56.8001 104 56.8001C105.797 56.8001 109.693 55.2661 112.424 52.198C112.63 53.8634 112.982 55.2799 113.5 56.2001C113.7 56.6001 114.2 56.7001 114.7 56.7001C115.3 56.7001 116.1 56.5001 117 56.0001C119.1 54.9001 121.8 52.3001 124.4 48.5001C124.8 48.6001 125.1 48.6001 125.4 48.6001C126.437 48.6001 127.597 48.2339 128.674 47.586C128.226 48.9373 128.052 50.3174 128.2 51.6001C128.6 54.6001 131.1 56.9001 133.8 56.9001C135.3 56.9001 136.9 56.0001 138 54.6001C138.4 56.5001 139.6 58.5001 142.6 59.7001C142.8 59.8001 143 59.8001 143.2 59.8001C143.8 59.8001 144.2 59.4001 144.1 58.9001C144.1 58.7001 144 58.4001 143.7 58.2001C143 57.6001 142.2 56.5001 142 54.8001C141.9 54.0001 141.9 53.0001 142.4 52.0001C143 49.3001 143.1 48.5001 143.1 48.2001C143 47.5001 142.5 47.2001 141.9 47.2001C140.7 47.2001 139 48.4001 138.6 50.1001C137.9 52.7001 136.1 54.4001 134.9 54.4001C133.4 54.4001 132.6 52.8001 132.4 51.1001C131.9 46.9001 134.5 41.8001 138.4 41.8001C139.5 41.8001 140.8 42.2001 140.9 43.4001C141.023 44.5061 140.353 44.7815 139.841 44.9918C139.52 45.1238 139.261 45.2302 139.3 45.5001C139.4 46.3001 140.7 46.5001 141.6 46.5001C142.4 46.5001 145 45.9001 144.6 43.0001C144.3 40.7001 141.8 39.6001 139 39.6001C135.657 39.6001 132.812 41.2925 130.875 43.6344C130.607 43.7926 130.325 44.0752 130 44.4001C129.4 45.1001 128.2 45.8001 126.7 45.8001C126.5 45.8001 126.1 45.7001 126.1 45.7001C127.1 43.8001 127.8 41.8001 127.8 40.1001C127.8 37.3001 126.1 35.9001 124.2 35.9001C121.8 35.9001 119.3 38.0001 119.3 42.2001C119.3 44.7001 120.3 46.7001 122 47.8001C120 51.0001 117.3 53.7001 116.9 53.7001C116.762 53.7001 116.719 53.5571 116.673 53.4028C116.652 53.3336 116.631 53.2621 116.6 53.2001C116.3 52.1001 116 49.9001 116 48.6001C116 46.2001 116.4 43.8001 117.3 41.3001C117.4 41.0001 117.5 40.7001 117.5 40.5001C117.5 39.8001 117 39.5001 116.4 39.5001C115.2 39.5001 113.3 40.9001 112.8 42.4001C112.4 43.8001 112.2 45.8001 112.2 48.2001C112.2 48.6403 112.207 49.0769 112.221 49.5068C109.835 52.7239 106.89 53.8001 106 53.8001C104.9 53.8001 104.7 52.8001 104.9 52.4001C105.6 49.5001 106.5 46.2001 107.3 43.9001C107.7 42.8001 107.9 41.8001 107.8 41.2001C107.6 40.1001 106.9 39.6001 105.9 39.6001C103.5 39.6001 99.6997 42.0001 97.1997 45.3001L97.9997 41.7001C98.0997 41.3001 98.0997 41.0001 98.0997 40.8001C97.9997 40.1001 97.5997 39.8001 96.9997 39.8001C94.1997 39.8001 93.6997 41.2001 93.3997 42.6001C93.3417 42.9476 92.5459 47.0518 91.8863 50.4447C89.7524 52.4031 87.3614 53.7001 86.6998 53.7001C85.8998 53.7001 85.5998 53.1001 85.5998 52.6001C85.5998 52.2548 85.7985 51.3132 85.9863 50.4236C86.1248 49.7676 86.2573 49.1397 86.2998 48.8001C86.3998 48.4001 86.3998 48.1001 86.3998 47.9001C86.2998 47.3001 85.7998 47.0001 85.1998 47.0001C83.9998 47.0001 82.2998 48.2001 81.8998 49.9001C81.2998 52.5001 79.4998 54.2001 78.2998 54.2001C76.7998 54.2001 75.9998 52.6001 75.7998 51.0001C75.2998 47.4001 77.5998 41.6001 81.7998 41.6001C82.9998 41.6001 84.1998 42.0001 84.2998 43.2001C84.4209 44.3506 83.8087 44.6211 83.3291 44.8331C83.0166 44.9713 82.7603 45.0845 82.7998 45.4001C82.8998 46.2001 84.1998 46.4001 84.9998 46.4001C85.8998 46.4001 88.3998 45.8001 87.9998 42.9001C87.6998 40.6001 85.2998 39.4001 82.3998 39.4001C75.6739 39.4001 71.1982 46.0526 71.682 51.3262C69.9739 53.325 68.2674 54.5269 65.1997 56.1001C63.4997 57.0001 61.4997 57.5001 59.6997 57.5001C54.0997 57.5001 51.3997 52.4001 50.8997 48.0001C49.4997 36.8001 59.4997 21.3001 66.3997 21.3001C67.9997 21.3001 69.3997 22.7001 69.6997 24.9001C70.0997 28.3001 69.9997 30.7001 66.4997 33.6001C66.0997 33.9001 65.9997 34.4001 66.1997 34.7001C66.4997 35.1001 67.4997 35.2001 69.3997 34.2001C73.1997 32.3001 74.4997 29.4001 74.0997 26.0001C73.6997 22.2001 70.3997 19.1001 65.9997 19.1001C63.7997 19.1001 61.4997 19.7001 59.3997 21.0001C50.2997 26.6001 44.3997 39.2001 45.4997 48.8001C45.8997 51.9001 47.1997 55.2001 49.5997 57.5001C51.1997 59.0001 54.0997 60.8001 57.5997 60.8001C61.3997 60.8001 64.5997 59.4001 67.3997 57.6001ZM123.6 44.4001C122.6 43.3001 121.8 41.6001 121.8 40.0001C121.8 39.1001 122.1 38.1001 122.8 38.1001C123.4 38.1001 124.2 39.0001 124.2 41.1001C124.2 42.2001 124 43.3001 123.6 44.4001Z" fill="black" fill-opacity="0.15"/>
</svg>
