<svg width="191" height="80" viewBox="0 0 191 80" fill="none" xmlns="http://www.w3.org/2000/svg">
<g clip-path="url(#clip0_676_2893)">
<path fill-rule="evenodd" clip-rule="evenodd" d="M70.6597 55.7669C72.3845 54.7013 73.8342 53.4009 75.0607 52.0468C75.9389 53.8319 77.7011 55.0503 79.5697 55.0503C81.0097 55.0503 82.4497 54.3336 83.4397 52.9899C83.7997 54.2441 84.6997 55.0503 86.2297 55.0503C87.3779 55.0503 89.8809 53.8839 92.1505 52.1557L91.8996 53.4378C91.8096 53.7961 91.8096 54.0648 91.8096 54.244C91.8996 54.7815 92.2596 55.0503 92.7996 55.0503C93.8796 55.0503 95.4096 54.0648 95.7696 52.4523L96.3096 50.2128C96.9396 47.3461 101.17 43.0461 102.34 43.0461C102.43 43.0461 102.61 43.1357 102.61 43.3148C102.645 43.5993 102.44 44.1377 102.14 44.9246C101.684 46.1203 101.01 47.8896 100.63 50.2128C100.45 50.9294 100.45 51.6461 100.54 52.1836C100.72 53.8857 101.71 55.0503 103.6 55.0503C105.217 55.0503 108.724 53.676 111.182 50.9275C111.367 52.4194 111.684 53.6884 112.15 54.5128C112.33 54.8711 112.78 54.9607 113.23 54.9607C113.77 54.9607 114.49 54.7816 115.3 54.3336C117.19 53.3482 119.62 51.0191 121.96 47.6149C122.32 47.7045 122.59 47.7045 122.86 47.7045C123.794 47.7045 124.837 47.3764 125.806 46.7959C125.404 48.0065 125.247 49.2428 125.38 50.3919C125.74 53.0794 127.99 55.1398 130.42 55.1398C131.77 55.1398 133.21 54.3336 134.2 53.0794C134.56 54.7815 135.64 56.5732 138.34 57.6482C138.52 57.7378 138.7 57.7378 138.88 57.7378C139.42 57.7378 139.78 57.3794 139.69 56.9315C139.69 56.7523 139.6 56.4836 139.33 56.3044C138.7 55.7669 137.98 54.7815 137.8 53.2586C137.71 52.5419 137.71 51.6461 138.16 50.7503C138.7 48.3315 138.79 47.6148 138.79 47.3461C138.7 46.719 138.25 46.4503 137.71 46.4503C136.63 46.4503 135.1 47.5253 134.74 49.0482C134.11 51.3773 132.49 52.9003 131.41 52.9003C130.06 52.9003 129.34 51.4669 129.16 49.944C128.71 46.1815 131.05 41.6128 134.56 41.6128C135.55 41.6128 136.72 41.9711 136.81 43.0461C136.92 44.0369 136.317 44.2836 135.857 44.472C135.568 44.5903 135.335 44.6856 135.37 44.9273C135.46 45.644 136.63 45.8232 137.44 45.8232C138.16 45.8232 140.5 45.2857 140.14 42.6878C139.87 40.6273 137.62 39.6419 135.1 39.6419C132.091 39.6419 129.531 41.1581 127.788 43.256C127.547 43.3977 127.292 43.6509 127 43.942C126.46 44.5691 125.38 45.1961 124.03 45.1961C123.85 45.1961 123.49 45.1066 123.49 45.1066C124.39 43.4045 125.02 41.6128 125.02 40.0899C125.02 37.5816 123.49 36.3274 121.78 36.3274C119.62 36.3274 117.37 38.2086 117.37 41.9711C117.37 44.2107 118.27 46.0024 119.8 46.9878C118 49.8545 115.57 52.2732 115.21 52.2732C115.085 52.2732 115.047 52.1451 115.005 52.0068C114.987 51.9448 114.968 51.8808 114.94 51.8253C114.67 50.8399 114.4 48.8691 114.4 47.7045C114.4 45.5545 114.76 43.4045 115.57 41.1649C115.66 40.8961 115.75 40.6274 115.75 40.4482C115.75 39.8211 115.3 39.5524 114.76 39.5524C113.68 39.5524 111.97 40.8066 111.52 42.1503C111.16 43.4045 110.98 45.1961 110.98 47.3461C110.98 47.7404 110.986 48.1315 110.999 48.5167C108.851 51.3986 106.201 52.3628 105.4 52.3628C104.41 52.3628 104.23 51.4669 104.41 51.1086C105.04 48.5107 105.85 45.5544 106.57 43.494C106.93 42.5086 107.11 41.6128 107.02 41.0753C106.84 40.0898 106.21 39.6419 105.31 39.6419C103.15 39.6419 99.7296 41.7919 97.4796 44.7482L98.1996 41.5232C98.2896 41.1648 98.2896 40.8961 98.2896 40.7169C98.1996 40.0898 97.8396 39.8211 97.2996 39.8211C94.7796 39.8211 94.3296 41.0753 94.0596 42.3294C94.0075 42.6407 93.2913 46.3174 92.6976 49.3569C90.7771 51.1113 88.6252 52.2732 88.0297 52.2732C87.3097 52.2732 87.0397 51.7357 87.0397 51.2878C87.0397 50.9784 87.2186 50.1349 87.3876 49.3379C87.5123 48.7503 87.6315 48.1878 87.6697 47.8836C87.7597 47.5253 87.7597 47.2566 87.7597 47.0774C87.6697 46.5399 87.2197 46.2711 86.6797 46.2711C85.5997 46.2711 84.0697 47.3461 83.7097 48.8691C83.1697 51.1982 81.5497 52.7211 80.4697 52.7211C79.1197 52.7211 78.3997 51.2878 78.2197 49.8545C77.7697 46.6295 79.8397 41.4336 83.6197 41.4336C84.6997 41.4336 85.7797 41.792 85.8697 42.867C85.9787 43.8975 85.4278 44.1399 84.9961 44.3298C84.7149 44.4536 84.4842 44.5551 84.5197 44.8378C84.6097 45.5545 85.7797 45.7336 86.4997 45.7336C87.3097 45.7336 89.5597 45.1961 89.1997 42.5982C88.9297 40.5378 86.7697 39.4628 84.1597 39.4628C78.1065 39.4628 74.0783 45.4223 74.5137 50.1466C72.9765 51.9371 71.4406 53.0139 68.6797 54.4232C67.1497 55.2294 65.3497 55.6773 63.7297 55.6773C58.6897 55.6773 56.2597 51.1086 55.8097 47.1669C54.5497 37.1336 63.5497 23.2482 69.7597 23.2482C71.1997 23.2482 72.4597 24.5023 72.7297 26.4732C73.0897 29.519 72.9997 31.669 69.8497 34.2669C69.4897 34.5357 69.3997 34.9836 69.5797 35.2523C69.8497 35.6107 70.7497 35.7003 72.4597 34.8044C75.8797 33.1023 77.0497 30.5044 76.6897 27.4586C76.3297 24.0544 73.3597 21.2773 69.3997 21.2773C67.4197 21.2773 65.3497 21.8148 63.4597 22.9794C55.2697 27.9961 49.9597 39.2836 50.9497 47.8836C51.3097 50.6607 52.4797 53.6169 54.6397 55.6773C56.0797 57.0211 58.6897 58.6336 61.8397 58.6336C65.2597 58.6336 68.1397 57.3794 70.6597 55.7669ZM121.24 43.942C120.34 42.9566 119.62 41.4336 119.62 40.0003C119.62 39.1941 119.89 38.2982 120.52 38.2982C121.06 38.2982 121.78 39.1045 121.78 40.9857C121.78 41.9711 121.6 42.9566 121.24 43.942Z" fill="black" fill-opacity="0.15"/>
</g>
<defs>
<clipPath id="clip0_676_2893">
<rect width="90" height="43" fill="white" transform="translate(50.5 18.5)"/>
</clipPath>
</defs>
</svg>
