<svg width="191" height="80" viewBox="0 0 191 80" fill="none" xmlns="http://www.w3.org/2000/svg">
<path d="M59.304 33.4609C54.9294 33.4609 51.5113 36.78 51.5113 41.2233C51.5113 45.6667 54.843 48.9574 59.304 48.9574C63.7649 48.9574 67.1546 45.6099 67.1546 41.1949C67.1546 36.8084 63.8229 33.4609 59.304 33.4609ZM59.3335 45.7552C56.8423 45.7552 55.0168 43.8214 55.0168 41.2244C55.0168 38.598 56.8128 36.6653 59.304 36.6653C61.8246 36.6653 63.6491 38.6275 63.6491 41.2244C63.6491 43.8214 61.8246 45.7552 59.3335 45.7552ZM68.11 36.8379H70.2829V48.6701H73.759V33.7493H68.11V36.8379ZM42.7632 36.6642C44.5887 36.6642 46.037 37.7895 46.5869 39.4633H50.2662C49.5995 35.8852 46.6448 33.4609 42.7927 33.4609C38.4181 33.4609 35 36.78 35 41.2244C35 45.6689 38.3318 48.9585 42.7927 48.9585C46.5584 48.9585 49.571 46.5342 50.2378 42.9266H46.5869C46.0654 44.6004 44.6171 45.7552 42.7916 45.7552C40.2709 45.7552 38.5045 43.8214 38.5045 41.2244C38.5056 38.598 40.2436 36.6642 42.7632 36.6642ZM134.157 39.7812L131.608 39.4065C130.392 39.2338 129.522 38.8296 129.522 37.8769C129.522 36.8379 130.653 36.3189 132.188 36.3189C133.868 36.3189 134.94 37.04 135.172 38.2232H138.532C138.155 35.222 135.837 33.462 132.275 33.462C128.595 33.462 126.162 35.3379 126.162 37.9927C126.162 40.5318 127.756 42.0045 130.971 42.4656L133.52 42.8403C134.766 43.0129 135.461 43.5046 135.461 44.4277C135.461 45.611 134.245 46.1015 132.565 46.1015C130.507 46.1015 129.349 45.2646 129.175 43.9951H125.757C126.076 46.91 128.364 48.9585 132.535 48.9585C136.33 48.9585 138.85 47.2268 138.85 44.254C138.85 41.5992 137.025 40.2138 134.157 39.7812ZM72.0209 27.6027C70.7464 27.6027 69.7902 28.5259 69.7902 29.7954C69.7902 31.065 70.7454 31.9881 72.0209 31.9881C73.2955 31.9881 74.2521 31.065 74.2521 29.7954C74.2521 28.5259 73.2955 27.6027 72.0209 27.6027ZM123.034 38.858C123.034 35.6263 121.064 33.462 116.893 33.462C112.953 33.462 110.752 35.4537 110.317 38.5128H113.764C113.938 37.3295 114.865 36.3484 116.835 36.3484C118.603 36.3484 119.471 37.1274 119.471 38.0801C119.471 39.3213 117.878 39.6381 115.908 39.8402C113.243 40.1286 109.941 41.0518 109.941 44.5152C109.941 47.1995 111.94 48.9301 115.127 48.9301C117.617 48.9301 119.182 47.8911 119.964 46.2457C120.08 47.7174 121.181 48.6701 122.717 48.6701H124.745V45.5826H123.035V38.858H123.034ZM119.616 42.6098C119.616 44.6015 117.878 46.0731 115.762 46.0731C114.459 46.0731 113.358 45.5246 113.358 44.3709C113.358 42.8993 115.125 42.4951 116.748 42.3225C118.312 42.1782 119.181 41.8319 119.616 41.1676V42.6098ZM101.163 33.4609C99.2217 33.4609 97.5997 34.2694 96.4411 35.6252V27.4585H92.965V48.6701H96.3829V46.7079C97.5415 48.1216 99.1935 48.9585 101.163 48.9585C105.334 48.9585 108.492 45.6689 108.492 41.2244C108.492 36.78 105.276 33.4609 101.163 33.4609ZM100.642 45.7552C98.1506 45.7552 96.3251 43.8214 96.3251 41.2244C96.3251 38.6275 98.1791 36.6653 100.67 36.6653C103.191 36.6653 104.957 38.5991 104.957 41.2244C104.957 43.8214 103.133 45.7552 100.642 45.7552ZM84.6507 33.4609C82.3913 33.4609 80.9134 34.3841 80.0446 35.6831V33.7493H76.5968V48.669H80.0728V40.5602C80.0728 38.2801 81.5211 36.6642 83.6648 36.6642C85.664 36.6642 86.909 38.078 86.909 40.1275V48.6701H90.385V39.8686C90.3864 36.1157 88.446 33.4609 84.6507 33.4609ZM155.42 40.7339C155.42 36.4632 152.292 33.462 148.091 33.462C143.63 33.462 140.356 36.8095 140.356 41.2244C140.356 45.871 143.862 48.9585 148.149 48.9585C151.77 48.9585 154.609 46.8226 155.333 43.793H151.711C151.19 45.1204 149.915 45.871 148.206 45.871C145.975 45.871 144.295 44.4857 143.918 42.0613H155.419V40.7339H155.42ZM144.122 39.5791C144.673 37.5011 146.237 36.4916 148.033 36.4916C150.003 36.4916 151.509 37.6169 151.857 39.5791H144.122Z" fill="black" fill-opacity="0.15"/>
</svg>
