<svg width="190" height="80" viewBox="0 0 190 80" fill="none" xmlns="http://www.w3.org/2000/svg">
<g clip-path="url(#clip0_347_369)">
<path d="M54.616 32.7003C49.7353 32.7003 45.9217 36.4054 45.9217 41.3654C45.9217 46.3254 49.6389 49.9988 54.616 49.9988C59.5931 49.9988 63.375 46.262 63.375 41.3337C63.375 36.4371 59.6577 32.7003 54.616 32.7003ZM54.6489 46.4242C51.8695 46.4242 49.8328 44.2656 49.8328 41.3666C49.8328 38.4348 51.8366 36.2774 54.616 36.2774C57.4283 36.2774 59.4638 38.4677 59.4638 41.3666C59.4638 44.2656 57.4283 46.4242 54.6489 46.4242ZM64.4409 36.47H66.8652V49.678H70.7435V33.0223H64.4409V36.47ZM36.1614 36.2761C38.1981 36.2761 39.814 37.5323 40.4275 39.4007H44.5326C43.7886 35.4066 40.4921 32.7003 36.1943 32.7003C31.3136 32.7003 27.5 36.4054 27.5 41.3666C27.5 46.3279 31.2173 50 36.1943 50C40.3958 50 43.7569 47.2938 44.5008 43.2667H40.4275C39.8457 45.1351 38.2298 46.4242 36.1931 46.4242C33.3808 46.4242 31.4099 44.2656 31.4099 41.3666C31.4112 38.4348 33.3503 36.2761 36.1614 36.2761ZM138.13 39.7556L135.286 39.3373C133.929 39.1446 132.959 38.6933 132.959 37.6299C132.959 36.47 134.22 35.8907 135.932 35.8907C137.807 35.8907 139.003 36.6957 139.262 38.0165H143.011C142.59 34.6663 140.004 32.7016 136.03 32.7016C131.925 32.7016 129.21 34.7956 129.21 37.7591C129.21 40.5934 130.988 42.2374 134.575 42.7521L137.419 43.1704C138.809 43.3631 139.585 43.9119 139.585 44.9424C139.585 46.2632 138.228 46.8108 136.353 46.8108C134.058 46.8108 132.765 45.8766 132.571 44.4595H128.757C129.114 47.7133 131.666 50 136.32 50C140.555 50 143.366 48.067 143.366 44.7485C143.366 41.7849 141.33 40.2385 138.13 39.7556ZM68.8044 26.161C67.3824 26.161 66.3155 27.1915 66.3155 28.6087C66.3155 30.0258 67.3812 31.0563 68.8044 31.0563C70.2264 31.0563 71.2936 30.0258 71.2936 28.6087C71.2936 27.1915 70.2264 26.161 68.8044 26.161ZM125.72 38.725C125.72 35.1175 123.522 32.7016 118.868 32.7016C114.473 32.7016 112.016 34.9249 111.531 38.3396H115.377C115.571 37.0189 116.606 35.9237 118.803 35.9237C120.776 35.9237 121.745 36.7932 121.745 37.8567C121.745 39.2422 119.967 39.5958 117.769 39.8215C114.796 40.1434 111.111 41.1739 111.111 45.04C111.111 48.0365 113.342 49.9683 116.897 49.9683C119.676 49.9683 121.422 48.8085 122.295 46.9718C122.424 48.6146 123.653 49.678 125.366 49.678H127.628V46.2315H125.721V38.725H125.72ZM121.906 42.9131C121.906 45.1363 119.967 46.7791 117.607 46.7791C116.152 46.7791 114.924 46.1669 114.924 44.879C114.924 43.2362 116.896 42.785 118.706 42.5923C120.451 42.4313 121.421 42.0447 121.906 41.3032V42.9131ZM101.318 32.7003C99.1524 32.7003 97.3426 33.6028 96.05 35.1163V26H92.1717V49.678H95.9851V47.4877C97.2777 49.0658 99.1209 50 101.318 50C105.972 50 109.496 46.3279 109.496 41.3666C109.496 36.4054 105.908 32.7003 101.318 32.7003ZM100.737 46.4242C97.9572 46.4242 95.9206 44.2656 95.9206 41.3666C95.9206 38.4677 97.9891 36.2774 100.768 36.2774C103.581 36.2774 105.551 38.436 105.551 41.3666C105.551 44.2656 103.516 46.4242 100.737 46.4242ZM82.8954 32.7003C80.3746 32.7003 78.7257 33.7309 77.7564 35.1809V33.0223H73.9096V49.6768H77.7879V40.6252C77.7879 38.0799 79.4037 36.2761 81.7955 36.2761C84.026 36.2761 85.415 37.8543 85.415 40.1422V49.678H89.2932V39.8531C89.2947 35.6639 87.1299 32.7003 82.8954 32.7003ZM161.853 40.8191C161.853 36.0517 158.363 32.7016 153.676 32.7016C148.699 32.7016 145.046 36.4383 145.046 41.3666C145.046 46.5535 148.957 50 153.741 50C157.781 50 160.948 47.6157 161.756 44.2339H157.715C157.133 45.7156 155.711 46.5535 153.804 46.5535C151.315 46.5535 149.44 45.0071 149.021 42.3008H161.852V40.8191H161.853ZM149.247 39.53C149.862 37.2103 151.607 36.0835 153.611 36.0835C155.809 36.0835 157.49 37.3396 157.877 39.53H149.247Z" fill="black" fill-opacity="0.15"/>
</g>
<defs>
<clipPath id="clip0_347_369">
<rect width="135" height="48" fill="white" transform="translate(27.5 16)"/>
</clipPath>
</defs>
</svg>
