<svg width="190" height="80" viewBox="0 0 190 80" fill="none" xmlns="http://www.w3.org/2000/svg">
<g clip-path="url(#clip0_347_373)">
<path fill-rule="evenodd" clip-rule="evenodd" d="M22.5 54.9361C22.5 56.7945 23.706 57.9998 25.5651 57.9998L34.5207 58C39.8632 58 44.2335 56.1931 47.2047 53.0299H22.5V54.9361ZM34.5207 24.0002L25.5651 24C23.706 24 22.5 25.2055 22.5 27.0639V28.9701H47.2047C44.2335 25.8069 39.8632 24.0002 34.5207 24.0002ZM42.3363 45.8446C42.3363 47.348 43.3161 48.3235 44.8267 48.3235H50.193C50.8013 46.8146 51.21 45.1557 51.4 43.3656H44.8267C43.3161 43.3656 42.3363 44.3409 42.3363 45.8446ZM34.8981 36.1677C34.8981 37.6713 35.8779 38.6466 37.3885 38.6466H51.4C51.21 36.8565 50.8013 35.1977 50.193 33.6888H37.3885C35.8779 33.6888 34.8981 34.664 34.8981 36.1677ZM37.3868 45.8446C37.3868 44.3409 36.407 43.3656 34.8964 43.3656H22.5V48.3235H34.8964C36.407 48.3235 37.3868 47.3482 37.3868 45.8446ZM29.9487 36.1677C29.9487 34.664 28.9689 33.6888 27.4583 33.6888H22.5V38.6466H27.4583C28.9689 38.6466 29.9487 37.6713 29.9487 36.1677Z" fill="black" fill-opacity="0.15"/>
<path fill-rule="evenodd" clip-rule="evenodd" d="M85.5228 40.4883C85.9219 38.548 87.2109 37.5615 88.9052 37.5615C90.5849 37.5615 91.8132 38.5923 92.205 40.4883H85.5228ZM88.9973 34.2002C84.6833 34.2002 82 37.6543 82 41.8792C82 46.2548 84.8673 49.5002 89.1289 49.5002C92.068 49.5002 93.8508 48.1382 94.9542 46.423L92.2106 44.6666C91.5208 45.6109 90.4171 46.1098 89.2341 46.1098C87.2989 46.1098 86.003 45.2018 85.5613 43.386H92.8028C92.8022 43.3883 92.8017 43.3907 92.801 43.3932L95.4409 43.4087C95.541 42.9309 95.6 42.4372 95.6 41.8792C95.6 38.1991 93.3377 34.2002 88.9973 34.2002Z" fill="black" fill-opacity="0.15"/>
<path fill-rule="evenodd" clip-rule="evenodd" d="M70.9498 46.1001C68.2955 46.1001 66.6998 44.1972 66.6998 41.85C66.6998 39.5028 68.3261 37.6001 70.9498 37.6001C73.5736 37.6001 75.1998 39.5028 75.1998 41.85C75.1998 44.1972 73.6041 46.1001 70.9498 46.1001ZM74.9106 36.4465C73.8507 35.1735 72.3458 34.3931 70.4779 34.3931C66.3026 34.3931 63.2998 37.7751 63.2998 41.9466C63.2998 46.1183 66.2741 49.5001 70.4779 49.5001C72.3458 49.5001 73.8507 48.7198 74.9106 47.4468V49.1281H78.5998V29.1001H74.9106V36.4465Z" fill="black" fill-opacity="0.15"/>
<path fill-rule="evenodd" clip-rule="evenodd" d="M106.882 41.5993C107.883 42.2989 108.518 43.3481 108.518 44.7325C108.518 47.5305 106.632 49.4718 103.106 49.4718C99.7877 49.4718 98.0083 47.7715 97.2998 46.0543L100.346 44.2758C100.346 44.2758 100.756 46.1315 103.051 46.1315C104.473 46.1315 104.91 45.5034 104.91 44.9486C104.91 44.6916 104.828 44.2187 103.817 43.8189C101.786 43.0162 97.8581 42.6561 97.8581 38.994C97.8581 35.9965 100.208 34.3977 103.106 34.3977C105.816 34.3977 107.557 36.084 108.218 37.396L105.238 39.1368C105.238 39.1368 104.664 37.6807 103.133 37.6807C101.603 37.6807 101.466 38.5659 101.466 38.8228C101.466 39.5722 102.23 39.8799 103.871 40.3646C104.843 40.6515 105.841 40.912 106.885 41.5966C106.884 41.5975 106.883 41.5984 106.882 41.5993ZM167 38.3374H163.911V44.2757C163.911 46.1316 165.715 45.7318 167 45.7318V49.0721C167 49.0721 166.323 49.1863 165.141 49.1863C162.517 49.1863 160.385 48.387 160.385 44.2757V38.3374H158.007V34.7972H160.385V30.8003H163.911V34.7972H167V38.3374ZM117.284 45.8745C118.747 45.8745 119.872 45.1455 120.44 43.9496L123.497 45.7801C122.299 47.9739 120.068 49.5003 117.284 49.5003C113.061 49.5003 110.109 46.1258 110.109 41.9633C110.109 37.8006 113.088 34.4262 117.284 34.4262C120.027 34.4262 122.25 35.9276 123.461 38.0923L120.411 39.9646C119.831 38.7843 118.715 38.0519 117.284 38.0519C115.15 38.0519 113.635 39.8031 113.635 41.9633C113.635 44.1234 115.136 45.8745 117.284 45.8745Z" fill="black" fill-opacity="0.15"/>
<path fill-rule="evenodd" clip-rule="evenodd" d="M149.697 45.8354C147.4 45.8354 146.019 44.0447 146.019 41.8359C146.019 39.6271 147.426 37.8366 149.697 37.8366C151.967 37.8366 153.374 39.6271 153.374 41.8359C153.374 44.0447 151.994 45.8354 149.697 45.8354ZM150.135 34.3475C154.012 34.3475 156.8 37.7003 156.8 41.8359C156.8 45.9716 154.038 49.3243 150.135 49.3243C148.401 49.3243 147.003 48.5506 146.019 47.2886V54.6001H142.594V34.7448H146.019V36.3832C147.003 35.1211 148.401 34.3475 150.135 34.3475ZM136.009 48.9554V34.773H139.434V48.9554H136.009ZM129.625 37.1956C130.286 35.477 131.633 34.494 133.661 34.4896V38.5741C131.283 38.3338 129.565 39.5968 129.628 42.5805C129.627 42.5784 129.626 42.5761 129.625 42.5738V48.9554H126.2V34.7732H129.625V37.1956ZM136.009 32.8803V29.1001H139.547V32.8803H136.009Z" fill="black" fill-opacity="0.15"/>
</g>
<defs>
<clipPath id="clip0_347_373">
<rect width="145" height="48" fill="white" transform="translate(22.5 16)"/>
</clipPath>
</defs>
</svg>
