<svg width="191" height="80" viewBox="0 0 191 80" fill="none" xmlns="http://www.w3.org/2000/svg">
<g clip-path="url(#clip0_676_2867)">
<path fill-rule="evenodd" clip-rule="evenodd" d="M30.5 53.3801C30.5 55.0449 31.5813 56.1247 33.248 56.1247L41.2772 56.1248C46.067 56.1248 49.9852 54.5061 52.6491 51.6725H30.5V53.3801ZM41.2772 25.6667L33.248 25.6665C31.5813 25.6665 30.5 26.7464 30.5 28.4112V30.1189H52.6491C49.9852 27.2852 46.067 25.6667 41.2772 25.6667ZM48.2842 45.2356C48.2842 46.5824 49.1627 47.4563 50.517 47.4563H55.3282C55.8736 46.1046 56.24 44.6185 56.4103 43.0149H50.517C49.1627 43.0149 48.2842 43.8886 48.2842 45.2356ZM41.6155 36.5667C41.6155 37.9137 42.494 38.7874 43.8484 38.7874H56.4103C56.24 37.1838 55.8736 35.6978 55.3282 34.346H43.8484C42.494 34.346 41.6155 35.2197 41.6155 36.5667ZM43.8468 45.2356C43.8468 43.8886 42.9684 43.0149 41.614 43.0149H30.5V47.4563H41.614C42.9684 47.4563 43.8468 46.5826 43.8468 45.2356ZM37.1781 36.5667C37.1781 35.2197 36.2997 34.346 34.9453 34.346H30.5V38.7874H34.9453C36.2997 38.7874 37.1781 37.9137 37.1781 36.5667Z" fill="black" fill-opacity="0.15"/>
<path fill-rule="evenodd" clip-rule="evenodd" d="M87.0031 40.4373C87.3609 38.6991 88.5166 37.8154 90.0356 37.8154C91.5416 37.8154 92.6427 38.7388 92.994 40.4373H87.0031ZM90.1182 34.8042C86.2504 34.8042 83.8447 37.8985 83.8447 41.6833C83.8447 45.6031 86.4154 48.5104 90.2362 48.5104C92.8712 48.5104 94.4696 47.2903 95.4588 45.7538L92.999 44.1803C92.3806 45.0263 91.3911 45.4733 90.3305 45.4733C88.5955 45.4733 87.4336 44.6598 87.0376 43.0331H93.53C93.5294 43.0352 93.529 43.0373 93.5284 43.0396L95.8952 43.0535C95.9849 42.6254 96.0378 42.1831 96.0378 41.6833C96.0378 38.3865 94.0096 34.8042 90.1182 34.8042Z" fill="black" fill-opacity="0.15"/>
<path fill-rule="evenodd" clip-rule="evenodd" d="M73.9377 45.4645C71.558 45.4645 70.1274 43.7598 70.1274 41.6571C70.1274 39.5545 71.5854 37.8499 73.9377 37.8499C76.2901 37.8499 77.7481 39.5545 77.7481 41.6571C77.7481 43.7598 76.3175 45.4645 73.9377 45.4645ZM77.4887 36.8165C76.5385 35.6761 75.1893 34.977 73.5146 34.977C69.7713 34.977 67.0791 38.0067 67.0791 41.7437C67.0791 45.4809 69.7457 48.5104 73.5146 48.5104C75.1893 48.5104 76.5385 47.8113 77.4887 46.6709V48.1771H80.7963V30.2354H77.4887V36.8165Z" fill="black" fill-opacity="0.15"/>
<path fill-rule="evenodd" clip-rule="evenodd" d="M106.152 41.4324C107.05 42.0592 107.62 42.999 107.62 44.2393C107.62 46.7458 105.929 48.4849 102.767 48.4849C99.7923 48.4849 98.197 46.9617 97.5618 45.4234L100.292 43.8301C100.292 43.8301 100.66 45.4925 102.718 45.4925C103.993 45.4925 104.385 44.9298 104.385 44.4328C104.385 44.2026 104.311 43.779 103.405 43.4208C101.583 42.7017 98.0623 42.3791 98.0623 39.0985C98.0623 36.4132 100.169 34.981 102.767 34.981C105.197 34.981 106.758 36.4916 107.35 37.667L104.679 39.2265C104.679 39.2265 104.164 37.922 102.792 37.922C101.42 37.922 101.297 38.715 101.297 38.9451C101.297 39.6165 101.982 39.8921 103.454 40.3263C104.325 40.5833 105.22 40.8167 106.155 41.43C106.154 41.4308 106.153 41.4316 106.152 41.4324ZM160.051 38.5103H157.282V43.83C157.282 45.4926 158.9 45.1344 160.051 45.1344V48.1268C160.051 48.1268 159.445 48.2291 158.385 48.2291C156.033 48.2291 154.121 47.513 154.121 43.83V38.5103H151.989V35.3389H154.121V31.7583H157.282V35.3389H160.051V38.5103ZM115.478 45.2623C116.79 45.2623 117.799 44.6092 118.309 43.5379L121.049 45.1777C119.975 47.143 117.975 48.5104 115.478 48.5104C111.692 48.5104 109.046 45.4874 109.046 41.7585C109.046 38.0294 111.717 35.0065 115.478 35.0065C117.938 35.0065 119.931 36.3515 121.016 38.2907L118.282 39.968C117.763 38.9107 116.762 38.2546 115.478 38.2546C113.565 38.2546 112.207 39.8233 112.207 41.7585C112.207 43.6936 113.553 45.2623 115.478 45.2623Z" fill="black" fill-opacity="0.15"/>
<path fill-rule="evenodd" clip-rule="evenodd" d="M144.539 45.2274C142.479 45.2274 141.241 43.6232 141.241 41.6445C141.241 39.6658 142.503 38.0618 144.539 38.0618C146.574 38.0618 147.836 39.6658 147.836 41.6445C147.836 43.6232 146.598 45.2274 144.539 45.2274ZM144.931 34.9362C148.407 34.9362 150.907 37.9397 150.907 41.6445C150.907 45.3494 148.431 48.3528 144.931 48.3528C143.376 48.3528 142.124 47.6598 141.241 46.5292V53.0791H138.17V35.292H141.241V36.7598C142.124 35.6292 143.376 34.9362 144.931 34.9362ZM132.266 48.0224V35.3173H135.337V48.0224H132.266ZM126.543 37.4876C127.136 35.948 128.343 35.0674 130.162 35.0634V38.7225C128.03 38.5072 126.489 39.6387 126.546 42.3115C126.545 42.3096 126.544 42.3076 126.543 42.3055V48.0224H123.472V35.3175H126.543V37.4876ZM132.266 33.6218V30.2354H135.439V33.6218H132.266Z" fill="black" fill-opacity="0.15"/>
</g>
<defs>
<clipPath id="clip0_676_2867">
<rect width="130" height="43" fill="white" transform="translate(30.5 18.5)"/>
</clipPath>
</defs>
</svg>
