<svg width="191" height="80" viewBox="0 0 191 80" fill="none" xmlns="http://www.w3.org/2000/svg">
<path fill-rule="evenodd" clip-rule="evenodd" d="M107.142 52.3688C101.414 56.5707 93.1131 58.8125 85.9659 58.8125C75.9443 58.8125 66.9224 55.1231 60.0969 48.9868C59.5606 48.5043 60.0411 47.8467 60.6846 48.2225C68.0506 52.4884 77.1584 55.0548 86.5665 55.0548C92.9114 55.0548 99.8914 53.7481 106.309 51.0365C107.279 50.6266 108.09 51.6685 107.142 52.3688Z" fill="black" fill-opacity="0.15"/>
<path fill-rule="evenodd" clip-rule="evenodd" d="M109.523 49.6573C108.793 48.7264 104.683 49.2175 102.839 49.4353C102.277 49.5036 102.191 49.0168 102.697 48.6666C105.97 46.3735 111.342 47.0354 111.968 47.804C112.594 48.5769 111.805 53.936 108.729 56.4939C108.257 56.8867 107.807 56.6775 108.017 56.1565C108.707 54.4399 110.256 50.5925 109.523 49.6573Z" fill="black" fill-opacity="0.15"/>
<path fill-rule="evenodd" clip-rule="evenodd" d="M102.968 32.4783V30.2492C102.968 29.9119 103.225 29.6856 103.534 29.6856H113.56C113.881 29.6856 114.139 29.9161 114.139 30.2492V32.158C114.135 32.4783 113.864 32.8967 113.384 33.5586L108.189 40.9418C110.119 40.8948 112.157 41.1809 113.907 42.163C114.302 42.3851 114.409 42.7096 114.439 43.0299V45.4084C114.439 45.7329 114.079 46.113 113.701 45.9165C110.617 44.3067 106.52 44.1316 103.109 45.9336C102.762 46.1215 102.397 45.7457 102.397 45.4212V43.1623C102.397 42.7993 102.401 42.1801 102.766 41.6293L108.785 33.0377H103.547C103.225 33.0377 102.968 32.8113 102.968 32.4783Z" fill="black" fill-opacity="0.15"/>
<path fill-rule="evenodd" clip-rule="evenodd" d="M66.3949 46.3863H63.3447C63.053 46.3649 62.8213 46.1471 62.7999 45.8696V30.2877C62.7999 29.976 63.0615 29.7283 63.3876 29.7283H66.2319C66.5279 29.7411 66.7639 29.9674 66.7853 30.2493V32.2861H66.8411C67.5833 30.3176 68.9775 29.3995 70.8566 29.3995C72.7656 29.3995 73.9583 30.3176 74.8163 32.2861C75.5542 30.3176 77.2316 29.3995 79.0291 29.3995C80.3075 29.3995 81.7061 29.9247 82.5598 31.1033C83.5251 32.4142 83.3277 34.3187 83.3277 35.9884L83.3234 45.8226C83.3234 46.1343 83.0617 46.3863 82.7357 46.3863H79.6898C79.3852 46.3649 79.1406 46.1215 79.1406 45.8226V37.5641C79.1406 36.9065 79.2007 35.2667 79.0548 34.6433C78.8275 33.5971 78.1453 33.3024 77.2616 33.3024C76.5237 33.3024 75.7515 33.7935 75.4383 34.5792C75.1252 35.3649 75.1552 36.6801 75.1552 37.5641V45.8226C75.1552 46.1343 74.8935 46.3863 74.5674 46.3863H71.5215C71.2126 46.3649 70.9724 46.1215 70.9724 45.8226L70.9681 37.5641C70.9681 35.8261 71.2555 33.2683 69.0891 33.2683C66.8968 33.2683 66.9827 35.7621 66.9827 37.5641V45.8226C66.9827 46.1343 66.721 46.3863 66.3949 46.3863Z" fill="black" fill-opacity="0.15"/>
<path fill-rule="evenodd" clip-rule="evenodd" d="M122.77 29.3995C127.296 29.3995 129.746 33.2683 129.746 38.1875C129.746 42.9402 127.039 46.7108 122.77 46.7108C118.326 46.7108 115.906 42.842 115.906 38.021C115.906 33.1701 118.356 29.3995 122.77 29.3995ZM122.796 32.5808C120.548 32.5808 120.406 35.6297 120.406 37.5299C120.406 39.4344 120.376 43.4996 122.77 43.4996C125.134 43.4996 125.246 40.2201 125.246 38.2217C125.246 36.9065 125.19 35.335 124.791 34.0881C124.448 33.0035 123.766 32.5808 122.796 32.5808Z" fill="black" fill-opacity="0.15"/>
<path fill-rule="evenodd" clip-rule="evenodd" d="M135.615 46.3863H132.577C132.273 46.3649 132.028 46.1215 132.028 45.8226L132.024 30.2364C132.05 29.9503 132.303 29.7283 132.612 29.7283H135.439C135.705 29.7411 135.924 29.9205 135.984 30.1639V32.5466H136.04C136.893 30.4158 138.09 29.3995 140.197 29.3995C141.565 29.3995 142.899 29.8906 143.757 31.2357C144.555 32.4826 144.555 34.5792 144.555 36.0866V45.8952C144.521 46.1685 144.268 46.3863 143.968 46.3863H140.909C140.63 46.3649 140.398 46.16 140.368 45.8952V37.4317C140.368 35.7279 140.566 33.2341 138.459 33.2341C137.717 33.2341 137.035 33.7295 136.696 34.481C136.267 35.4333 136.211 36.3812 136.211 37.4317V45.8226C136.207 46.1343 135.941 46.3863 135.615 46.3863Z" fill="black" fill-opacity="0.15"/>
<path fill-rule="evenodd" clip-rule="evenodd" d="M94.9752 38.9433C94.9752 40.1262 95.0053 41.1126 94.4047 42.163C93.9199 43.0171 93.1477 43.5423 92.294 43.5423C91.1228 43.5423 90.4364 42.6541 90.4364 41.3432C90.4364 38.7554 92.7659 38.2857 94.9752 38.2857V38.9433ZM98.0512 46.3435C97.8496 46.5229 97.5578 46.5357 97.3305 46.4161C96.318 45.5792 96.1335 45.1906 95.5801 44.3921C93.907 46.0916 92.7187 46.5998 90.5522 46.5998C87.9825 46.5998 85.9876 45.0241 85.9876 41.8684C85.9876 39.4045 87.3261 37.7263 89.2394 36.9064C90.8954 36.1805 93.2077 36.0524 94.9752 35.8517V35.4588C94.9752 34.7372 95.031 33.8831 94.602 33.2597C94.2331 32.7003 93.5209 32.4697 92.8903 32.4697C91.7277 32.4697 90.6938 33.0633 90.4407 34.2931C90.3892 34.5664 90.1876 34.8354 89.9087 34.8482L86.9529 34.5322C86.704 34.4767 86.4252 34.276 86.4981 33.896C87.1759 30.3261 90.4192 29.25 93.3193 29.25C94.8036 29.25 96.7427 29.6429 97.9139 30.7616C99.3983 32.1409 99.2567 33.9814 99.2567 35.9841V40.7154C99.2567 42.1374 99.8487 42.7609 100.406 43.5295C100.599 43.8028 100.642 44.1316 100.394 44.3366C99.7715 44.8533 98.6647 45.814 98.0555 46.3521L98.0512 46.3435Z" fill="black" fill-opacity="0.15"/>
<path fill-rule="evenodd" clip-rule="evenodd" d="M54.9876 38.9433C54.9876 40.1262 55.0177 41.1126 54.4171 42.163C53.9323 43.0171 53.1644 43.5423 52.3064 43.5423C51.1352 43.5423 50.4531 42.6541 50.4531 41.3432C50.4531 38.7554 52.7826 38.2857 54.9876 38.2857V38.9433ZM58.0636 46.3435C57.862 46.5229 57.5702 46.5357 57.3429 46.4161C56.3304 45.5792 56.1502 45.1906 55.5925 44.3921C53.9194 46.0916 52.7354 46.5997 50.5646 46.5997C47.9992 46.5997 46 45.024 46 41.8684C46 39.4045 47.3428 37.7263 49.2519 36.9064C50.9078 36.1805 53.2201 36.0524 54.9876 35.8517V35.4588C54.9876 34.7372 55.0434 33.8831 54.6187 33.2597C54.2455 32.7003 53.5333 32.4697 52.907 32.4697C51.7444 32.4697 50.7062 33.0633 50.4531 34.2931C50.4016 34.5664 50.2 34.8354 49.9254 34.8482L46.9653 34.5322C46.7164 34.4767 46.4419 34.276 46.5105 33.896C47.1926 30.3261 50.4316 29.25 53.3317 29.25C54.816 29.25 56.7551 29.6429 57.9263 30.7616C59.4107 32.1409 59.2691 33.9814 59.2691 35.9841V40.7154C59.2691 42.1374 59.8611 42.7609 60.4188 43.5295C60.6162 43.8028 60.6591 44.1316 60.4102 44.3365C59.7882 44.8532 58.6814 45.814 58.0722 46.3521L58.0636 46.3435Z" fill="black" fill-opacity="0.15"/>
</svg>
