<svg width="190" height="80" viewBox="0 0 190 80" fill="none" xmlns="http://www.w3.org/2000/svg">
<g clip-path="url(#clip0_358_364)">
<path d="M27.5 18H56.6427V32.5713H42.0713L27.5 18ZM27.5 32.5713H42.0713L56.6427 47.1427H27.5V32.5713ZM27.5 47.1427H42.0713V61.714L27.5 47.1427Z" fill="black"/>
<path d="M73.0859 29.4954H84.8659V33.2387H77.5446V38.4407H84.8659V42.1014H77.5446V48.762H73.0859V29.4954ZM87.2879 35.4954H91.4993V38.2754C91.7193 37.32 92.1693 36.5867 92.8479 36.0734C93.5439 35.5407 94.3166 35.2754 95.1599 35.2754C95.6006 35.2754 95.9679 35.3127 96.2606 35.3854V39.294C95.8406 39.2434 95.4179 39.216 94.9946 39.2114C93.8386 39.2114 92.9679 39.5867 92.3799 40.3394C91.7939 41.0734 91.4993 42.174 91.4993 43.6427V48.762H87.2899V35.4954H87.2879ZM102.909 49.12C101.625 49.12 100.505 48.8167 99.5506 48.2114C98.6146 47.606 97.8706 46.7467 97.4039 45.734C96.9086 44.6707 96.6593 43.4674 96.6593 42.1287C96.6593 40.8074 96.9179 39.614 97.4313 38.5507C97.9126 37.5234 98.6766 36.6547 99.6333 36.046C100.605 35.4407 101.715 35.1374 102.964 35.1374C103.899 35.1374 104.735 35.34 105.469 35.7434C106.202 36.148 106.753 36.6987 107.12 37.3947V35.4954H111.303V48.762H107.12V46.89C106.753 47.5507 106.184 48.0914 105.413 48.514C104.643 48.9227 103.781 49.1307 102.909 49.12ZM104.12 45.624C105.129 45.624 105.909 45.294 106.459 44.6334C107.01 43.9727 107.285 43.1374 107.285 42.1287C107.285 41.138 107.01 40.312 106.459 39.6514C105.909 38.9907 105.129 38.6607 104.12 38.6607C103.165 38.6607 102.395 38.9814 101.808 39.624C101.239 40.2667 100.955 41.1007 100.955 42.1287C100.955 43.1567 101.239 44 101.808 44.6607C102.395 45.3034 103.166 45.624 104.12 45.624ZM114.249 35.4954H118.46V37.422C118.755 36.742 119.231 36.1914 119.891 35.7707C120.571 35.35 121.359 35.1374 122.258 35.1374C124.35 35.1374 125.736 35.9534 126.414 37.5874C126.787 36.8467 127.371 36.234 128.093 35.826C128.865 35.3614 129.752 35.1234 130.653 35.1374C133.791 35.1374 135.359 36.9347 135.359 40.532V48.762H131.121V41.3027C131.121 40.4047 130.955 39.744 130.625 39.3214C130.295 38.9 129.799 38.688 129.139 38.688C128.423 38.688 127.873 38.936 127.487 39.4314C127.102 39.9087 126.909 40.7427 126.909 41.936V48.762H122.671V41.2754C122.671 40.3767 122.506 39.7247 122.175 39.3214C121.865 38.9 121.377 38.688 120.718 38.688C119.983 38.688 119.423 38.936 119.038 39.4314C118.653 39.9087 118.46 40.7427 118.46 41.936V48.762H114.25V35.4954H114.249ZM151.179 41.4407C151.179 42.0087 151.142 42.624 151.067 43.2847H141.271C141.308 44.1474 141.601 44.8067 142.151 45.2667C142.702 45.7247 143.447 45.9547 144.381 45.9547C145.684 45.9547 146.51 45.5594 146.858 44.7707H150.987C150.784 46.074 150.069 47.128 148.839 47.936C147.629 48.7247 146.142 49.12 144.381 49.12C142.106 49.12 140.317 48.5047 139.013 47.2754C137.729 46.0454 137.087 44.3307 137.087 42.1287C137.087 40.6974 137.38 39.4587 137.967 38.4127C138.535 37.368 139.409 36.5227 140.472 35.9907C141.555 35.4227 142.812 35.1374 144.245 35.1374C145.601 35.1374 146.803 35.4034 147.849 35.936C148.913 36.4687 149.73 37.2114 150.298 38.1654C150.886 39.1207 151.179 40.212 151.179 41.4407ZM147.021 40.67C147.003 39.7894 146.756 39.1187 146.278 38.6607C145.802 38.2027 145.113 37.9727 144.214 37.9727C143.315 37.9727 142.6 38.22 142.067 38.716C141.554 39.1934 141.288 39.844 141.269 40.67H147.021ZM153.036 35.4954H157.247V38.2754C157.467 37.32 157.917 36.5867 158.596 36.0734C159.255 35.5547 160.069 35.2734 160.908 35.2754C161.348 35.2754 161.716 35.3127 162.009 35.3854V39.294C161.589 39.2434 161.166 39.216 160.743 39.2114C159.587 39.2114 158.716 39.5867 158.128 40.3394C157.54 41.0734 157.247 42.174 157.247 43.6427V48.762H153.036V35.4954Z" fill="black"/>
</g>
<defs>
<clipPath id="clip0_358_364">
<rect width="135" height="48" fill="white" transform="translate(27.5 16)"/>
</clipPath>
</defs>
</svg>
