<svg width="191" height="80" viewBox="0 0 191 80" fill="none" xmlns="http://www.w3.org/2000/svg">
<g opacity="0.15">
<path d="M38 21.2085H62.8252V33.6548H50.4126L38 21.2085ZM38 33.6548H50.4126L62.8252 46.1012H38V33.6548ZM38 46.1012H50.4126V58.5475L38 46.1012Z" fill="black"/>
<path d="M76.8325 31.0275H86.8673V34.2249H80.6306V38.6683H86.8673V41.7951H80.6306V47.4844H76.8325V31.0275ZM88.9305 36.1525H92.5179V38.527C92.7053 37.711 93.0886 37.0846 93.6668 36.6462C94.2596 36.1912 94.9178 35.9645 95.6362 35.9645C96.0116 35.9645 96.3245 35.9964 96.5738 36.0585V39.3971C96.2161 39.3539 95.856 39.3305 95.4954 39.3265C94.5107 39.3265 93.769 39.6471 93.2681 40.29C92.7689 40.917 92.5179 41.8571 92.5179 43.1116V47.4844H88.9322V36.1525H88.9305ZM102.237 47.7902C101.143 47.7902 100.189 47.5311 99.3764 47.014C98.5791 46.497 97.9453 45.763 97.5478 44.898C97.1258 43.9897 96.9135 42.9619 96.9135 41.8184C96.9135 40.6898 97.1338 39.6705 97.5711 38.7622C97.9811 37.8847 98.6319 37.1427 99.4468 36.6228C100.274 36.1058 101.22 35.8467 102.284 35.8467C103.081 35.8467 103.793 36.0198 104.418 36.3643C105.042 36.7099 105.511 37.1803 105.824 37.7748V36.1525H109.388V47.4844H105.824V45.8854C105.511 46.4497 105.027 46.9115 104.371 47.2726C103.714 47.6216 102.98 47.7993 102.237 47.7902ZM103.269 44.804C104.128 44.804 104.793 44.5221 105.262 43.9578C105.731 43.3935 105.965 42.68 105.965 41.8184C105.965 40.9722 105.731 40.2667 105.262 39.7024C104.793 39.138 104.128 38.8562 103.269 38.8562C102.455 38.8562 101.8 39.1301 101.299 39.679C100.815 40.228 100.572 40.9403 100.572 41.8184C100.572 42.6965 100.815 43.4169 101.299 43.9812C101.8 44.5301 102.456 44.804 103.269 44.804ZM111.897 36.1525H115.484V37.7981C115.735 37.2173 116.141 36.747 116.703 36.3876C117.282 36.0283 117.954 35.8467 118.72 35.8467C120.502 35.8467 121.682 36.5437 122.26 37.9394C122.578 37.3067 123.076 36.7834 123.691 36.4349C124.348 36.038 125.104 35.8347 125.871 35.8467C128.544 35.8467 129.88 37.3819 129.88 40.4546V47.4844H126.269V41.1129C126.269 40.3458 126.129 39.7815 125.847 39.4205C125.566 39.0606 125.144 38.8795 124.581 38.8795C123.972 38.8795 123.503 39.0914 123.174 39.5145C122.846 39.9222 122.682 40.6345 122.682 41.6539V47.4844H119.071V41.0895C119.071 40.3219 118.931 39.765 118.649 39.4205C118.385 39.0606 117.97 38.8795 117.408 38.8795C116.782 38.8795 116.305 39.0914 115.977 39.5145C115.649 39.9222 115.484 40.6345 115.484 41.6539V47.4844H111.898V36.1525H111.897ZM143.356 41.2308C143.356 41.7159 143.325 42.2415 143.261 42.8058H134.916C134.947 43.5427 135.197 44.1059 135.666 44.4988C136.135 44.89 136.769 45.0865 137.565 45.0865C138.675 45.0865 139.379 44.7488 139.675 44.0751H143.192C143.02 45.1884 142.41 46.0887 141.363 46.7789C140.332 47.4525 139.065 47.7902 137.565 47.7902C135.627 47.7902 134.103 47.2646 132.993 46.2145C131.899 45.1639 131.352 43.6993 131.352 41.8184C131.352 40.5958 131.601 39.5378 132.102 38.6443C132.585 37.752 133.33 37.03 134.235 36.5755C135.158 36.0904 136.229 35.8467 137.449 35.8467C138.605 35.8467 139.628 36.0739 140.519 36.5289C141.426 36.9838 142.122 37.6182 142.606 38.4331C143.107 39.2491 143.356 40.1813 143.356 41.2308ZM139.814 40.5725C139.799 39.8202 139.588 39.2474 139.181 38.8562C138.776 38.465 138.188 38.2685 137.423 38.2685C136.657 38.2685 136.048 38.4798 135.594 38.9034C135.157 39.3112 134.93 39.8669 134.914 40.5725H139.814ZM144.938 36.1525H148.525V38.527C148.713 37.711 149.096 37.0846 149.674 36.6462C150.235 36.2031 150.929 35.9628 151.644 35.9645C152.019 35.9645 152.332 35.9964 152.581 36.0585V39.3971C152.224 39.3539 151.864 39.3305 151.503 39.3265C150.518 39.3265 149.777 39.6471 149.276 40.29C148.775 40.917 148.525 41.8571 148.525 43.1116V47.4844H144.938V36.1525Z" fill="black"/>
</g>
</svg>
