<svg width="191" height="80" viewBox="0 0 191 80" fill="none" xmlns="http://www.w3.org/2000/svg">
<path fill-rule="evenodd" clip-rule="evenodd" d="M50.6224 22.979C41.991 22.979 35 29.9664 35 38.5934C35 45.5027 39.4719 51.3386 45.6818 53.4075C46.463 53.5441 46.7559 53.0757 46.7559 52.6658C46.7559 52.295 46.7364 51.0654 46.7364 49.7577C42.8112 50.4798 41.7958 48.8013 41.4833 47.923C41.3076 47.474 40.546 46.0883 39.882 45.7174C39.3352 45.4247 38.5541 44.7025 39.8625 44.683C41.0928 44.6635 41.9715 45.815 42.2644 46.2835C43.6705 48.6451 45.9162 47.9815 46.8145 47.5716C46.9512 46.5567 47.3613 45.8736 47.8104 45.4832C44.3344 45.0929 40.7022 43.7461 40.7022 37.7736C40.7022 36.0756 41.3076 34.6703 42.3035 33.5773C42.1473 33.1869 41.6005 31.5864 42.4597 29.4394C42.4597 29.4394 43.7681 29.0296 46.7559 31.0399C48.0057 30.6886 49.3336 30.5129 50.6615 30.5129C51.9894 30.5129 53.3173 30.6886 54.5671 31.0399C57.5549 29.0101 58.8633 29.4394 58.8633 29.4394C59.7225 31.5864 59.1757 33.1869 59.0195 33.5773C60.0154 34.6703 60.6208 36.056 60.6208 37.7736C60.6208 43.7656 56.9691 45.0929 53.4931 45.4832C54.0594 45.9712 54.5476 46.908 54.5476 48.3719C54.5476 50.4603 54.5281 52.1388 54.5281 52.6658C54.5281 53.0757 54.821 53.5637 55.6021 53.4075C58.7034 52.3611 61.3984 50.3689 63.3075 47.7114C65.2167 45.054 66.244 41.865 66.2449 38.5934C66.2449 29.9664 59.2538 22.979 50.6224 22.979Z" fill="black" fill-opacity="0.15"/>
<path d="M107.829 46.13H107.793C107.809 46.13 107.82 46.1483 107.837 46.1501H107.847L107.829 46.1319V46.13ZM107.837 46.1501C107.667 46.1519 107.241 46.2412 106.79 46.2412C105.369 46.2412 104.877 45.5854 104.877 44.7292V39.0255H107.775C107.939 39.0255 108.066 38.8798 108.066 38.6794V35.5825C108.066 35.4186 107.92 35.2728 107.775 35.2728H104.877V31.4291C104.877 31.2834 104.785 31.1923 104.621 31.1923H100.685C100.521 31.1923 100.429 31.2834 100.429 31.4291V35.3821C100.429 35.3821 98.4427 35.874 98.3152 35.8922C98.1693 35.9286 98.0782 36.0562 98.0782 36.2019V38.6794C98.0782 38.8798 98.224 39.0255 98.3881 39.0255H100.411V45.0006C100.411 49.4455 103.51 49.9009 105.624 49.9009C106.59 49.9009 107.756 49.5912 107.939 49.5001C108.048 49.4637 108.103 49.3362 108.103 49.2087V46.4762C108.105 46.3987 108.08 46.3228 108.031 46.2626C107.982 46.2024 107.913 46.1618 107.837 46.1483V46.1501ZM151.025 42.1406C151.025 38.8433 149.695 38.4061 148.291 38.5519C147.198 38.6247 146.323 39.1712 146.323 39.1712V45.5835C146.323 45.5835 147.216 46.2029 148.547 46.2393C150.424 46.294 151.025 45.62 151.025 42.1406ZM155.454 41.8491C155.454 48.0974 153.431 49.8827 149.895 49.8827C146.906 49.8827 145.302 48.3707 145.302 48.3707C145.302 48.3707 145.229 49.2087 145.138 49.318C145.084 49.4273 144.992 49.4637 144.883 49.4637H142.186C142.003 49.4637 141.839 49.318 141.839 49.154L141.876 28.9152C141.876 28.7512 142.022 28.6055 142.186 28.6055H146.068C146.232 28.6055 146.378 28.7512 146.378 28.9152V35.7829C146.378 35.7829 147.872 34.8174 150.059 34.8174L150.041 34.781C152.228 34.781 155.454 35.6007 155.454 41.8491ZM139.561 35.2728H135.734C135.533 35.2728 135.424 35.4186 135.424 35.619V45.5289C135.424 45.5289 134.421 46.2393 133.054 46.2393C131.687 46.2393 131.286 45.62 131.286 44.2537V35.6007C131.286 35.4368 131.141 35.2911 130.976 35.2911H127.076C126.912 35.2911 126.766 35.4368 126.766 35.6007V44.9095C126.766 48.9172 129.008 49.9191 132.088 49.9191C134.622 49.9191 136.681 48.5164 136.681 48.5164C136.681 48.5164 136.772 49.2269 136.827 49.3362C136.864 49.4273 136.991 49.5001 137.119 49.5001H139.561C139.761 49.5001 139.871 49.3544 139.871 49.1905L139.907 35.5825C139.907 35.4186 139.761 35.2728 139.561 35.2728ZM96.365 35.2546H92.4828C92.3187 35.2546 92.1729 35.4186 92.1729 35.619V48.9901C92.1729 49.3544 92.4099 49.4819 92.7197 49.4819H96.2191C96.5837 49.4819 96.6748 49.318 96.6748 48.9901V35.5643C96.6748 35.4004 96.529 35.2546 96.365 35.2546ZM94.4512 29.0974C93.0478 29.0974 91.936 30.2086 91.936 31.6113C91.936 33.014 93.0478 34.1252 94.4512 34.1252C95.8182 34.1252 96.93 33.014 96.93 31.6113C96.93 30.2086 95.8182 29.0974 94.4512 29.0974ZM124.506 28.6419H120.66C120.496 28.6419 120.351 28.7877 120.351 28.9516V36.4023H114.318V28.9516C114.318 28.7877 114.172 28.6419 114.008 28.6419H110.126C109.962 28.6419 109.816 28.7877 109.816 28.9516V49.1905C109.816 49.3544 109.98 49.5001 110.126 49.5001H114.008C114.172 49.5001 114.318 49.3544 114.318 49.1905V40.5375H120.351L120.314 49.1905C120.314 49.3544 120.46 49.5001 120.624 49.5001H124.506C124.67 49.5001 124.816 49.3544 124.816 49.1905V28.9516C124.816 28.7877 124.67 28.6419 124.506 28.6419ZM90.1134 37.6046V48.061C90.1134 48.1339 90.0951 48.2614 90.004 48.2978C90.004 48.2978 87.7257 49.9191 83.9711 49.9191C79.4328 49.9191 74.0561 48.4982 74.0561 39.1348C74.0561 29.7714 78.7585 27.8404 83.3515 27.8586C87.3248 27.8586 88.9287 28.7512 89.1838 28.9152C89.2567 29.0063 89.2932 29.0791 89.2932 29.1702L88.5277 32.4128C88.5277 32.5768 88.3637 32.7771 88.1632 32.7225C87.507 32.5221 86.5228 32.1213 84.2081 32.1213C81.5288 32.1213 78.6491 32.8864 78.6491 38.9162C78.6491 44.9459 81.383 45.6564 83.3515 45.6564C85.0283 45.6564 85.6297 45.456 85.6297 45.456V41.2662H82.9505C82.75 41.2662 82.6042 41.1204 82.6042 40.9565V37.6046C82.6042 37.4406 82.75 37.2949 82.9505 37.2949H89.7671C89.9676 37.2949 90.1134 37.4406 90.1134 37.6046Z" fill="black" fill-opacity="0.15"/>
</svg>
