<svg width="190" height="80" viewBox="0 0 190 80" fill="none" xmlns="http://www.w3.org/2000/svg">
<g clip-path="url(#clip0_347_416)">
<path fill-rule="evenodd" clip-rule="evenodd" d="M44.93 21C35.2999 21 27.5 28.7999 27.5 38.43C27.5 46.1428 32.4893 52.6572 39.4178 54.9667C40.2893 55.1192 40.6161 54.5963 40.6161 54.1388C40.6161 53.7248 40.5943 52.3522 40.5943 50.8924C36.215 51.6986 35.082 49.8249 34.7334 48.8444C34.5374 48.3433 33.6876 46.7964 32.9469 46.3824C32.3368 46.0556 31.4653 45.2495 32.9251 45.2277C34.2977 45.2059 35.2781 46.4914 35.6049 47.0143C37.1736 49.6506 39.6792 48.9098 40.6814 48.4522C40.8339 47.3193 41.2915 46.5567 41.7926 46.121C37.9144 45.6852 33.8619 44.1819 33.8619 37.5149C33.8619 35.6194 34.5374 34.0507 35.6485 32.8306C35.4742 32.3949 34.8642 30.6083 35.8228 28.2117C35.8228 28.2117 37.2826 27.7541 40.6161 29.9982C42.0105 29.6061 43.492 29.41 44.9736 29.41C46.4551 29.41 47.9367 29.6061 49.3311 29.9982C52.6646 27.7323 54.1243 28.2117 54.1243 28.2117C55.083 30.6083 54.4729 32.3949 54.2986 32.8306C55.4098 34.0507 56.0852 35.5976 56.0852 37.5149C56.0852 44.2037 52.0109 45.6852 48.1328 46.121C48.7646 46.6657 49.3093 47.7115 49.3093 49.3455C49.3093 51.6768 49.2875 53.5505 49.2875 54.1388C49.2875 54.5963 49.6143 55.141 50.4858 54.9667C53.946 53.7986 56.9527 51.5748 59.0828 48.6083C61.2129 45.6418 62.3591 42.082 62.36 38.43C62.36 28.7999 54.5601 21 44.93 21Z" fill="black" fill-opacity="0.15"/>
<path d="M108.756 46.843H108.715C108.733 46.843 108.746 46.8633 108.764 46.8654H108.776L108.756 46.845V46.843ZM108.764 46.8654C108.575 46.8674 108.099 46.9671 107.597 46.9671C106.011 46.9671 105.461 46.235 105.461 45.2793V38.9124H108.695C108.878 38.9124 109.02 38.7497 109.02 38.526V35.0691C109.02 34.886 108.857 34.7234 108.695 34.7234H105.461V30.4327C105.461 30.27 105.36 30.1683 105.177 30.1683H100.784C100.601 30.1683 100.5 30.27 100.5 30.4327V34.8454C100.5 34.8454 98.2832 35.3944 98.1409 35.4147C97.9782 35.4554 97.8765 35.5978 97.8765 35.7604V38.526C97.8765 38.7497 98.0392 38.9124 98.2222 38.9124H100.479V45.5822C100.479 50.544 103.936 51.0524 106.295 51.0524C107.373 51.0524 108.674 50.7067 108.878 50.605C109 50.5643 109.061 50.422 109.061 50.2796V47.2294C109.064 47.1429 109.035 47.0582 108.981 46.991C108.926 46.9238 108.849 46.8785 108.764 46.8633V46.8654ZM156.95 42.3897C156.95 38.709 155.465 38.221 153.899 38.3837C152.679 38.465 151.703 39.075 151.703 39.075V46.233C151.703 46.233 152.7 46.9244 154.184 46.965C156.279 47.026 156.95 46.2736 156.95 42.3897ZM161.891 42.0643C161.891 49.0392 159.634 51.032 155.689 51.032C152.354 51.032 150.564 49.3442 150.564 49.3442C150.564 49.3442 150.483 50.2796 150.381 50.4016C150.32 50.5236 150.219 50.5643 150.097 50.5643H147.087C146.884 50.5643 146.701 50.4016 146.701 50.2186L146.742 27.6264C146.742 27.4434 146.904 27.2808 147.087 27.2808H151.419C151.602 27.2808 151.764 27.4434 151.764 27.6264V35.2927C151.764 35.2927 153.432 34.215 155.872 34.215L155.852 34.1743C158.292 34.1743 161.891 35.0894 161.891 42.0643ZM144.159 34.7234H139.889C139.665 34.7234 139.543 34.886 139.543 35.1097V46.172C139.543 46.172 138.424 46.965 136.899 46.965C135.374 46.965 134.927 46.2736 134.927 44.7485V35.0894C134.927 34.9064 134.764 34.7437 134.581 34.7437H130.229C130.046 34.7437 129.884 34.9064 129.884 35.0894V45.4806C129.884 49.9543 132.385 51.0727 135.822 51.0727C138.648 51.0727 140.946 49.5069 140.946 49.5069C140.946 49.5069 141.048 50.3 141.109 50.422C141.149 50.5236 141.292 50.605 141.434 50.605H144.159C144.383 50.605 144.505 50.4423 144.505 50.2593L144.545 35.0691C144.545 34.886 144.383 34.7234 144.159 34.7234ZM95.965 34.703H91.6337C91.4507 34.703 91.288 34.886 91.288 35.1097V50.0356C91.288 50.4423 91.5523 50.5847 91.898 50.5847H95.8023C96.209 50.5847 96.3107 50.4016 96.3107 50.0356V35.0487C96.3107 34.8657 96.148 34.703 95.965 34.703ZM93.8298 27.8298C92.2641 27.8298 91.0236 29.0702 91.0236 30.636C91.0236 32.2018 92.2641 33.4423 93.8298 33.4423C95.355 33.4423 96.5954 32.2018 96.5954 30.636C96.5954 29.0702 95.355 27.8298 93.8298 27.8298ZM127.362 27.3214H123.072C122.889 27.3214 122.726 27.4841 122.726 27.6671V35.9841H115.995V27.6671C115.995 27.4841 115.832 27.3214 115.649 27.3214H111.318C111.135 27.3214 110.972 27.4841 110.972 27.6671V50.2593C110.972 50.4423 111.155 50.605 111.318 50.605H115.649C115.832 50.605 115.995 50.4423 115.995 50.2593V40.6002H122.726L122.685 50.2593C122.685 50.4423 122.848 50.605 123.031 50.605H127.362C127.545 50.605 127.708 50.4423 127.708 50.2593V27.6671C127.708 27.4841 127.545 27.3214 127.362 27.3214ZM88.9901 37.3262V48.9985C88.9901 49.0799 88.9698 49.2222 88.8681 49.2629C88.8681 49.2629 86.3262 51.0727 82.1372 51.0727C77.0738 51.0727 71.075 49.4866 71.075 39.0344C71.075 28.5822 76.3214 26.4267 81.4458 26.447C85.8789 26.447 87.6683 27.4434 87.953 27.6264C88.0344 27.7281 88.075 27.8095 88.075 27.9111L87.221 31.5308C87.221 31.7138 87.038 31.9375 86.8143 31.8765C86.0822 31.6528 84.9841 31.2054 82.4016 31.2054C79.4123 31.2054 76.1994 32.0595 76.1994 38.7904C76.1994 45.5212 79.2497 46.3143 81.4458 46.3143C83.3167 46.3143 83.9877 46.0906 83.9877 46.0906V41.4136H80.9985C80.7748 41.4136 80.6121 41.2509 80.6121 41.0679V37.3262C80.6121 37.1432 80.7748 36.9805 80.9985 36.9805H88.6038C88.8274 36.9805 88.9901 37.1432 88.9901 37.3262Z" fill="black" fill-opacity="0.15"/>
</g>
<defs>
<clipPath id="clip0_347_416">
<rect width="135" height="48" fill="white" transform="translate(27.5 16)"/>
</clipPath>
</defs>
</svg>
