<svg width="190" height="80" viewBox="0 0 190 80" fill="none" xmlns="http://www.w3.org/2000/svg">
<g clip-path="url(#clip0_358_347)">
<path d="M86.7375 41.6501C86.7375 46.9734 82.5732 50.896 77.4625 50.896C72.3519 50.896 68.1875 46.9734 68.1875 41.6501C68.1875 36.2894 72.3519 32.4043 77.4625 32.4043C82.5732 32.4043 86.7375 36.2894 86.7375 41.6501ZM82.6774 41.6501C82.6774 38.3236 80.2638 36.0476 77.4625 36.0476C74.6613 36.0476 72.2477 38.3236 72.2477 41.6501C72.2477 44.9433 74.6613 47.2527 77.4625 47.2527C80.2638 47.2527 82.6774 44.9391 82.6774 41.6501Z" fill="#EA4335"/>
<path d="M106.747 41.6501C106.747 46.9734 102.583 50.896 97.4723 50.896C92.3616 50.896 88.1973 46.9734 88.1973 41.6501C88.1973 36.2936 92.3616 32.4043 97.4723 32.4043C102.583 32.4043 106.747 36.2894 106.747 41.6501ZM102.687 41.6501C102.687 38.3236 100.274 36.0476 97.4723 36.0476C94.671 36.0476 92.2574 38.3236 92.2574 41.6501C92.2574 44.9433 94.671 47.2527 97.4723 47.2527C100.274 47.2527 102.687 44.9391 102.687 41.6501Z" fill="#FBBC05"/>
<path d="M125.922 32.9629V49.562C125.922 56.3901 121.895 59.1789 117.135 59.1789C112.653 59.1789 109.956 56.1817 108.939 53.7306L112.474 52.2591C113.104 53.7639 114.646 55.5397 117.13 55.5397C120.178 55.5397 122.066 53.6597 122.066 50.1206V48.7909H121.924C121.016 49.9122 119.265 50.8918 117.055 50.8918C112.433 50.8918 108.197 46.865 108.197 41.6835C108.197 36.4645 112.433 32.4043 117.055 32.4043C119.261 32.4043 121.011 33.3839 121.924 34.4719H122.066V32.9671H125.922V32.9629ZM122.354 41.6835C122.354 38.4278 120.182 36.0476 117.418 36.0476C114.617 36.0476 112.27 38.4278 112.27 41.6835C112.27 44.9058 114.617 47.2527 117.418 47.2527C120.182 47.2527 122.354 44.9058 122.354 41.6835Z" fill="#4285F4"/>
<path d="M132.279 23.2334V50.329H128.319V23.2334H132.279Z" fill="#34A853"/>
<path d="M147.711 44.6934L150.863 46.7944C149.846 48.2992 147.395 50.8921 143.159 50.8921C137.907 50.8921 133.984 46.8319 133.984 41.6462C133.984 36.1479 137.94 32.4004 142.705 32.4004C147.503 32.4004 149.85 36.2188 150.617 38.2822L151.038 39.3327L138.678 44.4517C139.624 46.3067 141.096 47.2529 143.159 47.2529C145.227 47.2529 146.661 46.2358 147.711 44.6934ZM138.011 41.3669L146.273 37.9362C145.819 36.7815 144.452 35.977 142.843 35.977C140.779 35.977 137.907 37.7987 138.011 41.3669Z" fill="#EA4335"/>
<path d="M53.1975 39.2447V35.3221H66.4159C66.5451 36.0058 66.6118 36.8145 66.6118 37.6899C66.6118 40.6329 65.8073 44.272 63.2145 46.8648C60.6925 49.491 57.4702 50.8917 53.2016 50.8917C45.2897 50.8917 38.6367 44.4471 38.6367 36.5352C38.6367 28.6233 45.2897 22.1787 53.2016 22.1787C57.5786 22.1787 60.6967 23.8962 63.0394 26.1347L60.2715 28.9026C58.5916 27.3269 56.3155 26.1013 53.1975 26.1013C47.4198 26.1013 42.9011 30.7576 42.9011 36.5352C42.9011 42.3128 47.4198 46.9691 53.1975 46.9691C56.945 46.9691 59.0793 45.4642 60.4466 44.0969C61.5554 42.9881 62.2849 41.4041 62.5725 39.2406L53.1975 39.2447Z" fill="#4285F4"/>
</g>
<defs>
<clipPath id="clip0_358_347">
<rect width="113" height="48" fill="white" transform="translate(38.5 16)"/>
</clipPath>
</defs>
</svg>
