<svg width="191" height="80" viewBox="0 0 191 80" fill="none" xmlns="http://www.w3.org/2000/svg">
<g clip-path="url(#clip0_676_2859)">
<path d="M87.8956 41.5125C87.8956 46.3921 84.0629 49.9878 79.3593 49.9878C74.6557 49.9878 70.823 46.3921 70.823 41.5125C70.823 36.5984 74.6557 33.0371 79.3593 33.0371C84.0629 33.0371 87.8956 36.5984 87.8956 41.5125ZM84.1588 41.5125C84.1588 38.4632 81.9375 36.3768 79.3593 36.3768C76.7811 36.3768 74.5598 38.4632 74.5598 41.5125C74.5598 44.5312 76.7811 46.6481 79.3593 46.6481C81.9375 46.6481 84.1588 44.5274 84.1588 41.5125Z" fill="black" fill-opacity="0.15"/>
<path d="M106.311 41.5125C106.311 46.3921 102.478 49.9878 97.7748 49.9878C93.0712 49.9878 89.2385 46.3921 89.2385 41.5125C89.2385 36.6023 93.0712 33.0371 97.7748 33.0371C102.478 33.0371 106.311 36.5984 106.311 41.5125ZM102.574 41.5125C102.574 38.4632 100.353 36.3768 97.7748 36.3768C95.1967 36.3768 92.9753 38.4632 92.9753 41.5125C92.9753 44.5312 95.1967 46.6481 97.7748 46.6481C100.353 46.6481 102.574 44.5274 102.574 41.5125Z" fill="black" fill-opacity="0.15"/>
<path d="M123.959 33.5491V48.765C123.959 55.0241 120.253 57.5805 115.872 57.5805C111.748 57.5805 109.266 54.8331 108.329 52.5862L111.583 51.2373C112.162 52.6168 113.582 54.2446 115.868 54.2446C118.673 54.2446 120.411 52.5212 120.411 49.2771V48.0581H120.28C119.444 49.086 117.832 49.984 115.799 49.984C111.544 49.984 107.646 46.2927 107.646 41.543C107.646 36.7589 111.544 33.0371 115.799 33.0371C117.829 33.0371 119.44 33.9351 120.28 34.9324H120.411V33.553H123.959V33.5491ZM120.675 41.543C120.675 38.5587 118.677 36.3768 116.133 36.3768C113.555 36.3768 111.395 38.5587 111.395 41.543C111.395 44.4968 113.555 46.6481 116.133 46.6481C118.677 46.6481 120.675 44.4968 120.675 41.543Z" fill="black" fill-opacity="0.15"/>
<path d="M129.81 24.6309V49.4685H126.165V24.6309H129.81Z" fill="black" fill-opacity="0.15"/>
<path d="M144.013 44.3023L146.914 46.2282C145.977 47.6076 143.722 49.9844 139.824 49.9844C134.99 49.9844 131.379 46.2626 131.379 41.509C131.379 36.4689 135.02 33.0337 139.405 33.0337C143.821 33.0337 145.981 36.5339 146.687 38.4254L147.075 39.3883L135.699 44.0807C136.57 45.7811 137.925 46.6485 139.824 46.6485C141.727 46.6485 143.046 45.7161 144.013 44.3023ZM135.085 41.253L142.69 38.1082C142.271 37.0497 141.013 36.3123 139.532 36.3123C137.633 36.3123 134.99 37.9821 135.085 41.253Z" fill="black" fill-opacity="0.15"/>
<path d="M57.0268 39.3079V35.7122H69.1924C69.3114 36.3389 69.3727 37.0802 69.3727 37.8826C69.3727 40.5804 68.6323 43.9163 66.246 46.293C63.9249 48.7004 60.9592 49.9843 57.0306 49.9843C49.7488 49.9843 43.6257 44.0767 43.6257 36.8242C43.6257 29.5716 49.7488 23.6641 57.0306 23.6641C61.059 23.6641 63.9287 25.2384 66.0848 27.2904L63.5374 29.8276C61.9912 28.3832 59.8965 27.2598 57.0268 27.2598C51.7093 27.2598 47.5505 31.528 47.5505 36.8242C47.5505 42.1203 51.7093 46.3886 57.0268 46.3886C60.4758 46.3886 62.4401 45.0091 63.6985 43.7558C64.719 42.7393 65.3904 41.2873 65.6551 39.3041L57.0268 39.3079Z" fill="black" fill-opacity="0.15"/>
</g>
<defs>
<clipPath id="clip0_676_2859">
<rect width="104" height="44" fill="white" transform="translate(43.5 18)"/>
</clipPath>
</defs>
</svg>
