<svg width="191" height="80" viewBox="0 0 191 80" fill="none" xmlns="http://www.w3.org/2000/svg">
<g clip-path="url(#clip0_676_2917)">
<path fill-rule="evenodd" clip-rule="evenodd" d="M33.6984 50.6175C30.7671 47.7291 30.7672 43.046 33.6985 40.1575L41.6602 32.3124C44.1382 29.8706 47.9177 29.493 50.7983 31.1795C51.6894 31.7011 51.6816 32.8978 50.9487 33.6199C50.2159 34.342 49.0196 34.2798 48.0249 33.9932C46.7511 33.6261 45.3186 33.9375 44.3141 34.9274L36.3524 42.7725C34.8867 44.2168 34.8867 46.5583 36.3523 48.0026C37.818 49.4468 40.1944 49.4468 41.6601 48.0026L57.5832 32.3125C60.5146 29.424 65.2672 29.424 68.1986 32.3124L76.1603 40.1575C79.0917 43.0459 79.0917 47.7291 76.1603 50.6175C73.229 53.506 68.4763 53.506 65.5449 50.6175L62.8911 48.0026L59.5737 51.2713C57.0957 53.7131 53.3162 54.0907 50.4355 52.4042C49.5445 51.8826 49.5523 50.6859 50.2852 49.9638C51.018 49.2417 52.2143 49.3038 53.209 49.5905C54.4828 49.9576 55.9153 49.6462 56.9198 48.6563L60.332 45.2941C61.7453 43.9015 64.0368 43.9015 65.4502 45.2941L68.1988 48.0026C69.6645 49.4467 72.0408 49.4467 73.5064 48.0026C74.9721 46.5583 74.9721 44.2168 73.5064 42.7725L65.5447 34.9275C64.079 33.4832 61.7028 33.4833 60.2371 34.9275L44.314 50.6176C41.3825 53.5061 36.6298 53.5061 33.6984 50.6175Z" fill="black" fill-opacity="0.15"/>
<path d="M108.34 34.3381C106.496 34.3381 105.099 34.9945 104.176 36.3073C103.366 34.9945 102.08 34.3381 100.376 34.3381C98.615 34.3381 97.3294 34.9398 96.4909 36.1706V34.721H92.8858V48.396H96.4909V40.7106C96.4909 38.7141 97.525 37.6201 99.118 37.6201C100.599 37.6201 101.466 38.5774 101.466 40.2184V48.396H105.071V40.7106C105.071 38.7141 106.021 37.6201 107.67 37.6201C109.151 37.6201 110.017 38.5774 110.017 40.2184V48.396H113.622V39.9722C113.622 36.5535 111.554 34.3381 108.34 34.3381Z" fill="black" fill-opacity="0.15"/>
<path d="M127.025 36.3347C125.935 34.9945 124.426 34.3381 122.469 34.3381C120.597 34.3381 119.004 35.0492 117.663 36.4441C116.349 37.8389 115.678 39.5346 115.678 41.5585C115.678 43.5824 116.349 45.3055 117.663 46.7004C119.004 48.0952 120.597 48.779 122.469 48.779C124.426 48.779 125.935 48.1225 127.025 46.7824V48.396H130.63V34.721H127.025V36.3347ZM120.373 44.3482C119.647 43.6098 119.283 42.6798 119.283 41.5585C119.283 40.4371 119.647 39.5073 120.373 38.7962C121.1 38.0577 122.022 37.7022 123.14 37.7022C124.258 37.7022 125.18 38.0577 125.907 38.7962C126.661 39.5073 127.025 40.4371 127.025 41.5585C127.025 42.6798 126.661 43.6098 125.907 44.3482C125.18 45.0594 124.258 45.4149 123.14 45.4149C122.022 45.4149 121.1 45.0594 120.373 44.3482Z" fill="black" fill-opacity="0.15"/>
<path d="M143.932 37.0731V34.721H133.452V38.0303H139.069L133.172 46.0439V48.396H144.212V45.0866H138.007L143.932 37.0731Z" fill="black" fill-opacity="0.15"/>
<path d="M159.285 43.0081C159.369 42.4885 159.425 42.0235 159.425 41.5585C159.425 39.5073 158.755 37.8116 157.413 36.4167C156.1 35.0219 154.395 34.3381 152.355 34.3381C150.203 34.3381 148.415 35.0219 147.045 36.4167C145.675 37.7842 144.976 39.5073 144.976 41.5585C144.976 43.6371 145.675 45.3602 147.073 46.7276C148.47 48.0952 150.315 48.779 152.634 48.779C155.317 48.779 157.358 47.7943 158.727 45.8525L155.821 44.2115C155.121 45.114 154.06 45.579 152.69 45.579C150.539 45.579 149.225 44.7312 148.75 43.0081H159.285ZM148.694 40.273C149.113 38.5227 150.426 37.5107 152.355 37.5107C154.003 37.5107 155.401 38.4133 155.821 40.273H148.694Z" fill="black" fill-opacity="0.15"/>
</g>
<defs>
<clipPath id="clip0_676_2917">
<rect width="128" height="43" fill="white" transform="translate(31.5 18.5)"/>
</clipPath>
</defs>
</svg>
