<svg width="190" height="80" viewBox="0 0 190 80" fill="none" xmlns="http://www.w3.org/2000/svg">
<path d="M39.7103 29.9134C45.0618 29.9134 49.4207 34.2687 49.4207 39.6591C49.4207 45.0494 45.0618 49.4047 39.7103 49.4047C34.3589 49.4047 30 45.0925 30 39.6591C30 34.2256 34.3589 29.9134 39.7103 29.9134ZM115.839 29.6978V46.7743C115.839 48.0679 116.357 48.4129 117.35 48.6717L117.393 48.8873H111.912V46.7743C111.265 48.3267 109.927 49.2754 108.201 49.2754C105.266 49.2754 103.324 46.6018 103.324 42.6345C103.324 40.3921 103.971 38.4947 105.18 37.0717C106.345 35.6918 107.942 34.9587 109.711 34.9587C110.574 34.9587 111.308 35.1312 111.912 35.5193V33.1907C111.912 32.6732 111.783 32.3282 111.524 32.0695C111.178 31.7676 110.617 31.6383 109.754 31.7245H109.711V31.5089L115.839 29.6978ZM136.641 35.0018V46.7743C136.641 48.0679 137.159 48.4129 138.152 48.6717V48.8873H132.671V46.7311C132.023 48.2836 130.599 49.2754 129.002 49.2754C127.103 49.2754 125.895 48.4129 125.42 46.7311L125.334 46.2999C125.248 45.8687 125.205 45.4375 125.205 45.0062V38.7104C125.205 37.3304 124.902 36.8992 123.694 36.813H123.651V36.5974L129.132 35.0018V44.92C129.132 46.3862 129.779 47.2055 130.988 47.2055C131.721 47.2055 132.325 46.8174 132.671 46.1705V38.7104C132.671 37.2873 132.412 36.8561 131.419 36.7698H131.376V36.5542L136.641 35.0018ZM97.0661 34.9587C98.5335 34.9587 99.9577 35.4762 100.907 36.3817C101.986 37.4167 102.547 38.926 102.59 40.9096V40.9527H94.3472C94.1746 43.7988 95.944 46.1274 98.2745 46.2137C99.9576 46.343 101.425 45.3081 102.245 43.6263L102.461 43.7126C101.986 46.8605 100.13 49.2322 96.8935 49.2322C93.2251 49.2322 91.1536 46.1706 91.0673 42.3326V41.3408C91.2399 39.6591 91.7578 38.1498 92.6641 37.0286C93.2251 36.3386 93.8725 35.8211 94.6493 35.4762C95.2967 35.1312 96.2461 34.9587 97.023 34.9587H97.0661ZM154.163 35.0018C156.493 35.0018 157.918 36.468 157.918 38.9691V46.9899C157.918 47.9386 158.349 48.4129 159.428 48.6717H159.471V48.8873H153.947V39.0985C153.947 37.5461 153.386 36.7698 152.221 36.7698C151.271 36.7698 150.797 37.4598 150.538 38.0635C150.581 38.3654 150.624 38.6672 150.624 38.9691V47.1192C150.624 48.1111 150.926 48.456 151.789 48.6717H151.832V48.8873H146.697V39.0985C146.697 37.5461 146.093 36.7698 144.971 36.7698C144.064 36.7698 143.589 37.4167 143.374 37.9342V47.1624C143.374 48.1542 143.676 48.4992 144.539 48.7148H144.582V48.9304H139.446V38.6672C139.446 37.2873 139.101 36.8561 137.936 36.7698H137.893V36.5542L143.374 35.0449V37.3304C143.935 35.8643 145.229 35.0018 146.869 35.0018C148.725 35.0018 150.02 35.9074 150.451 37.546C151.012 35.9936 152.437 35.0018 154.163 35.0018ZM75.4444 30.5602L80.5801 42.5914L85.7158 30.5602H91.2399L91.1968 30.7758L91.134 30.7898C90.1823 31.0065 89.6863 31.3621 89.6863 32.5438V47.2055C89.7726 48.1542 90.2905 48.456 91.1968 48.6717H91.2399V48.8873H84.2053V48.6717H84.2485C85.1548 48.456 85.6726 48.1542 85.759 47.2055V32.9319L78.9833 48.8441H78.5949L71.9919 33.3632V46.8605C71.9919 48.0679 72.5097 48.4129 73.5024 48.6285H73.5455V48.8441H69.4887V48.6285H69.5319C70.5245 48.4129 71.0424 48.0679 71.0424 46.8605V32.5438C71.0424 31.3364 70.5245 30.9914 69.5319 30.7758H69.4887V30.5602H75.4444ZM122.529 35.0018V46.7743L122.529 46.8539C122.551 48.0823 123.067 48.4183 124.039 48.6717L124.082 48.8873H118.602V38.7104C118.602 37.3304 118.299 36.8992 117.091 36.813H117.048V36.5974L122.529 35.0018ZM55.2469 30.474C57.8795 30.474 60.0805 34.6137 60.0805 39.6591C60.0805 44.7475 57.9226 48.8441 55.2469 48.8441C52.5712 48.8441 50.4133 44.7475 50.4133 39.6591C50.4133 34.5706 52.5712 30.474 55.2469 30.474ZM62.6699 31.4227C63.6625 31.4227 64.3962 35.1312 64.3962 39.6591C64.3962 44.1869 63.6194 47.8955 62.6699 47.8955C61.73 47.8955 60.9592 44.2607 60.9439 39.7946L60.9436 39.6591C60.9436 35.1312 61.7205 31.4227 62.6699 31.4227ZM110.359 35.7349C108.632 35.7349 107.553 38.0204 107.553 41.5564C107.553 43.2382 107.855 44.7044 108.373 45.6962C108.848 46.6449 109.539 47.1624 110.315 47.1624C111.092 47.1624 111.653 46.8174 111.912 46.1705V36.6836C111.61 36.0799 111.049 35.7349 110.359 35.7349ZM97.023 35.778C95.4693 35.778 94.563 37.6323 94.4335 40.2196V40.2628H99.1377C99.224 38.236 98.8787 36.8992 98.2314 36.2524C97.8861 35.9505 97.4977 35.778 97.023 35.778ZM120.414 29.8271C121.666 29.8271 122.615 30.7758 122.615 32.0264C122.615 33.2769 121.666 34.2256 120.414 34.2256C119.163 34.2256 118.213 33.2769 118.213 32.0264C118.213 30.7758 119.163 29.8271 120.414 29.8271Z" fill="black" fill-opacity="0.15"/>
</svg>
