<svg width="190" height="80" viewBox="0 0 190 80" fill="none" xmlns="http://www.w3.org/2000/svg">
<g clip-path="url(#clip0_358_343)">
<path d="M166.376 38.1048V35.5833H163.256V31.6633L163.151 31.6958L160.22 32.5956L160.162 32.6133V35.5834H155.536V33.9288C155.536 33.1583 155.708 32.5687 156.046 32.1755C156.382 31.7871 156.863 31.5896 157.476 31.5896C157.916 31.5896 158.373 31.6937 158.832 31.8991L158.947 31.9507V29.2953L158.893 29.2753C158.464 29.1208 157.882 29.043 157.16 29.043C156.25 29.043 155.423 29.2417 154.701 29.6356C153.98 30.0301 153.412 30.5932 153.015 31.3091C152.618 32.0242 152.417 32.8502 152.417 33.7642V35.5833H150.245V38.1048H152.417V48.7273H155.536V38.1048H160.162V44.8552C160.162 47.6353 161.469 49.0442 164.046 49.0442C164.47 49.0442 164.915 48.9944 165.37 48.8969C165.834 48.7968 166.149 48.6968 166.335 48.59L166.376 48.5656V46.0208L166.249 46.105C166.08 46.2181 165.869 46.3107 165.622 46.3794C165.374 46.4495 165.166 46.4846 165.006 46.4846C164.402 46.4846 163.955 46.3213 163.678 45.9991C163.398 45.674 163.256 45.1055 163.256 44.3103V38.1048H166.376ZM143.279 46.485C142.147 46.485 141.255 46.1083 140.626 45.3663C139.993 44.6205 139.672 43.5573 139.672 42.2064C139.672 40.8126 139.993 39.7218 140.626 38.9629C141.255 38.2089 142.139 37.8263 143.254 37.8263C144.335 37.8263 145.196 38.1917 145.813 38.9131C146.433 39.6382 146.747 40.7203 146.747 42.1302C146.747 43.5576 146.451 44.6539 145.868 45.3874C145.289 46.1152 144.418 46.485 143.279 46.485ZM143.418 35.2666C141.258 35.2666 139.543 35.9017 138.319 37.1543C137.097 38.407 136.477 40.1405 136.477 42.3072C136.477 44.3652 137.082 46.0205 138.276 47.2265C139.469 48.4328 141.093 49.0439 143.102 49.0439C145.196 49.0439 146.877 48.4 148.1 47.1301C149.322 45.8616 149.941 44.1444 149.941 42.0283C149.941 39.9382 149.36 38.2705 148.214 37.0726C147.066 35.8741 145.452 35.2666 143.418 35.2666ZM131.448 35.2666C129.979 35.2666 128.764 35.6437 127.836 36.3873C126.902 37.1353 126.428 38.1163 126.428 39.3034C126.428 39.9204 126.53 40.4685 126.731 40.9334C126.934 41.3999 127.247 41.8106 127.663 42.1552C128.076 42.4971 128.714 42.8552 129.559 43.2196C130.27 43.5129 130.799 43.761 131.136 43.9566C131.465 44.1483 131.698 44.3409 131.83 44.5286C131.958 44.7122 132.023 44.9635 132.023 45.2736C132.023 46.1567 131.364 46.5864 130.008 46.5864C129.505 46.5864 128.932 46.481 128.303 46.2732C127.679 46.0686 127.09 45.7689 126.557 45.3847L126.427 45.2915V48.305L126.475 48.3271C126.916 48.5316 127.473 48.704 128.129 48.8396C128.783 48.9754 129.378 49.0445 129.895 49.0445C131.489 49.0445 132.773 48.6656 133.709 47.9176C134.652 47.1645 135.13 46.1603 135.13 44.9322C135.13 44.0462 134.873 43.2864 134.366 42.6736C133.862 42.0659 132.988 41.5079 131.77 41.0147C130.798 40.6236 130.176 40.2989 129.92 40.0497C129.672 39.8089 129.547 39.4684 129.547 39.0372C129.547 38.655 129.702 38.3487 130.02 38.1007C130.341 37.8515 130.787 37.7247 131.347 37.7247C131.867 37.7247 132.399 37.8071 132.928 37.9686C133.456 38.13 133.92 38.3462 134.307 38.6107L134.435 38.6981V35.8396L134.386 35.8185C134.029 35.6647 133.557 35.5331 132.985 35.4263C132.415 35.3202 131.898 35.2666 131.448 35.2666ZM118.297 46.485C117.165 46.485 116.272 46.1083 115.643 45.3663C115.01 44.6205 114.69 43.5576 114.69 42.2064C114.69 40.8126 115.011 39.7218 115.644 38.9629C116.273 38.2089 117.157 37.8263 118.272 37.8263C119.353 37.8263 120.214 38.1917 120.83 38.9131C121.45 39.6382 121.765 40.7203 121.765 42.1302C121.765 43.5576 121.469 44.6539 120.886 45.3874C120.306 46.1152 119.436 46.485 118.297 46.485ZM118.436 35.2666C116.275 35.2666 114.56 35.9017 113.337 37.1543C112.115 38.407 111.495 40.1405 111.495 42.3072C111.495 44.366 112.1 46.0205 113.293 47.2265C114.487 48.4328 116.111 49.0439 118.12 49.0439C120.213 49.0439 121.895 48.4 123.117 47.1301C124.34 45.8616 124.959 44.1444 124.959 42.0283C124.959 39.9382 124.378 38.2705 123.231 37.0726C122.083 35.8741 120.47 35.2666 118.436 35.2666ZM106.76 37.8595V35.5833H103.679V48.727H106.76V42.0035C106.76 40.8602 107.018 39.921 107.528 39.2115C108.031 38.5106 108.702 38.1554 109.521 38.1554C109.798 38.1554 110.11 38.2013 110.447 38.2921C110.781 38.3824 111.023 38.4805 111.166 38.5837L111.295 38.6778V35.5608L111.245 35.5393C110.958 35.417 110.552 35.3553 110.039 35.3553C109.264 35.3553 108.572 35.6049 107.978 36.0964C107.457 36.5285 107.081 37.1209 106.793 37.8595H106.76ZM98.1615 35.2666C96.748 35.2666 95.4873 35.5708 94.4149 36.1704C93.3403 36.7713 92.5092 37.6293 91.9438 38.7203C91.3809 39.8086 91.095 41.0799 91.095 42.4976C91.095 43.7395 91.3722 44.8792 91.9199 45.8836C92.4679 46.8897 93.2436 47.6768 94.2254 48.2227C95.2059 48.7679 96.3391 49.0443 97.5938 49.0443C99.058 49.0443 100.308 48.7506 101.31 48.1712L101.351 48.1479V45.3154L101.221 45.4102C100.767 45.7421 100.26 46.007 99.7141 46.1979C99.1695 46.3886 98.6731 46.485 98.2377 46.485C97.0288 46.485 96.0582 46.1054 95.3538 45.357C94.6478 44.6076 94.2898 43.5553 94.2898 42.2312C94.2898 40.8988 94.6631 39.8194 95.3988 39.0231C96.1323 38.229 97.1046 37.8263 98.2886 37.8263C99.3012 37.8263 100.288 38.1704 101.222 38.85L101.351 38.9441V35.9596L101.309 35.936C100.958 35.7386 100.479 35.5756 99.8838 35.4521C99.2914 35.3288 98.712 35.2666 98.1615 35.2666ZM88.9731 35.5834H85.8921V48.727H88.9731V35.5834ZM87.4641 29.9842C86.957 29.9842 86.5147 30.1574 86.1514 30.5007C85.7865 30.8449 85.6014 31.2783 85.6014 31.7898C85.6014 32.2933 85.7843 32.7188 86.1457 33.0539C86.5048 33.388 86.9484 33.5574 87.4642 33.5574C87.9799 33.5574 88.4252 33.388 88.7886 33.0544C89.1543 32.7188 89.3398 32.2934 89.3398 31.7898C89.3398 31.2962 89.1593 30.8672 88.8036 30.5145C88.4483 30.1625 87.9974 29.9842 87.4641 29.9842ZM79.7768 34.6137V48.727H82.9211V30.3865H78.5692L73.0377 44.0093L67.6697 30.3865H63.1406V48.7269H66.0955V34.6123H66.1969L71.8654 48.727H74.0953L79.6753 34.6137H79.7768Z" fill="#706D6E"/>
<path d="M37.994 38.8025H23.5V24.2578H37.994V38.8025Z" fill="#F1511B"/>
<path d="M53.9967 38.8025H39.5029V24.2578H53.9967V38.8025Z" fill="#80CC28"/>
<path d="M37.9936 54.8673H23.5V40.3228H37.9936V54.8673Z" fill="#00ADEF"/>
<path d="M53.9967 54.8673H39.5029V40.3228H53.9967V54.8673Z" fill="#FBBC09"/>
</g>
<defs>
<clipPath id="clip0_358_343">
<rect width="143" height="42" fill="white" transform="translate(23.5 19)"/>
</clipPath>
</defs>
</svg>
