<svg width="190" height="80" viewBox="0 0 190 80" fill="none" xmlns="http://www.w3.org/2000/svg">
<g clip-path="url(#clip0_347_363)">
<path d="M165.377 38.1048V35.5833H162.301V31.6633L162.197 31.6958L159.307 32.5956L159.25 32.6133V35.5834H154.689V33.9288C154.689 33.1583 154.859 32.5687 155.192 32.1755C155.523 31.7871 155.997 31.5896 156.602 31.5896C157.036 31.5896 157.486 31.6937 157.939 31.8991L158.052 31.9507V29.2953L157.999 29.2753C157.577 29.1208 157.002 29.043 156.29 29.043C155.393 29.043 154.577 29.2417 153.866 29.6356C153.155 30.0301 152.595 30.5932 152.203 31.3091C151.812 32.0242 151.614 32.8502 151.614 33.7642V35.5833H149.472V38.1048H151.614V48.7273H154.689V38.1048H159.25V44.8552C159.25 47.6353 160.539 49.0442 163.08 49.0442C163.498 49.0442 163.937 48.9944 164.386 48.8969C164.843 48.7968 165.154 48.6968 165.337 48.59L165.378 48.5656V46.0208L165.252 46.105C165.085 46.2181 164.878 46.3107 164.634 46.3794C164.389 46.4495 164.185 46.4846 164.026 46.4846C163.431 46.4846 162.991 46.3213 162.718 45.9991C162.441 45.674 162.301 45.1055 162.301 44.3103V38.1048H165.377ZM142.604 46.485C141.487 46.485 140.607 46.1083 139.987 45.3663C139.363 44.6205 139.047 43.5573 139.047 42.2064C139.047 40.8126 139.363 39.7218 139.987 38.9629C140.608 38.2089 141.48 37.8263 142.579 37.8263C143.645 37.8263 144.494 38.1917 145.102 38.9131C145.713 39.6382 146.023 40.7203 146.023 42.1302C146.023 43.5576 145.732 44.6539 145.157 45.3874C144.585 46.1152 143.727 46.485 142.604 46.485ZM142.74 35.2666C140.611 35.2666 138.919 35.9017 137.713 37.1543C136.508 38.407 135.897 40.1405 135.897 42.3072C135.897 44.3652 136.493 46.0205 137.67 47.2265C138.847 48.4328 140.448 49.0439 142.429 49.0439C144.493 49.0439 146.151 48.4 147.357 47.1301C148.562 45.8616 149.173 44.1444 149.173 42.0283C149.173 39.9382 148.6 38.2705 147.469 37.0726C146.338 35.8741 144.747 35.2666 142.74 35.2666ZM130.938 35.2666C129.49 35.2666 128.291 35.6437 127.376 36.3873C126.455 37.1353 125.988 38.1163 125.988 39.3034C125.988 39.9204 126.089 40.4685 126.287 40.9334C126.487 41.3999 126.796 41.8106 127.206 42.1552C127.614 42.4971 128.242 42.8552 129.076 43.2196C129.776 43.5129 130.298 43.761 130.63 43.9566C130.955 44.1483 131.185 44.3409 131.315 44.5286C131.441 44.7122 131.505 44.9635 131.505 45.2736C131.505 46.1567 130.855 46.5864 129.518 46.5864C129.022 46.5864 128.457 46.481 127.837 46.2732C127.222 46.0686 126.641 45.7689 126.115 45.3847L125.988 45.2915V48.305L126.035 48.3271C126.47 48.5316 127.018 48.704 127.665 48.8396C128.31 48.9754 128.897 49.0445 129.406 49.0445C130.978 49.0445 132.244 48.6656 133.168 47.9176C134.097 47.1645 134.568 46.1603 134.568 44.9322C134.568 44.0462 134.315 43.2864 133.815 42.6736C133.319 42.0659 132.457 41.5079 131.255 41.0147C130.297 40.6236 129.684 40.2989 129.431 40.0497C129.187 39.8089 129.063 39.4684 129.063 39.0372C129.063 38.655 129.216 38.3487 129.53 38.1007C129.846 37.8515 130.287 37.7247 130.839 37.7247C131.351 37.7247 131.875 37.8071 132.397 37.9686C132.918 38.13 133.375 38.3462 133.757 38.6107L133.883 38.6981V35.8396L133.835 35.8185C133.482 35.6647 133.018 35.5331 132.453 35.4263C131.891 35.3202 131.382 35.2666 130.938 35.2666ZM117.971 46.485C116.855 46.485 115.974 46.1083 115.354 45.3663C114.73 44.6205 114.414 43.5576 114.414 42.2064C114.414 40.8126 114.73 39.7218 115.355 38.9629C115.975 38.2089 116.846 37.8263 117.946 37.8263C119.012 37.8263 119.861 38.1917 120.469 38.9131C121.08 39.6382 121.39 40.7203 121.39 42.1302C121.39 43.5576 121.098 44.6539 120.523 45.3874C119.952 46.1152 119.094 46.485 117.971 46.485ZM118.108 35.2666C115.977 35.2666 114.286 35.9017 113.08 37.1543C111.875 38.407 111.264 40.1405 111.264 42.3072C111.264 44.366 111.861 46.0205 113.037 47.2265C114.214 48.4328 115.815 49.0439 117.796 49.0439C119.86 49.0439 121.518 48.4 122.724 47.1301C123.929 45.8616 124.54 44.1444 124.54 42.0283C124.54 39.9382 123.967 38.2705 122.836 37.0726C121.704 35.8741 120.113 35.2666 118.108 35.2666ZM106.595 37.8595V35.5833H103.557V48.727H106.595V42.0035C106.595 40.8602 106.85 39.921 107.353 39.2115C107.849 38.5106 108.51 38.1554 109.317 38.1554C109.591 38.1554 109.898 38.2013 110.231 38.2921C110.56 38.3824 110.799 38.4805 110.939 38.5837L111.067 38.6778V35.5608L111.018 35.5393C110.735 35.417 110.335 35.3553 109.828 35.3553C109.065 35.3553 108.382 35.6049 107.796 36.0964C107.283 36.5285 106.912 37.1209 106.628 37.8595H106.595ZM98.117 35.2666C96.7233 35.2666 95.4802 35.5708 94.4228 36.1704C93.3632 36.7713 92.5438 37.6293 91.9863 38.7203C91.4312 39.8086 91.1494 41.0799 91.1494 42.4976C91.1494 43.7395 91.4226 44.8792 91.9627 45.8836C92.503 46.8897 93.2678 47.6768 94.236 48.2227C95.2027 48.7679 96.3201 49.0443 97.5572 49.0443C99.001 49.0443 100.234 48.7506 101.222 48.1712L101.262 48.1479V45.3154L101.134 45.4102C100.686 45.7421 100.186 46.007 99.6479 46.1979C99.1109 46.3886 98.6214 46.485 98.1921 46.485C97.0001 46.485 96.0432 46.1054 95.3485 45.357C94.6524 44.6076 94.2995 43.5553 94.2995 42.2312C94.2995 40.8988 94.6676 39.8194 95.393 39.0231C96.1162 38.229 97.0749 37.8263 98.2423 37.8263C99.2408 37.8263 100.214 38.1704 101.134 38.85L101.262 38.9441V35.9596L101.221 35.936C100.874 35.7386 100.402 35.5756 99.8152 35.4521C99.2311 35.3288 98.6598 35.2666 98.117 35.2666ZM89.0571 35.5834H86.0192V48.727H89.0571V35.5834ZM87.5692 29.9842C87.0692 29.9842 86.6331 30.1574 86.2748 30.5007C85.9151 30.8449 85.7326 31.2783 85.7326 31.7898C85.7326 32.2933 85.9129 32.7188 86.2693 33.0539C86.6233 33.388 87.0608 33.5574 87.5694 33.5574C88.0778 33.5574 88.5169 33.388 88.8752 33.0544C89.2358 32.7188 89.4187 32.2934 89.4187 31.7898C89.4187 31.2962 89.2407 30.8672 88.89 30.5145C88.5397 30.1625 88.0951 29.9842 87.5692 29.9842ZM79.9894 34.6137V48.727H83.0897V30.3865H78.7987L73.3446 44.0093L68.0517 30.3865H63.5859V48.7269H66.4994V34.6123H66.5995L72.1887 48.727H74.3874L79.8894 34.6137H79.9894Z" fill="black" fill-opacity="0.15"/>
<path d="M38.7913 38.8025H24.5V24.2578H38.7913V38.8025Z" fill="black" fill-opacity="0.15"/>
<path d="M54.5703 38.8025H40.2793V24.2578H54.5703V38.8025Z" fill="black" fill-opacity="0.15"/>
<path d="M38.7909 54.8673H24.5V40.3228H38.7909V54.8673Z" fill="black" fill-opacity="0.15"/>
<path d="M54.5703 54.8673H40.2793V40.3228H54.5703V54.8673Z" fill="black" fill-opacity="0.15"/>
</g>
<defs>
<clipPath id="clip0_347_363">
<rect width="141" height="42" fill="white" transform="translate(24.5 19)"/>
</clipPath>
</defs>
</svg>
