<svg width="191" height="80" viewBox="0 0 191 80" fill="none" xmlns="http://www.w3.org/2000/svg">
<g clip-path="url(#clip0_676_2851)">
<path d="M162.384 38.1947V35.7933H159.46V32.06L159.361 32.091L156.615 32.948L156.561 32.9647V35.7934H152.226V34.2176C152.226 33.4838 152.387 32.9223 152.704 32.5479C153.019 32.1779 153.469 31.9898 154.044 31.9898C154.457 31.9898 154.884 32.089 155.314 32.2846L155.422 32.3337V29.8047L155.372 29.7857C154.97 29.6386 154.424 29.5645 153.748 29.5645C152.895 29.5645 152.12 29.7537 151.444 30.1289C150.768 30.5045 150.236 31.0408 149.863 31.7227C149.492 32.4037 149.304 33.1903 149.304 34.0608V35.7933H147.268V38.1947H149.304V48.3114H152.226V38.1947H156.561V44.6237C156.561 47.2715 157.785 48.6132 160.201 48.6132C160.597 48.6132 161.015 48.5658 161.442 48.473C161.876 48.3776 162.171 48.2824 162.345 48.1806L162.384 48.1574V45.7338L162.265 45.814C162.106 45.9218 161.909 46.0099 161.677 46.0754C161.445 46.1421 161.25 46.1755 161.1 46.1755C160.534 46.1755 160.116 46.02 159.856 45.7132C159.593 45.4036 159.46 44.8621 159.46 44.1047V38.1947H162.384ZM140.741 46.1759C139.68 46.1759 138.843 45.8171 138.254 45.1105C137.661 44.4002 137.361 43.3876 137.361 42.101C137.361 40.7737 137.661 39.7348 138.254 39.012C138.844 38.2939 139.672 37.9295 140.717 37.9295C141.73 37.9295 142.537 38.2775 143.115 38.9645C143.696 39.6551 143.99 40.6857 143.99 42.0285C143.99 43.3879 143.713 44.432 143.167 45.1305C142.624 45.8237 141.808 46.1759 140.741 46.1759ZM140.871 35.4918C138.847 35.4918 137.239 36.0966 136.093 37.2895C134.948 38.4825 134.367 40.1336 134.367 42.1971C134.367 44.157 134.934 45.7335 136.052 46.8821C137.17 48.031 138.692 48.613 140.575 48.613C142.537 48.613 144.112 47.9997 145.258 46.7903C146.403 45.5822 146.984 43.9467 146.984 41.9314C146.984 39.9408 146.439 38.3526 145.364 37.2117C144.289 36.0703 142.777 35.4918 140.871 35.4918ZM129.654 35.4918C128.278 35.4918 127.139 35.8509 126.269 36.559C125.394 37.2714 124.95 38.2057 124.95 39.3363C124.95 39.9239 125.046 40.4459 125.234 40.8887C125.424 41.3329 125.718 41.7241 126.108 42.0523C126.495 42.3779 127.092 42.719 127.884 43.066C128.55 43.3453 129.046 43.5816 129.362 43.7679C129.67 43.9504 129.889 44.1339 130.012 44.3126C130.132 44.4875 130.193 44.7269 130.193 45.0222C130.193 45.8632 129.576 46.2725 128.305 46.2725C127.834 46.2725 127.296 46.1721 126.707 45.9742C126.122 45.7793 125.571 45.4939 125.071 45.128L124.95 45.0393V47.9092L124.994 47.9303C125.408 48.125 125.929 48.2892 126.544 48.4184C127.157 48.5477 127.714 48.6135 128.198 48.6135C129.692 48.6135 130.895 48.2526 131.773 47.5403C132.657 46.823 133.104 45.8667 133.104 44.697C133.104 43.8532 132.863 43.1296 132.388 42.5461C131.916 41.9672 131.098 41.4358 129.955 40.9661C129.045 40.5936 128.462 40.2844 128.222 40.047C127.99 39.8177 127.872 39.4934 127.872 39.0828C127.872 38.7187 128.018 38.4271 128.316 38.1909C128.617 37.9535 129.035 37.8328 129.56 37.8328C130.047 37.8328 130.545 37.9113 131.041 38.065C131.536 38.2188 131.971 38.4247 132.334 38.6766L132.453 38.7598V36.0374L132.407 36.0173C132.072 35.8709 131.631 35.7455 131.094 35.6438C130.56 35.5427 130.076 35.4918 129.654 35.4918ZM117.33 46.1759C116.27 46.1759 115.433 45.8171 114.844 45.1105C114.251 44.4002 113.951 43.3879 113.951 42.101C113.951 40.7737 114.251 39.7348 114.845 39.012C115.434 38.2939 116.262 37.9295 117.307 37.9295C118.32 37.9295 119.127 38.2775 119.705 38.9645C120.286 39.6551 120.58 40.6857 120.58 42.0285C120.58 43.3879 120.303 44.432 119.756 45.1305C119.214 45.8237 118.398 46.1759 117.33 46.1759ZM117.461 35.4918C115.436 35.4918 113.829 36.0966 112.683 37.2895C111.538 38.4825 110.957 40.1336 110.957 42.1971C110.957 44.1578 111.524 45.7335 112.642 46.8821C113.76 48.031 115.282 48.613 117.165 48.613C119.126 48.613 120.702 47.9997 121.848 46.7903C122.993 45.5822 123.574 43.9467 123.574 41.9314C123.574 39.9408 123.029 38.3526 121.954 37.2117C120.879 36.0703 119.367 35.4918 117.461 35.4918ZM106.52 37.9612V35.7933H103.633V48.3111H106.52V41.9078C106.52 40.819 106.762 39.9245 107.24 39.2488C107.711 38.5812 108.34 38.2429 109.107 38.2429C109.367 38.2429 109.659 38.2867 109.975 38.3732C110.288 38.4592 110.515 38.5526 110.648 38.6508L110.77 38.7405V35.7719L110.723 35.7514C110.454 35.6349 110.074 35.5762 109.592 35.5762C108.867 35.5762 108.217 35.8139 107.661 36.2821C107.173 36.6935 106.82 37.2577 106.551 37.9612H106.52ZM98.4626 35.4918C97.138 35.4918 95.9566 35.7814 94.9517 36.3525C93.9448 36.9248 93.166 37.7419 92.6362 38.7809C92.1086 39.8175 91.8408 41.0282 91.8408 42.3784C91.8408 43.5612 92.1005 44.6466 92.6137 45.6032C93.1273 46.5613 93.8541 47.311 94.7742 47.8309C95.6929 48.3501 96.7548 48.6134 97.9305 48.6134C99.3026 48.6134 100.474 48.3336 101.413 47.7819L101.451 47.7597V45.062L101.33 45.1523C100.904 45.4684 100.429 45.7207 99.9174 45.9025C99.4071 46.0841 98.9419 46.1759 98.5339 46.1759C97.4011 46.1759 96.4916 45.8144 95.8315 45.1016C95.1699 44.3879 94.8345 43.3858 94.8345 42.1247C94.8345 40.8557 95.1843 39.8278 95.8737 39.0693C96.561 38.3131 97.4722 37.9295 98.5816 37.9295C99.5305 37.9295 100.455 38.2572 101.33 38.9044L101.451 38.9941V36.1517L101.412 36.1292C101.083 35.9413 100.634 35.7861 100.076 35.6684C99.5213 35.5509 98.9784 35.4918 98.4626 35.4918ZM89.8524 35.7934H86.9653V48.3111H89.8524V35.7934ZM88.4384 30.4608C87.9632 30.4608 87.5487 30.6258 87.2083 30.9527C86.8663 31.2806 86.6929 31.6934 86.6929 32.1805C86.6929 32.66 86.8643 33.0653 87.2029 33.3844C87.5394 33.7026 87.9552 33.8639 88.4385 33.8639C88.9217 33.8639 89.339 33.7026 89.6795 33.3849C90.0222 33.0653 90.196 32.6601 90.196 32.1805C90.196 31.7104 90.0269 31.3018 89.6936 30.9659C89.3606 30.6307 88.9382 30.4608 88.4384 30.4608ZM81.2349 34.8699V48.3111H84.1813V30.844H80.1033L74.9199 43.8181L69.8898 30.844H65.6458V48.311H68.4146V34.8686H68.5097L73.8214 48.3111H75.911L81.1398 34.8699H81.2349Z" fill="black" fill-opacity="0.15"/>
<path d="M42.0818 38.8594H28.5V25.0073H42.0818V38.8594Z" fill="black" fill-opacity="0.15"/>
<path d="M57.0776 38.8594H43.4961V25.0073H57.0776V38.8594Z" fill="black" fill-opacity="0.15"/>
<path d="M42.0814 54.1591H28.5V40.3071H42.0814V54.1591Z" fill="black" fill-opacity="0.15"/>
<path d="M57.0776 54.1591H43.4961V40.3071H57.0776V54.1591Z" fill="black" fill-opacity="0.15"/>
</g>
<defs>
<clipPath id="clip0_676_2851">
<rect width="134" height="40" fill="white" transform="translate(28.5 20)"/>
</clipPath>
</defs>
</svg>
