<svg width="191" height="80" viewBox="0 0 191 80" fill="none" xmlns="http://www.w3.org/2000/svg">
<g clip-path="url(#clip0_676_2847)">
<path d="M58.526 52.8939C56.9916 53.1627 55.4301 53.2433 53.8149 53.458L48.8881 39.0635V54.0757C47.3537 54.2368 45.9538 54.4517 44.5 54.6665V27.1665H48.5922L54.1917 42.7698V27.1665H58.526V52.8939ZM67.0063 37.2373C68.6756 37.2373 71.2331 37.1567 72.7676 37.1567V41.4535C70.8561 41.4535 68.6217 41.4535 67.0063 41.5341V47.9258C69.5371 47.7647 72.0677 47.5497 74.6251 47.4691V51.6046L62.6988 52.5447V27.1665H74.6251V31.4634H67.0063V37.2373ZM90.6433 31.4635H86.1744V51.2291C84.7206 51.2291 83.2668 51.2291 81.8672 51.2826V31.4635H77.3983V27.1665H90.6435L90.6433 31.4635ZM97.6428 36.942H103.539V41.2388H97.6428V50.9874H93.4159V27.1665H105.45V31.4634H97.6428V36.942ZM112.45 47.2275C114.9 47.2811 117.376 47.4694 119.772 47.6034V51.8467C115.923 51.6048 112.073 51.3634 108.142 51.2826V27.1665H112.45V47.2275ZM123.407 52.1421C124.78 52.2228 126.233 52.3034 127.633 52.4643V27.1665H123.407V52.1421ZM146.505 27.1665L141.04 40.2452L146.505 54.6665C144.89 54.4517 143.275 54.1562 141.659 53.8876L138.564 45.9386L135.414 53.2433C133.852 52.9745 132.345 52.8939 130.784 52.6791L136.329 40.0839L131.322 27.1665H135.952L138.779 34.3906L141.794 27.1665H146.505V27.1665Z" fill="black" fill-opacity="0.15"/>
</g>
<defs>
<clipPath id="clip0_676_2847">
<rect width="102" height="44" fill="white" transform="translate(44.5 18)"/>
</clipPath>
</defs>
</svg>
