<svg width="190" height="80" viewBox="0 0 190 80" fill="none" xmlns="http://www.w3.org/2000/svg">
<g clip-path="url(#clip0_347_359)">
<path d="M54.7636 54.0663C53.0938 54.3595 51.3945 54.4474 49.6368 54.6816L44.2753 38.9786V55.3555C42.6055 55.5313 41.0821 55.7656 39.5 56V26H43.9532L50.0469 43.0217V26H54.7636V54.0663ZM63.9922 36.9863C65.8087 36.9863 68.5919 36.8984 70.2618 36.8984V41.5858C68.1816 41.5858 65.7501 41.5858 63.9922 41.6737V48.6465C66.7462 48.4708 69.5001 48.2362 72.2832 48.1483V52.6597L59.3046 53.6854V26H72.2832V30.6875H63.9922V36.9863ZM89.7148 30.6876H84.8516V52.2501C83.2695 52.2501 81.6875 52.2501 80.1643 52.3085V30.6876H75.301V26H89.715L89.7148 30.6876ZM97.3319 36.6642H103.748V41.3516H97.3319V51.9864H92.732V26H105.828V30.6875H97.3319V36.6642ZM113.445 47.8848C116.111 47.9432 118.806 48.1486 121.414 48.2948V52.9238C117.225 52.66 113.035 52.3966 108.758 52.3085V26H113.445V47.8848ZM125.369 53.2461C126.863 53.3341 128.445 53.422 129.969 53.5975V26H125.369V53.2461ZM150.506 26L144.559 40.2676L150.506 56C148.748 55.7656 146.99 55.4433 145.232 55.1503L141.863 46.4786L138.436 54.4474C136.736 54.1542 135.096 54.0663 133.397 53.8319L139.432 40.0917L133.983 26H139.021L142.098 33.8809L145.379 26H150.506V26Z" fill="black" fill-opacity="0.15"/>
</g>
<defs>
<clipPath id="clip0_347_359">
<rect width="111" height="48" fill="white" transform="translate(39.5 16)"/>
</clipPath>
</defs>
</svg>
