<svg width="191" height="80" viewBox="0 0 191 80" fill="none" xmlns="http://www.w3.org/2000/svg">
<path fill-rule="evenodd" clip-rule="evenodd" d="M127.477 46.824C130.441 46.824 132.852 44.468 132.852 41.5721C132.852 38.6761 130.441 36.3201 127.477 36.3201C124.514 36.3201 122.102 38.6761 122.102 41.5721C122.102 44.468 124.514 46.824 127.477 46.824ZM132.852 28.52H132.997H135.398V49.3299H132.852V47.2521C131.382 48.583 129.487 49.3121 127.477 49.3121C123.11 49.3121 119.556 45.8399 119.556 41.5721C119.556 37.304 123.11 33.832 127.477 33.832C129.487 33.832 131.382 34.5609 132.852 35.892V28.52ZM74.671 46.7323C77.6345 46.7323 80.0456 44.3763 80.0456 41.4804C80.0456 38.5845 77.6345 36.2285 74.671 36.2285C71.7073 36.2285 69.2962 38.5845 69.2962 41.4804C69.2962 44.3763 71.7073 46.7323 74.671 46.7323ZM69.2962 35.8006C70.7658 34.4695 72.6611 33.7404 74.671 33.7404C79.0385 33.7404 82.5918 37.2126 82.5918 41.4804C82.5918 45.7483 79.0385 49.2204 74.671 49.2204C72.6611 49.2204 70.7658 48.4915 69.2962 47.1603V54.5324H66.75V33.7225H69.2962V35.8006ZM87.4502 40.2719C88.0232 37.92 90.1585 36.2312 92.5941 36.2312C94.9979 36.2312 97.0115 37.8839 97.5482 40.2719H87.4502ZM92.5941 33.7225C88.292 33.7225 84.7921 37.2234 84.7921 41.5262C84.7921 45.8292 88.292 49.3299 92.5941 49.3299C95.0033 49.3299 97.2144 48.4277 98.6614 46.8548L99.4132 46.0372L99.5101 45.9317L99.4047 45.8344L97.7702 44.3306L97.6648 44.2334L97.5673 44.3389L96.8156 45.1567C95.8567 46.199 94.2787 46.8214 92.5941 46.8214C90.1585 46.8214 88.0233 45.1326 87.4502 42.7805H100.194V41.5262C100.194 37.1503 96.8555 33.7225 92.5941 33.7225ZM150.453 41.5262C150.453 44.4459 148.043 46.8213 145.079 46.8213C142.115 46.8213 139.704 44.4459 139.704 41.5262C139.704 38.6064 142.115 36.2311 145.079 36.2311C148.043 36.2311 150.453 38.6064 150.453 41.5262ZM145.079 33.7225C140.712 33.7225 137.158 37.2232 137.158 41.5262C137.158 45.8292 140.712 49.3299 145.079 49.3299C149.447 49.3299 153 45.8292 153 41.5262C153 37.2232 149.447 33.7225 145.079 33.7225ZM109.655 33.7225C107.885 33.7225 106.2 34.3943 104.873 35.6213V33.7225H102.394V49.3299H104.873V41.3652C104.873 38.5236 107.018 36.2116 109.655 36.2116C112.292 36.2116 114.437 38.5236 114.437 41.3652V49.3299H116.916V41.3652C116.916 37.151 113.658 33.7225 109.655 33.7225Z" fill="black" fill-opacity="0.15"/>
<path fill-rule="evenodd" clip-rule="evenodd" d="M38 43.384H49.9791V55.0631L61.9583 43.384V31.7051H49.9791L38 43.384Z" fill="black" fill-opacity="0.15"/>
</svg>
