<svg width="191" height="80" viewBox="0 0 191 80" fill="none" xmlns="http://www.w3.org/2000/svg">
<g clip-path="url(#clip0_676_2853)">
<path d="M75.3505 47.5485L76.6609 44.4745C78.0957 45.5409 79.9671 46.1053 81.8389 46.1053C83.2115 46.1053 84.0848 45.5723 84.0848 44.7569C84.0535 42.4983 75.8185 44.2549 75.7559 38.5766C75.7246 35.6907 78.2827 33.4635 81.9016 33.4635C84.0535 33.4635 86.2063 33.997 87.7346 35.2206L86.5101 38.3601C85.1039 37.4527 83.3672 36.82 81.7141 36.82C80.5912 36.82 79.8423 37.353 79.8423 38.0436C79.8736 40.2707 88.1717 39.0471 88.2652 44.4745C88.2652 47.4232 85.7692 49.4937 82.213 49.4937C79.5931 49.4937 77.1911 48.8664 75.3501 47.5485H75.3505ZM127.528 43.3614C127.197 43.9512 126.716 44.4421 126.134 44.7838C125.552 45.1255 124.889 45.3056 124.215 45.3056C122.113 45.3056 120.41 43.5922 120.41 41.4786C120.41 39.365 122.113 37.6516 124.215 37.6516C124.889 37.6516 125.552 37.8317 126.134 38.1734C126.716 38.5151 127.197 39.006 127.528 39.5958L131.171 37.5663C129.806 35.1186 127.204 33.4635 124.215 33.4635C119.813 33.4635 116.245 37.0517 116.245 41.4786C116.245 45.9051 119.813 49.4937 124.215 49.4937C127.204 49.4937 129.806 47.8386 131.171 45.3909L127.528 43.3614ZM90.6291 49.1798H95.1835V26.7915H90.6296L90.6291 49.1798ZM133.471 26.7915V49.1798H138.025V42.4723L143.422 49.1798H149.244L142.381 41.2114L148.744 33.7761H143.173L138.025 39.9578V26.7915H133.471ZM109.215 33.777V35.5968C108.466 34.3418 106.626 33.4635 104.692 33.4635C100.699 33.4635 97.5484 37.0086 97.5484 41.4629C97.5484 45.9172 100.699 49.4937 104.692 49.4937C106.626 49.4937 108.466 48.6154 109.215 47.3604V49.1798H113.769V33.777H109.215ZM109.215 43.3923C108.56 44.4902 107.187 45.3052 105.659 45.3052C103.557 45.3052 101.853 43.5922 101.853 41.4786C101.853 39.365 103.557 37.6516 105.659 37.6516C107.187 37.6516 108.56 38.4984 109.215 39.6273V43.3923Z" fill="black" fill-opacity="0.15"/>
<path d="M51.2988 26.2969C49.8229 26.2969 48.6266 27.5003 48.6266 28.9843C48.6263 29.3368 48.6951 29.686 48.8292 30.0119C48.9633 30.3377 49.16 30.6339 49.4082 30.8834C49.6563 31.133 49.951 31.331 50.2754 31.4663C50.5998 31.6015 50.9476 31.6713 51.2988 31.6717H53.9715V28.9843C53.9721 28.2722 53.6909 27.5891 53.1896 27.0851C52.6884 26.5811 52.0083 26.2976 51.2988 26.2969ZM51.2988 33.4633H44.1725C42.6965 33.4633 41.5002 34.6667 41.5002 36.1511C41.5002 37.6352 42.6965 38.8385 44.1725 38.8385H51.2993C52.7748 38.8385 53.9715 37.6352 53.9715 36.1511C53.9715 34.6667 52.7748 33.4633 51.2988 33.4633Z" fill="black" fill-opacity="0.15"/>
<path d="M68.2242 36.1511C68.2242 34.6667 67.0274 33.4633 65.5515 33.4633C64.0756 33.4633 62.8793 34.6667 62.8793 36.1511V38.8385H65.5515C66.261 38.8378 66.9411 38.5543 67.4423 38.0503C67.9435 37.5464 68.2248 36.8632 68.2242 36.1511ZM61.0978 36.1511V28.9843C61.0984 28.2722 60.8172 27.5891 60.316 27.0851C59.8148 26.5811 59.1346 26.2976 58.4252 26.2969C56.9492 26.2969 55.7529 27.5003 55.7529 28.9843V36.1507C55.7529 37.6356 56.9492 38.839 58.4252 38.839C59.1346 38.8383 59.8148 38.5547 60.316 38.0508C60.8172 37.5468 61.0984 36.8637 61.0978 36.1516" fill="black" fill-opacity="0.15"/>
<path d="M58.4254 53.172C59.1349 53.1713 59.815 52.8878 60.3162 52.3838C60.8174 51.8798 61.0987 51.1967 61.0981 50.4846C61.0987 49.7726 60.8174 49.0894 60.3162 48.5854C59.815 48.0815 59.1349 47.7979 58.4254 47.7972H55.7532V50.4846C55.7532 51.9687 56.9495 53.172 58.4254 53.172ZM58.4254 46.0056H65.5522C67.0277 46.0056 68.2244 44.8022 68.2244 43.3178C68.225 42.6057 67.9438 41.9226 67.4426 41.4186C66.9414 40.9146 66.2612 40.6311 65.5518 40.6304H58.4254C56.9495 40.6304 55.7532 41.8338 55.7532 43.3178C55.7528 43.6703 55.8217 44.0195 55.9558 44.3454C56.0899 44.6712 56.2866 44.9674 56.5347 45.2169C56.7829 45.4665 57.0776 45.6645 57.402 45.7998C57.7264 45.935 58.0741 46.0048 58.4254 46.0052" fill="black" fill-opacity="0.15"/>
<path d="M41.5 43.3178C41.4996 43.6703 41.5685 44.0195 41.7026 44.3454C41.8367 44.6712 42.0334 44.9674 42.2816 45.2169C42.5297 45.4665 42.8244 45.6645 43.1488 45.7998C43.4732 45.935 43.8209 46.0048 44.1722 46.0052C44.8817 46.0045 45.5618 45.7209 46.063 45.217C46.5642 44.713 46.8455 44.0298 46.8449 43.3178V40.6304H44.1722C42.6963 40.6304 41.5 41.8338 41.5 43.3178ZM48.6264 43.3178V50.4842C48.6264 51.9687 49.8227 53.172 51.2986 53.172C52.0081 53.1713 52.6882 52.8878 53.1894 52.3838C53.6906 51.8798 53.9719 51.1967 53.9713 50.4846V43.3178C53.9716 42.9652 53.9028 42.616 53.7686 42.2901C53.6345 41.9642 53.4377 41.668 53.1895 41.4184C52.9414 41.1689 52.6466 40.9709 52.3222 40.8356C51.9977 40.7004 51.6499 40.6307 51.2986 40.6304C49.8227 40.6304 48.6264 41.8338 48.6264 43.3178Z" fill="black" fill-opacity="0.15"/>
</g>
<defs>
<clipPath id="clip0_676_2853">
<rect width="108" height="43" fill="white" transform="translate(41.5 18.5)"/>
</clipPath>
</defs>
</svg>
