<svg width="190" height="80" viewBox="0 0 190 80" fill="none" xmlns="http://www.w3.org/2000/svg">
<g clip-path="url(#clip0_358_345)">
<path d="M72.4253 48.4265L73.8934 44.995C75.5009 46.1854 77.5975 46.8155 79.6947 46.8155C81.2325 46.8155 82.2109 46.2205 82.2109 45.3103C82.1758 42.7891 72.9496 44.7499 72.8794 38.4113C72.8443 35.1898 75.7104 32.7037 79.7649 32.7037C82.1758 32.7037 84.5878 33.2992 86.3 34.665L84.9281 38.1697C83.3527 37.1567 81.4069 36.4504 79.5549 36.4504C78.2968 36.4504 77.4577 37.0454 77.4577 37.8163C77.4928 40.3024 86.7897 38.9366 86.8945 44.995C86.8945 48.2866 84.0981 50.5978 80.1137 50.5978C77.1785 50.5978 74.4874 49.8976 72.4248 48.4265H72.4253ZM130.883 43.7524C130.513 44.4109 129.974 44.9589 129.321 45.3403C128.669 45.7217 127.927 45.9227 127.172 45.9228C124.817 45.9228 122.908 44.0101 122.908 41.6508C122.908 39.2914 124.817 37.3787 127.172 37.3787C127.927 37.3788 128.669 37.5798 129.321 37.9612C129.974 38.3426 130.513 38.8906 130.883 39.5491L134.965 37.2835C133.436 34.5513 130.52 32.7037 127.172 32.7037C122.24 32.7037 118.242 36.7091 118.242 41.6508C118.242 46.5919 122.24 50.5978 127.172 50.5978C130.52 50.5978 133.436 48.7502 134.965 46.018L130.883 43.7524ZM89.543 50.2474H94.6456V25.2559H89.5435L89.543 50.2474ZM137.542 25.2559V50.2474H142.644V42.76L148.691 50.2474H155.213L147.524 41.3525L154.653 33.0526H148.411L142.644 39.9531V25.2559H137.542ZM110.366 33.0536V35.0851C109.527 33.6841 107.465 32.7037 105.298 32.7037C100.825 32.7037 97.2951 36.661 97.2951 41.6332C97.2951 46.6055 100.825 50.5978 105.298 50.5978C107.465 50.5978 109.527 49.6174 110.366 48.2164V50.2474H115.468V33.0536H110.366ZM110.366 43.787C109.632 45.0125 108.094 45.9223 106.382 45.9223C104.027 45.9223 102.118 44.0101 102.118 41.6508C102.118 39.2914 104.027 37.3787 106.382 37.3787C108.094 37.3787 109.632 38.3241 110.366 39.5842V43.787Z" fill="black"/>
<path d="M45.478 24.7036C43.8245 24.7036 42.4842 26.0469 42.4842 27.7035C42.4838 28.0971 42.5609 28.4868 42.7111 28.8506C42.8614 29.2143 43.0818 29.5449 43.3598 29.8235C43.6378 30.1021 43.968 30.3231 44.3314 30.4741C44.6949 30.6251 45.0845 30.703 45.478 30.7034H48.4724V27.7035C48.4731 26.9086 48.158 26.1461 47.5965 25.5835C47.0349 25.0209 46.2729 24.7044 45.478 24.7036ZM45.478 32.7033H37.4939C35.8403 32.7033 34.5 34.0466 34.5 35.7037C34.5 37.3603 35.8403 38.7036 37.4939 38.7036H45.4785C47.1316 38.7036 48.4724 37.3603 48.4724 35.7037C48.4724 34.0466 47.1316 32.7033 45.478 32.7033Z" fill="#36C5F0"/>
<path d="M64.4412 35.7037C64.4412 34.0466 63.1004 32.7033 61.4468 32.7033C59.7932 32.7033 58.4529 34.0466 58.4529 35.7037V38.7036H61.4468C62.2417 38.7028 63.0037 38.3863 63.5652 37.8237C64.1268 37.2612 64.4418 36.4986 64.4412 35.7037ZM56.457 35.7037V27.7035C56.4577 26.9086 56.1426 26.1461 55.581 25.5835C55.0195 25.0209 54.2575 24.7044 53.4626 24.7036C51.8091 24.7036 50.4688 26.0469 50.4688 27.7035V35.7032C50.4688 37.3608 51.8091 38.7041 53.4626 38.7041C54.2575 38.7033 55.0195 38.3868 55.581 37.8242C56.1426 37.2617 56.4577 36.4991 56.457 35.7042" fill="#2EB67D"/>
<path d="M53.4626 54.7036C54.2575 54.7028 55.0195 54.3863 55.581 53.8237C56.1426 53.2612 56.4577 52.4986 56.457 51.7037C56.4577 50.9088 56.1426 50.1463 55.581 49.5837C55.0195 49.0211 54.2575 48.7046 53.4626 48.7038H50.4688V51.7037C50.4688 53.3603 51.8091 54.7036 53.4626 54.7036ZM53.4626 46.7039H61.4473C63.1004 46.7039 64.4412 45.3606 64.4412 43.7035C64.4418 42.9086 64.1268 42.1461 63.5652 41.5835C63.0037 41.0209 62.2417 40.7044 61.4468 40.7036H53.4626C51.8091 40.7036 50.4688 42.0469 50.4688 43.7035C50.4684 44.0971 50.5455 44.4868 50.6957 44.8506C50.846 45.2143 51.0664 45.5449 51.3444 45.8235C51.6224 46.1021 51.9526 46.3231 52.316 46.4741C52.6794 46.6251 53.0691 46.703 53.4626 46.7034" fill="#ECB22E"/>
<path d="M34.5 43.7035C34.4996 44.0971 34.5767 44.4868 34.727 44.8506C34.8772 45.2143 35.0976 45.5449 35.3756 45.8235C35.6536 46.1021 35.9838 46.3231 36.3472 46.4741C36.7107 46.6251 37.1003 46.703 37.4939 46.7034C38.2887 46.7026 39.0508 46.3861 39.6123 45.8235C40.1738 45.261 40.4889 44.4984 40.4883 43.7035V40.7036H37.4939C35.8403 40.7036 34.5 42.0469 34.5 43.7035ZM42.4842 43.7035V51.7032C42.4842 53.3603 43.8245 54.7036 45.4781 54.7036C46.2729 54.7028 47.0349 54.3863 47.5965 53.8237C48.158 53.2612 48.4731 52.4986 48.4724 51.7037V43.7035C48.4728 43.3099 48.3957 42.9201 48.2454 42.5563C48.0951 42.1925 47.8747 41.8619 47.5966 41.5833C47.3186 41.3048 46.9883 41.0837 46.6248 40.9327C46.2613 40.7818 45.8716 40.7039 45.4781 40.7036C43.8245 40.7036 42.4842 42.0469 42.4842 43.7035Z" fill="#E01E5A"/>
</g>
<defs>
<clipPath id="clip0_358_345">
<rect width="121" height="48" fill="white" transform="translate(34.5 16)"/>
</clipPath>
</defs>
</svg>
