<svg width="190" height="80" viewBox="0 0 190 80" fill="none" xmlns="http://www.w3.org/2000/svg">
<g clip-path="url(#clip0_347_361)">
<path d="M54.2279 22.5659C44.5629 22.5659 36.7275 30.4011 36.7275 40.066C36.7275 49.7314 44.5629 57.5659 54.2279 57.5659C63.8939 57.5659 71.7284 49.7314 71.7284 40.066C71.7284 30.4017 63.8939 22.5668 54.2277 22.5668L54.2279 22.5659ZM62.2534 47.8061C61.9399 48.3202 61.267 48.4832 60.7529 48.1676C56.644 45.6578 51.4715 45.0894 45.3798 46.4812C44.7928 46.6149 44.2076 46.2471 44.0739 45.6599C43.9395 45.0727 44.3059 44.4875 44.8943 44.3538C51.5607 42.8308 57.2789 43.4865 61.8919 46.3056C62.4059 46.6212 62.5689 47.292 62.2534 47.8061ZM64.3954 43.041C64.0004 43.683 63.1604 43.8857 62.5188 43.4907C57.8147 40.5993 50.6441 39.762 45.0801 41.4509C44.3585 41.6689 43.5964 41.2622 43.3774 40.5419C43.16 39.8203 43.5669 39.0596 44.2873 38.8402C50.6429 36.9117 58.5441 37.8459 63.9461 41.1654C64.5877 41.5604 64.7904 42.4005 64.3954 43.0412V43.041ZM64.5793 38.0791C58.939 34.729 49.6333 34.4209 44.2482 36.0553C43.3834 36.3176 42.469 35.8294 42.2069 34.9647C41.9448 34.0995 42.4326 33.1857 43.298 32.9228C49.4797 31.0462 59.7561 31.4088 66.2499 35.2637C67.0293 35.7254 67.2843 36.7299 66.8225 37.5067C66.3627 38.2845 65.3554 38.5409 64.5801 38.0791H64.5793ZM84.3401 38.7211C81.3183 38.0005 80.7812 37.4948 80.7812 36.4321C80.7812 35.4282 81.7258 34.7526 83.1322 34.7526C84.4948 34.7526 85.8447 35.2656 87.2616 36.3218C87.3034 36.3538 87.3577 36.3665 87.41 36.3582C87.4643 36.3502 87.5103 36.3212 87.5416 36.2775L89.017 34.1978C89.0776 34.1121 89.0609 33.994 88.9794 33.9286C87.293 32.5759 85.3955 31.9182 83.1761 31.9182C79.914 31.9182 77.6341 33.8761 77.6341 36.6775C77.6341 39.6815 79.6005 40.7452 82.9985 41.5663C85.8886 42.2323 86.3776 42.7902 86.3776 43.7875C86.3776 44.893 85.3913 45.5805 83.8031 45.5805C82.0393 45.5805 80.5994 44.9849 78.9903 43.5931C78.9506 43.5576 78.8963 43.543 78.8461 43.5451C78.7918 43.5492 78.7437 43.5743 78.7103 43.614L77.0552 45.5826C76.9862 45.6662 76.9946 45.7874 77.074 45.8584C78.9464 47.5302 81.2494 48.4121 83.7362 48.4121C87.2512 48.4121 89.5227 46.4916 89.5227 43.5179C89.529 41.0087 88.0265 39.619 84.3464 38.7238L84.3401 38.7211ZM97.4764 35.741C95.9529 35.741 94.7033 36.3412 93.6709 37.5711V36.1868C93.6709 36.0775 93.5831 35.9885 93.4745 35.9885H90.7682C90.6596 35.9885 90.5718 36.0775 90.5718 36.1868V51.5677C90.5718 51.6763 90.6596 51.7662 90.7682 51.7662H93.4745C93.5831 51.7662 93.6709 51.6763 93.6709 51.5677V46.7131C94.7033 47.8688 95.9529 48.4351 97.4764 48.4351C100.308 48.4351 103.175 46.2555 103.175 42.0887C103.179 37.9211 100.312 35.7408 97.4785 35.7408L97.4764 35.741ZM100.028 42.0887C100.028 44.2096 98.7219 45.6912 96.8495 45.6912C95 45.6912 93.6041 44.1427 93.6041 42.0887C93.6041 40.0345 95 38.4864 96.8495 38.4864C98.6905 38.4862 100.028 40.0008 100.028 42.0885V42.0887ZM110.521 35.741C106.874 35.741 104.017 38.5489 104.017 42.1341C104.017 45.6808 106.855 48.4581 110.477 48.4581C114.136 48.4581 117.001 45.6599 117.001 42.0887C117.001 38.5296 114.155 35.7415 110.521 35.7415V35.741ZM110.521 45.7121C108.581 45.7121 107.119 44.1532 107.119 42.0877C107.119 40.0127 108.531 38.5071 110.477 38.5071C112.429 38.5071 113.9 40.0654 113.9 42.133C113.9 44.2075 112.479 45.7121 110.521 45.7121ZM124.788 35.9885H121.81V32.9445C121.81 32.8354 121.722 32.7464 121.613 32.7464H118.907C118.798 32.7464 118.708 32.8354 118.708 32.9445V35.9885H117.409C117.3 35.9885 117.212 36.0775 117.212 36.1868V38.5121C117.212 38.6212 117.3 38.7104 117.409 38.7104H118.708V44.7279C118.708 47.1583 119.918 48.3912 122.307 48.3912C123.277 48.3912 124.081 48.1906 124.84 47.7601C124.902 47.7267 124.94 47.6598 124.94 47.5888V45.3736C124.94 45.3067 124.905 45.2419 124.846 45.2064C124.788 45.1688 124.714 45.1667 124.654 45.1981C124.133 45.4593 123.63 45.5805 123.066 45.5805C122.198 45.5805 121.81 45.1855 121.81 44.3036V38.7114H124.788C124.896 38.7114 124.984 38.6224 124.984 38.5131V36.188C124.988 36.0788 124.9 35.9897 124.79 35.9897L124.788 35.9885ZM135.161 36.0004V35.6265C135.161 34.5267 135.583 34.0362 136.528 34.0362C137.092 34.0362 137.546 34.1482 138.053 34.3175C138.116 34.3371 138.181 34.3273 138.231 34.2899C138.283 34.2525 138.312 34.1925 138.312 34.129V31.8491C138.312 31.7619 138.258 31.6848 138.172 31.6591C137.637 31.4997 136.952 31.336 135.924 31.336C133.427 31.336 132.104 32.7433 132.104 35.4042V35.9768H130.804C130.695 35.9768 130.605 36.0658 130.605 36.1749V38.5121C130.605 38.6212 130.695 38.7104 130.804 38.7104H132.104V47.99C132.104 48.1007 132.194 48.1885 132.302 48.1885H135.006C135.117 48.1885 135.205 48.1007 135.205 47.99V38.711H137.732L141.602 47.99C141.163 48.9638 140.73 49.1582 140.141 49.1582C139.665 49.1582 139.161 49.0161 138.649 48.7339C138.601 48.7089 138.542 48.7047 138.492 48.7193C138.44 48.7381 138.396 48.7757 138.375 48.8259L137.458 50.8383C137.414 50.9345 137.451 51.0452 137.543 51.0954C138.501 51.6136 139.364 51.8352 140.432 51.8352C142.429 51.8352 143.535 50.9031 144.507 48.3996L149.2 36.2712C149.225 36.2102 149.217 36.1412 149.179 36.0871C149.144 36.0334 149.083 36.001 149.018 36.001H146.201C146.116 36.001 146.04 36.0547 146.013 36.1339L143.127 44.3747L139.968 36.1285C139.938 36.0518 139.865 36.001 139.784 36.001H135.161V36.0004ZM129.147 35.9885H126.441C126.332 35.9885 126.242 36.0775 126.242 36.1868V47.99C126.242 48.1007 126.332 48.1885 126.441 48.1885H129.147C129.255 48.1885 129.345 48.1007 129.345 47.99V36.1876C129.345 36.0783 129.258 35.9893 129.147 35.9893V35.9885ZM127.809 30.6138C126.737 30.6138 125.868 31.4815 125.868 32.5533C125.868 33.6258 126.737 34.4945 127.809 34.4945C128.881 34.4945 129.749 33.6258 129.749 32.5533C129.749 31.4817 128.879 30.6138 127.809 30.6138ZM151.511 39.7837C150.441 39.7837 149.608 38.9238 149.608 37.8795C149.608 36.8352 150.452 35.9655 151.522 35.9655C152.592 35.9655 153.426 36.8252 153.426 37.8686C153.426 38.9129 152.581 39.7837 151.511 39.7837ZM151.522 36.1548C150.546 36.1548 149.808 36.9301 149.808 37.8795C149.808 38.8285 150.542 39.5933 151.511 39.5933C152.487 39.5933 153.225 38.8186 153.225 37.8686C153.225 36.9197 152.492 36.1548 151.522 36.1548ZM151.944 38.0644L152.483 38.8184H152.028L151.543 38.1267H151.127V38.8184H150.747V36.8198H151.637C152.103 36.8198 152.408 37.0574 152.408 37.4574C152.41 37.785 152.22 37.9852 151.946 38.0644H151.944ZM151.622 37.1627H151.127V37.7949H151.622C151.869 37.7949 152.017 37.6739 152.017 37.4785C152.017 37.2728 151.869 37.1627 151.622 37.1627Z" fill="black" fill-opacity="0.15"/>
</g>
<defs>
<clipPath id="clip0_347_361">
<rect width="116.667" height="40" fill="white" transform="translate(36.667 20)"/>
</clipPath>
</defs>
</svg>
