<svg width="190" height="80" viewBox="0 0 190 80" fill="none" xmlns="http://www.w3.org/2000/svg">
<g clip-path="url(#clip0_358_341)">
<path d="M54.1109 22.5659C44.4183 22.5659 36.5605 30.4011 36.5605 40.066C36.5605 49.7314 44.4183 57.5659 54.1109 57.5659C63.8045 57.5659 71.6614 49.7314 71.6614 40.066C71.6614 30.4017 63.8045 22.5668 54.1107 22.5668L54.1109 22.5659ZM62.1593 47.8061C61.845 48.3202 61.1701 48.4832 60.6546 48.1676C56.534 45.6578 51.3466 45.0894 45.2375 46.4812C44.6488 46.6149 44.062 46.2471 43.9279 45.6599C43.7931 45.0727 44.1605 44.4875 44.7507 44.3538C51.4361 42.8308 57.1706 43.4865 61.7968 46.3056C62.3123 46.6212 62.4758 47.292 62.1593 47.8061ZM64.3075 43.041C63.9114 43.683 63.0689 43.8857 62.4255 43.4907C57.708 40.5993 50.5169 39.762 44.937 41.4509C44.2133 41.6689 43.449 41.2622 43.2294 40.5419C43.0114 39.8203 43.4195 39.0596 44.1419 38.8402C50.5156 36.9117 58.4394 37.8459 63.8569 41.1654C64.5003 41.5604 64.7036 42.4005 64.3075 43.0412V43.041ZM64.4919 38.0791C58.8355 34.729 49.5032 34.4209 44.1027 36.0553C43.2355 36.3176 42.3184 35.8294 42.0556 34.9647C41.7928 34.0995 42.2819 33.1857 43.1497 32.9228C49.3491 31.0462 59.6549 31.4088 66.1672 35.2637C66.9489 35.7254 67.2046 36.7299 66.7414 37.5067C66.2804 38.2845 65.2702 38.5409 64.4927 38.0791H64.4919ZM84.3092 38.7211C81.2787 38.0005 80.7401 37.4948 80.7401 36.4321C80.7401 35.4282 81.6874 34.7526 83.0978 34.7526C84.4642 34.7526 85.8181 35.2656 87.239 36.3218C87.2809 36.3538 87.3354 36.3665 87.3878 36.3582C87.4423 36.3502 87.4884 36.3212 87.5198 36.2775L88.9994 34.1978C89.0602 34.1121 89.0434 33.994 88.9617 33.9286C87.2704 32.5759 85.3675 31.9182 83.1418 31.9182C79.8704 31.9182 77.5839 33.8761 77.5839 36.6775C77.5839 39.6815 79.556 40.7452 82.9637 41.5663C85.8621 42.2323 86.3525 42.7902 86.3525 43.7875C86.3525 44.893 85.3633 45.5805 83.7706 45.5805C82.0018 45.5805 80.5578 44.9849 78.9441 43.5931C78.9043 43.5576 78.8498 43.543 78.7995 43.5451C78.745 43.5492 78.6968 43.5743 78.6632 43.614L77.0034 45.5826C76.9343 45.6662 76.9427 45.7874 77.0223 45.8584C78.9001 47.5302 81.2096 48.4121 83.7035 48.4121C87.2285 48.4121 89.5066 46.4916 89.5066 43.5179C89.5129 41.0087 88.006 39.619 84.3154 38.7238L84.3092 38.7211ZM97.483 35.741C95.9552 35.741 94.7019 36.3412 93.6666 37.5711V36.1868C93.6666 36.0775 93.5786 35.9885 93.4696 35.9885H90.7556C90.6467 35.9885 90.5587 36.0775 90.5587 36.1868V51.5677C90.5587 51.6763 90.6467 51.7662 90.7556 51.7662H93.4696C93.5786 51.7662 93.6666 51.6763 93.6666 51.5677V46.7131C94.7019 47.8688 95.9552 48.4351 97.483 48.4351C100.323 48.4351 103.198 46.2555 103.198 42.0887C103.202 37.9211 100.327 35.7408 97.4851 35.7408L97.483 35.741ZM100.042 42.0887C100.042 44.2096 98.732 45.6912 96.8542 45.6912C94.9995 45.6912 93.5996 44.1427 93.5996 42.0887C93.5996 40.0345 94.9995 38.4864 96.8542 38.4864C98.7006 38.4862 100.042 40.0008 100.042 42.0885V42.0887ZM110.565 35.741C106.907 35.741 104.043 38.5489 104.043 42.1341C104.043 45.6808 106.889 48.4581 110.521 48.4581C114.19 48.4581 117.063 45.6599 117.063 42.0887C117.063 38.5296 114.209 35.7415 110.565 35.7415V35.741ZM110.565 45.7121C108.62 45.7121 107.153 44.1532 107.153 42.0877C107.153 40.0127 108.569 38.5071 110.521 38.5071C112.478 38.5071 113.953 40.0654 113.953 42.133C113.953 44.2075 112.528 45.7121 110.565 45.7121ZM124.872 35.9885H121.886V32.9445C121.886 32.8354 121.798 32.7464 121.689 32.7464H118.975C118.866 32.7464 118.776 32.8354 118.776 32.9445V35.9885H117.472C117.363 35.9885 117.275 36.0775 117.275 36.1868V38.5121C117.275 38.6212 117.363 38.7104 117.472 38.7104H118.776V44.7279C118.776 47.1583 119.989 48.3912 122.384 48.3912C123.357 48.3912 124.164 48.1906 124.925 47.7601C124.987 47.7267 125.025 47.6598 125.025 47.5888V45.3736C125.025 45.3067 124.989 45.2419 124.931 45.2064C124.872 45.1688 124.799 45.1667 124.738 45.1981C124.216 45.4593 123.711 45.5805 123.145 45.5805C122.276 45.5805 121.886 45.1855 121.886 44.3036V38.7114H124.872C124.981 38.7114 125.069 38.6224 125.069 38.5131V36.188C125.073 36.0788 124.985 35.9897 124.874 35.9897L124.872 35.9885ZM135.275 36.0004V35.6265C135.275 34.5267 135.699 34.0362 136.646 34.0362C137.212 34.0362 137.667 34.1482 138.176 34.3175C138.239 34.3371 138.304 34.3273 138.354 34.2899C138.406 34.2525 138.436 34.1925 138.436 34.129V31.8491C138.436 31.7619 138.381 31.6848 138.295 31.6591C137.759 31.4997 137.071 31.336 136.04 31.336C133.536 31.336 132.209 32.7433 132.209 35.4042V35.9768H130.906C130.797 35.9768 130.707 36.0658 130.707 36.1749V38.5121C130.707 38.6212 130.797 38.7104 130.906 38.7104H132.209V47.99C132.209 48.1007 132.299 48.1885 132.408 48.1885H135.12C135.231 48.1885 135.319 48.1007 135.319 47.99V38.711H137.853L141.734 47.99C141.294 48.9638 140.86 49.1582 140.27 49.1582C139.792 49.1582 139.287 49.0161 138.773 48.7339C138.725 48.7089 138.666 48.7047 138.616 48.7193C138.564 48.7381 138.52 48.7757 138.499 48.8259L137.579 50.8383C137.535 50.9345 137.572 51.0452 137.665 51.0954C138.624 51.6136 139.49 51.8352 140.561 51.8352C142.564 51.8352 143.673 50.9031 144.647 48.3996L149.355 36.2712C149.38 36.2102 149.371 36.1412 149.334 36.0871C149.298 36.0334 149.237 36.001 149.172 36.001H146.347C146.261 36.001 146.186 36.0547 146.159 36.1339L143.264 44.3747L140.096 36.1285C140.066 36.0518 139.993 36.001 139.911 36.001H135.275V36.0004ZM129.244 35.9885H126.53C126.421 35.9885 126.331 36.0775 126.331 36.1868V47.99C126.331 48.1007 126.421 48.1885 126.53 48.1885H129.244C129.353 48.1885 129.443 48.1007 129.443 47.99V36.1876C129.443 36.0783 129.355 35.9893 129.244 35.9893V35.9885ZM127.903 30.6138C126.827 30.6138 125.956 31.4815 125.956 32.5533C125.956 33.6258 126.827 34.4945 127.903 34.4945C128.978 34.4945 129.847 33.6258 129.847 32.5533C129.847 31.4817 128.976 30.6138 127.903 30.6138ZM151.672 39.7837C150.599 39.7837 149.763 38.9238 149.763 37.8795C149.763 36.8352 150.61 35.9655 151.683 35.9655C152.756 35.9655 153.592 36.8252 153.592 37.8686C153.592 38.9129 152.745 39.7837 151.672 39.7837ZM151.683 36.1548C150.704 36.1548 149.964 36.9301 149.964 37.8795C149.964 38.8285 150.7 39.5933 151.672 39.5933C152.651 39.5933 153.391 38.8186 153.391 37.8686C153.391 36.9197 152.655 36.1548 151.683 36.1548ZM152.106 38.0644L152.647 38.8184H152.19L151.704 38.1267H151.287V38.8184H150.905V36.8198H151.798C152.265 36.8198 152.571 37.0574 152.571 37.4574C152.574 37.785 152.383 37.9852 152.108 38.0644H152.106ZM151.783 37.1627H151.287V37.7949H151.783C152.031 37.7949 152.18 37.6739 152.18 37.4785C152.18 37.2728 152.031 37.1627 151.783 37.1627Z" fill="#1ED760"/>
</g>
<defs>
<clipPath id="clip0_358_341">
<rect width="117" height="40" fill="white" transform="translate(36.5 20)"/>
</clipPath>
</defs>
</svg>
