<svg width="191" height="80" viewBox="0 0 191 80" fill="none" xmlns="http://www.w3.org/2000/svg">
<g clip-path="url(#clip0_676_2849)">
<path d="M54.7274 22.5659C45.0624 22.5659 37.2271 30.4011 37.2271 40.066C37.2271 49.7314 45.0624 57.5659 54.7274 57.5659C64.3934 57.5659 72.2279 49.7314 72.2279 40.066C72.2279 30.4017 64.3934 22.5668 54.7272 22.5668L54.7274 22.5659ZM62.7529 47.8061C62.4394 48.3202 61.7665 48.4832 61.2525 48.1676C57.1436 45.6578 51.971 45.0894 45.8793 46.4812C45.2923 46.6149 44.7072 46.2471 44.5734 45.6599C44.439 45.0727 44.8054 44.4875 45.3939 44.3538C52.0602 42.8308 57.7784 43.4865 62.3914 46.3056C62.9055 46.6212 63.0685 47.292 62.7529 47.8061ZM64.8949 43.041C64.4999 43.683 63.6599 43.8857 63.0183 43.4907C58.3142 40.5993 51.1436 39.762 45.5796 41.4509C44.858 41.6689 44.0959 41.2622 43.8769 40.5419C43.6596 39.8203 44.0664 39.0596 44.7868 38.8402C51.1424 36.9117 59.0436 37.8459 64.4456 41.1654C65.0872 41.5604 65.2899 42.4005 64.8949 43.0412V43.041ZM65.0788 38.0791C59.4385 34.729 50.1328 34.4209 44.7477 36.0553C43.883 36.3176 42.9685 35.8294 42.7064 34.9647C42.4444 34.0995 42.9321 33.1857 43.7975 32.9228C49.9792 31.0462 60.2556 31.4088 66.7494 35.2637C67.5289 35.7254 67.7838 36.7299 67.322 37.5067C66.8622 38.2845 65.8549 38.5409 65.0796 38.0791H65.0788ZM84.8396 38.7211C81.8178 38.0005 81.2808 37.4948 81.2808 36.4321C81.2808 35.4282 82.2253 34.7526 83.6317 34.7526C84.9943 34.7526 86.3443 35.2656 87.7611 36.3218C87.8029 36.3538 87.8573 36.3665 87.9095 36.3582C87.9638 36.3502 88.0098 36.3212 88.0411 36.2775L89.5165 34.1978C89.5771 34.1121 89.5604 33.994 89.4789 33.9286C87.7925 32.5759 85.895 31.9182 83.6756 31.9182C80.4135 31.9182 78.1336 33.8761 78.1336 36.6775C78.1336 39.6815 80.1 40.7452 83.498 41.5663C86.3881 42.2323 86.8772 42.7902 86.8772 43.7875C86.8772 44.893 85.8908 45.5805 84.3026 45.5805C82.5388 45.5805 81.099 44.9849 79.4898 43.5931C79.4501 43.5576 79.3958 43.543 79.3456 43.5451C79.2913 43.5492 79.2432 43.5743 79.2098 43.614L77.5547 45.5826C77.4857 45.6662 77.4941 45.7874 77.5735 45.8584C79.4459 47.5302 81.7489 48.4121 84.2357 48.4121C87.7507 48.4121 90.0222 46.4916 90.0222 43.5179C90.0285 41.0087 88.526 39.619 84.8459 38.7238L84.8396 38.7211ZM97.9759 35.741C96.4525 35.741 95.2028 36.3412 94.1704 37.5711V36.1868C94.1704 36.0775 94.0827 35.9885 93.974 35.9885H91.2678C91.1591 35.9885 91.0713 36.0775 91.0713 36.1868V51.5677C91.0713 51.6763 91.1591 51.7662 91.2678 51.7662H93.974C94.0827 51.7662 94.1704 51.6763 94.1704 51.5677V46.7131C95.2028 47.8688 96.4525 48.4351 97.9759 48.4351C100.808 48.4351 103.675 46.2555 103.675 42.0887C103.679 37.9211 100.812 35.7408 97.978 35.7408L97.9759 35.741ZM100.528 42.0887C100.528 44.2096 99.2214 45.6912 97.349 45.6912C95.4995 45.6912 94.1036 44.1427 94.1036 42.0887C94.1036 40.0345 95.4995 38.4864 97.349 38.4864C99.1901 38.4862 100.528 40.0008 100.528 42.0885V42.0887ZM111.02 35.741C107.374 35.741 104.517 38.5489 104.517 42.1341C104.517 45.6808 107.355 48.4581 110.976 48.4581C114.636 48.4581 117.501 45.6599 117.501 42.0887C117.501 38.5296 114.654 35.7415 111.02 35.7415V35.741ZM111.02 45.7121C109.081 45.7121 107.618 44.1532 107.618 42.0877C107.618 40.0127 109.031 38.5071 110.976 38.5071C112.928 38.5071 114.399 40.0654 114.399 42.133C114.399 44.2075 112.978 45.7121 111.02 45.7121ZM125.287 35.9885H122.309V32.9445C122.309 32.8354 122.221 32.7464 122.113 32.7464H119.406C119.298 32.7464 119.208 32.8354 119.208 32.9445V35.9885H117.908C117.799 35.9885 117.712 36.0775 117.712 36.1868V38.5121C117.712 38.6212 117.799 38.7104 117.908 38.7104H119.208V44.7279C119.208 47.1583 120.418 48.3912 122.806 48.3912C123.776 48.3912 124.581 48.1906 125.339 47.7601C125.402 47.7267 125.44 47.6598 125.44 47.5888V45.3736C125.44 45.3067 125.404 45.2419 125.346 45.2064C125.287 45.1688 125.214 45.1667 125.153 45.1981C124.633 45.4593 124.129 45.5805 123.565 45.5805C122.698 45.5805 122.309 45.1855 122.309 44.3036V38.7114H125.287C125.396 38.7114 125.483 38.6224 125.483 38.5131V36.188C125.488 36.0788 125.4 35.9897 125.289 35.9897L125.287 35.9885ZM135.661 36.0004V35.6265C135.661 34.5267 136.083 34.0362 137.027 34.0362C137.592 34.0362 138.045 34.1482 138.553 34.3175C138.616 34.3371 138.68 34.3273 138.73 34.2899C138.783 34.2525 138.812 34.1925 138.812 34.129V31.8491C138.812 31.7619 138.758 31.6848 138.672 31.6591C138.137 31.4997 137.452 31.336 136.423 31.336C133.926 31.336 132.603 32.7433 132.603 35.4042V35.9768H131.303C131.195 35.9768 131.105 36.0658 131.105 36.1749V38.5121C131.105 38.6212 131.195 38.7104 131.303 38.7104H132.603V47.99C132.603 48.1007 132.693 48.1885 132.802 48.1885H135.506C135.617 48.1885 135.705 48.1007 135.705 47.99V38.711H138.231L142.101 47.99C141.662 48.9638 141.23 49.1582 140.641 49.1582C140.164 49.1582 139.66 49.0161 139.148 48.7339C139.1 48.7089 139.042 48.7047 138.992 48.7193C138.939 48.7381 138.896 48.7757 138.875 48.8259L137.957 50.8383C137.913 50.9345 137.951 51.0452 138.043 51.0954C139 51.6136 139.863 51.8352 140.931 51.8352C142.929 51.8352 144.034 50.9031 145.006 48.3996L149.7 36.2712C149.725 36.2102 149.716 36.1412 149.679 36.0871C149.643 36.0334 149.583 36.001 149.518 36.001H146.701C146.615 36.001 146.54 36.0547 146.513 36.1339L143.627 44.3747L140.467 36.1285C140.438 36.0518 140.365 36.001 140.283 36.001H135.661V36.0004ZM129.646 35.9885H126.94C126.831 35.9885 126.742 36.0775 126.742 36.1868V47.99C126.742 48.1007 126.831 48.1885 126.94 48.1885H129.646C129.755 48.1885 129.845 48.1007 129.845 47.99V36.1876C129.845 36.0783 129.757 35.9893 129.646 35.9893V35.9885ZM128.309 30.6138C127.237 30.6138 126.367 31.4815 126.367 32.5533C126.367 33.6258 127.237 34.4945 128.309 34.4945C129.381 34.4945 130.248 33.6258 130.248 32.5533C130.248 31.4817 129.379 30.6138 128.309 30.6138ZM152.011 39.7837C150.941 39.7837 150.107 38.9238 150.107 37.8795C150.107 36.8352 150.951 35.9655 152.021 35.9655C153.091 35.9655 153.925 36.8252 153.925 37.8686C153.925 38.9129 153.081 39.7837 152.011 39.7837ZM152.021 36.1548C151.045 36.1548 150.308 36.9301 150.308 37.8795C150.308 38.8285 151.041 39.5933 152.011 39.5933C152.987 39.5933 153.725 38.8186 153.725 37.8686C153.725 36.9197 152.991 36.1548 152.021 36.1548ZM152.444 38.0644L152.983 38.8184H152.527L152.042 38.1267H151.626V38.8184H151.246V36.8198H152.136C152.602 36.8198 152.907 37.0574 152.907 37.4574C152.91 37.785 152.719 37.9852 152.446 38.0644H152.444ZM152.122 37.1627H151.626V37.7949H152.122C152.368 37.7949 152.517 37.6739 152.517 37.4785C152.517 37.2728 152.368 37.1627 152.122 37.1627Z" fill="black" fill-opacity="0.15"/>
</g>
<defs>
<clipPath id="clip0_676_2849">
<rect width="116.667" height="40" fill="white" transform="translate(37.1667 20)"/>
</clipPath>
</defs>
</svg>
