<svg width="24" height="24" viewBox="0 0 24 24" fill="none" xmlns="http://www.w3.org/2000/svg">
<path d="M5.59961 12.7998C6.5288 12.7998 7.40435 13.0281 8.17578 13.4287L6.21094 16.4033C5.61105 17.3114 6.68857 18.3889 7.59668 17.7891L10.5713 15.8232C10.9722 16.5949 11.2001 17.4709 11.2002 18.4004C11.2001 21.493 8.69228 23.9999 5.59961 24C2.50707 23.9998 0.00012704 21.493 0 18.4004C0.000175935 15.3079 2.5071 12.8 5.59961 12.7998ZM18.4004 12.7998C21.493 12.7999 24.0008 15.3078 24.001 18.4004C24.0008 21.493 21.4931 23.9999 18.4004 24C15.3077 23.9999 12.8009 21.493 12.8008 18.4004C12.8008 17.4713 13.0282 16.5956 13.4287 15.8242L16.4033 17.7891C17.3114 18.3889 18.3889 17.3114 17.7891 16.4033L15.8232 13.4287C16.5948 13.0279 17.4709 12.7998 18.4004 12.7998ZM5.59961 0C8.69225 8.79713e-05 11.2 2.50797 11.2002 5.60059C11.2002 6.52975 10.9719 7.40545 10.5713 8.17676L7.59668 6.21191C6.68865 5.61236 5.61129 6.68963 6.21094 7.59766L8.17578 10.5713C7.40427 10.9719 6.52893 11.2002 5.59961 11.2002C2.50705 11.2 0.000102303 8.69317 0 5.60059C0.000175935 2.50806 2.5071 0.000235763 5.59961 0ZM18.4004 0C21.493 8.79713e-05 24.0008 2.50797 24.001 5.60059C24.0008 8.69324 21.4931 11.2001 18.4004 11.2002C17.4708 11.2002 16.5948 10.9721 15.8232 10.5713L17.7891 7.59766C18.3887 6.68963 17.3114 5.61236 16.4033 6.21191L13.4287 8.17676C13.0283 7.40549 12.8008 6.52967 12.8008 5.60059C12.801 2.50798 15.3078 0.000103845 18.4004 0Z" fill="black"/>
</svg>
