<svg width="191" height="80" viewBox="0 0 191 80" fill="none" xmlns="http://www.w3.org/2000/svg">
<g clip-path="url(#clip0_676_2899)">
<path fill-rule="evenodd" clip-rule="evenodd" d="M62.5038 29.25H46.9282C46.2847 29.25 45.6676 29.5035 45.2123 29.9547C44.757 30.406 44.5009 31.0181 44.5 31.6567V47.0901C44.4985 47.4068 44.5598 47.7206 44.6806 48.0137C44.8013 48.3068 44.9791 48.5735 45.2037 48.7983C45.4284 49.0232 45.6954 49.202 45.9897 49.3243C46.284 49.4467 46.5997 49.5103 46.9188 49.5116H62.5058C62.8247 49.5112 63.1404 49.4485 63.4349 49.327C63.7295 49.2055 63.997 49.0277 64.2222 48.8036C64.4474 48.5795 64.626 48.3135 64.7476 48.0209C64.8692 47.7283 64.9316 47.4148 64.9312 47.0983V31.6567C64.9303 31.0182 64.6742 30.4062 64.2191 29.955C63.764 29.5038 63.1471 29.2502 62.5038 29.25V29.25ZM53.3118 43.8439C53.3108 44.0576 53.2245 44.2621 53.0716 44.4125C52.9188 44.5629 52.712 44.647 52.4968 44.6461H49.0896C48.8758 44.6451 48.6712 44.5602 48.5204 44.4098C48.3696 44.2595 48.2849 44.0561 48.2848 43.8439V33.7909C48.2847 33.5787 48.3693 33.3751 48.5202 33.2247C48.671 33.0744 48.8758 32.9895 49.0896 32.9887H52.4937C52.7078 32.9895 52.9129 33.0743 53.0643 33.2245C53.2157 33.3748 53.3012 33.5784 53.302 33.7909L53.3118 43.8439ZM61.1652 39.228C61.1652 39.4408 61.0801 39.6449 60.9285 39.7954C60.7769 39.9459 60.5713 40.0305 60.3569 40.0306H56.9434C56.7292 40.0298 56.524 39.945 56.3726 39.7946C56.2212 39.6443 56.1358 39.4406 56.1351 39.228V33.7909C56.1359 33.5784 56.2213 33.3748 56.3727 33.2245C56.5241 33.0743 56.7293 32.9895 56.9434 32.9887H60.3471C60.561 32.9894 60.7658 33.0742 60.9167 33.2246C61.0677 33.375 61.1524 33.5786 61.1523 33.7909L61.1652 39.228Z" fill="black" fill-opacity="0.15"/>
<path d="M86.8318 30.7344V34.6526H82.155V49.5116H77.6449V34.6526H72.968V30.7344H86.8318Z" fill="black" fill-opacity="0.15"/>
<path d="M92.5709 49.5118H88.4016V34.8953H92.5709V37.6938C93.3632 35.722 94.6298 34.5494 96.8848 34.6924V39.0222C93.9389 38.7949 92.5709 39.5092 92.5709 41.8514V49.5118Z" fill="black" fill-opacity="0.15"/>
<path d="M119.663 49.6254C116.93 49.6254 115.212 48.3261 115.212 45.2533V29.25H119.411V44.6803C119.411 45.5669 119.998 45.8821 120.72 45.8821C120.928 45.8861 121.136 45.8762 121.342 45.8526V49.4548C120.793 49.5882 120.228 49.6456 119.663 49.6254Z" fill="black" fill-opacity="0.15"/>
<path d="M128.423 49.6254C125.69 49.6254 123.969 48.3261 123.969 45.2533V29.25H128.168V44.6804C128.168 45.5669 128.76 45.8821 129.493 45.8821C129.7 45.8865 129.906 45.8766 130.112 45.8526V49.4548C129.559 49.5893 128.991 49.6468 128.423 49.6254Z" fill="black" fill-opacity="0.15"/>
<path d="M132.123 42.1973C132.123 37.6824 134.742 34.5933 139.251 34.5933C143.76 34.5933 146.324 37.6723 146.324 42.1973C146.324 46.7222 143.732 49.8541 139.252 49.8541C134.772 49.8541 132.123 46.6826 132.123 42.1973ZM136.211 42.1973C136.211 44.396 137.141 46.1404 139.252 46.1404C141.363 46.1404 142.24 44.396 142.24 42.1973C142.24 39.9985 141.339 38.2993 139.252 38.2993C137.164 38.2993 136.211 39.995 136.211 42.1973Z" fill="black" fill-opacity="0.15"/>
<path d="M102.513 43.5189C103.681 43.6461 104.854 43.7143 106.029 43.7234C109.223 43.7234 111.92 42.8726 111.92 39.8032C111.92 36.8244 109.148 34.5864 105.813 34.5864C101.322 34.5864 98.4456 37.8186 98.4456 42.3335C98.4456 47.0205 100.926 49.8038 106.533 49.8038C108.196 49.8173 109.847 49.5244 111.403 48.9402V45.4386C109.963 45.8964 108.343 46.3512 106.68 46.3512C104.448 46.3516 102.892 45.6236 102.513 43.5189ZM105.728 37.7763C106.909 37.7763 107.858 38.5719 107.858 39.6602C107.858 41.0594 106.37 41.4986 104.654 41.4986C103.924 41.4951 103.196 41.4376 102.474 41.3264C102.529 40.6439 102.726 39.9802 103.054 39.3776C103.316 38.9002 103.703 38.501 104.173 38.2209C104.643 37.9408 105.179 37.7901 105.728 37.784V37.7763Z" fill="black" fill-opacity="0.15"/>
</g>
<defs>
<clipPath id="clip0_676_2899">
<rect width="102" height="43" fill="white" transform="translate(44.5 18.5)"/>
</clipPath>
</defs>
</svg>
