<svg width="191" height="80" viewBox="0 0 191 80" fill="none" xmlns="http://www.w3.org/2000/svg">
<path d="M53.6886 36.5137C57.9635 35.0409 58.6911 31.2042 58.1454 27.6767C58.1454 27.5494 58.2545 27.4585 58.3637 27.4949C62.4567 29.495 67.059 33.859 67.059 40.4049C67.059 45.4234 63.1661 49.8601 57.5087 49.8601C55.49 49.9519 53.4982 49.369 51.8476 48.2036C50.1971 47.0381 48.9819 45.3564 48.3937 43.4239C47.8056 41.4914 47.8781 39.4182 48.5997 37.5314C49.3213 35.6447 50.651 34.0519 52.3788 33.0044C52.488 32.9316 52.6335 33.0044 52.6335 33.1317C52.6881 33.8044 52.87 35.4955 53.6158 36.5137H53.6886Z" fill="black" fill-opacity="0.15"/>
<path d="M79.1019 45.878L79.4112 45.5144L80.3753 48.5691L80.248 48.6964C79.5203 49.3692 78.4289 49.7147 77.0282 49.7147H76.9736C75.7002 49.7147 74.6997 49.351 74.0084 48.6782C73.3172 47.9873 72.9534 46.9508 72.9534 45.6417V37.3138H70.4976V33.9499H72.9534V29.8951H76.7371V33.9499H79.7386V37.3138H76.7189V44.8234C76.7189 45.1689 76.8099 46.2781 77.8649 46.2781C78.4107 46.2781 78.92 46.0781 79.1019 45.8599V45.878ZM81.1029 49.3692V33.9681H84.8867V49.3692H81.1029ZM82.9766 27.6768C83.4256 27.6768 83.8645 27.8096 84.238 28.0586C84.6116 28.3075 84.903 28.6614 85.0756 29.0757C85.2483 29.49 85.2943 29.946 85.2081 30.3864C85.1218 30.8268 84.907 31.2318 84.5908 31.5504C84.2746 31.869 83.8712 32.0869 83.4313 32.1766C82.9914 32.2664 82.5348 32.2239 82.119 32.0547C81.7032 31.8854 81.3468 31.597 81.0948 31.2256C80.8427 30.8542 80.7063 30.4166 80.7027 29.9678C80.7027 28.7314 81.7396 27.6768 82.9766 27.6768ZM95.0555 33.5863C98.3299 33.5863 100.131 35.3682 100.131 38.623V49.351H96.3471V39.5321C96.2743 37.7866 95.4375 36.9865 93.6548 36.9865C92.054 36.9865 90.7624 37.9684 90.1075 38.8048V49.351H86.3238V33.9863H90.1075V35.6228C91.199 34.5682 92.9453 33.6226 95.0555 33.6226V33.5863ZM112.719 35.5682V28.3313H116.503V49.3874H112.719V47.7873C112.14 48.3977 111.444 48.8847 110.671 49.219C109.899 49.5534 109.067 49.7282 108.226 49.7329C104.096 49.7329 101.331 46.4963 101.331 41.6777C101.331 36.841 104.096 33.6044 108.226 33.6044C109.069 33.6083 109.903 33.7845 110.675 34.1222C111.448 34.4599 112.144 34.952 112.719 35.5682ZM112.719 38.823C112.297 38.274 111.758 37.826 111.142 37.5114C110.525 37.1969 109.846 37.0238 109.154 37.0047C106.807 37.0047 105.242 38.8775 105.242 41.6777C105.242 44.4598 106.807 46.3326 109.154 46.3326C110.518 46.3326 112.01 45.6053 112.719 44.5507V38.823ZM125.344 33.6044C129.819 33.6044 132.929 37.0592 132.929 41.9687V43.0051H121.487C121.869 45.1689 123.579 46.5508 125.908 46.5508C127.381 46.5508 129 45.9144 129.928 44.9871L130.182 44.7689L131.983 47.3509L131.801 47.5145C130.097 49.0252 127.875 49.8199 125.598 49.7329C120.869 49.7329 117.54 46.4053 117.54 41.6596C117.503 40.6118 117.678 39.5674 118.055 38.589C118.432 37.6107 119.003 36.7186 119.734 35.9663C120.464 35.214 121.34 34.617 122.307 34.2111C123.274 33.8053 124.313 33.5989 125.362 33.6044H125.344ZM121.469 40.1504H129.237C129.018 37.8411 127.108 36.7865 125.344 36.7865C122.688 36.7865 121.687 38.7866 121.469 40.1685V40.1504ZM142.079 33.6044H142.352V37.4229L142.025 37.3683C141.752 37.3138 141.406 37.2774 141.061 37.2774C139.842 37.2774 138.15 38.132 137.513 39.0412V49.351H133.73V33.9681H137.532V35.6773C138.787 34.3681 140.442 33.6044 142.079 33.6044Z" fill="black" fill-opacity="0.15"/>
</svg>
