<svg width="190" height="80" viewBox="0 0 190 80" fill="none" xmlns="http://www.w3.org/2000/svg">
<path d="M48.3473 36.1083C53.1172 34.4642 53.9291 30.1814 53.3201 26.2437C53.3201 26.1017 53.4419 26.0002 53.5637 26.0408C58.1306 28.2735 63.2659 33.1448 63.2659 40.4519C63.2659 46.054 58.9222 51.0066 52.6097 51.0066C50.3572 51.109 48.1348 50.4584 46.2931 49.1574C44.4515 47.8564 43.0956 45.9792 42.4393 43.822C41.7831 41.6648 41.8639 39.3505 42.6691 37.2443C43.4743 35.1382 44.9579 33.3602 46.8858 32.1909C47.0076 32.1097 47.17 32.1909 47.17 32.333C47.2309 33.084 47.4339 34.9716 48.2661 36.1083H48.3473Z" fill="black" fill-opacity="0.15"/>
<path d="M76.7032 46.5614L77.0483 46.1554L78.124 49.5654L77.9819 49.7075C77.17 50.4585 75.9522 50.8441 74.3893 50.8441H74.3284C72.9076 50.8441 71.7912 50.4382 71.0199 49.6872C70.2486 48.9159 69.8427 47.7589 69.8427 46.2975V37.0013H67.1025V33.2463H69.8427V28.7199H74.0645V33.2463H77.4136V37.0013H74.0443V45.3841C74.0443 45.7698 74.1457 47.0079 75.323 47.0079C75.9319 47.0079 76.5002 46.7846 76.7032 46.5411V46.5614ZM78.9359 50.4585V33.2666H83.1578V50.4585H78.9359ZM81.0266 26.2437C81.5275 26.2437 82.0172 26.392 82.434 26.6699C82.8508 26.9478 83.176 27.3428 83.3686 27.8053C83.5612 28.2677 83.6126 28.7768 83.5164 29.2684C83.4201 29.76 83.1805 30.2121 82.8277 30.5677C82.4749 30.9233 82.0247 31.1666 81.5339 31.2668C81.043 31.3669 80.5335 31.3196 80.0696 31.1307C79.6057 30.9417 79.208 30.6197 78.9268 30.2051C78.6456 29.7906 78.4934 29.302 78.4894 28.8011C78.4894 27.4209 79.6463 26.2437 81.0266 26.2437ZM94.504 32.8403C98.1576 32.8403 100.167 34.8295 100.167 38.4627V50.4382H95.9451V39.4776C95.864 37.529 94.9303 36.6359 92.9411 36.6359C91.155 36.6359 89.7138 37.732 88.9831 38.6657V50.4382H84.7613V33.2869H88.9831V35.1136C90.201 33.9364 92.1495 32.8809 94.504 32.8809V32.8403ZM114.213 35.0527V26.9744H118.435V50.4788H114.213V48.6926C113.567 49.374 112.79 49.9176 111.928 50.2909C111.066 50.6641 110.138 50.8592 109.199 50.8644C104.592 50.8644 101.507 47.2515 101.507 41.8727C101.507 36.4735 104.592 32.8606 109.199 32.8606C110.14 32.8649 111.07 33.0616 111.933 33.4386C112.795 33.8155 113.571 34.3648 114.213 35.0527ZM114.213 38.686C113.742 38.0732 113.141 37.573 112.453 37.2219C111.765 36.8707 111.007 36.6775 110.235 36.6562C107.616 36.6562 105.871 38.7469 105.871 41.8727C105.871 44.9782 107.616 47.0688 110.235 47.0688C111.757 47.0688 113.421 46.2569 114.213 45.0797V38.686ZM128.299 32.8606C133.292 32.8606 136.763 36.7171 136.763 42.1974V43.3544H123.996C124.422 45.7698 126.33 47.3124 128.928 47.3124C130.573 47.3124 132.379 46.602 133.414 45.5668L133.698 45.3232L135.708 48.2055L135.505 48.3881C133.603 50.0745 131.123 50.9616 128.583 50.8644C123.306 50.8644 119.592 47.15 119.592 41.8524C119.551 40.6827 119.746 39.5169 120.167 38.4248C120.588 37.3327 121.225 36.3369 122.04 35.4971C122.855 34.6573 123.832 33.9909 124.911 33.5378C125.99 33.0848 127.149 32.8544 128.319 32.8606H128.299ZM123.976 40.1677H132.643C132.399 37.5899 130.268 36.4127 128.299 36.4127C125.336 36.4127 124.219 38.6454 123.976 40.188V40.1677ZM146.973 32.8606H147.277V37.1231L146.912 37.0622C146.607 37.0013 146.222 36.9607 145.836 36.9607C144.476 36.9607 142.589 37.9147 141.878 38.9295V50.4382H137.656V33.2666H141.898V35.1745C143.299 33.7131 145.146 32.8606 146.973 32.8606Z" fill="black" fill-opacity="0.15"/>
</svg>
