<svg width="190" height="80" viewBox="0 0 190 80" fill="none" xmlns="http://www.w3.org/2000/svg">
<g clip-path="url(#clip0_347_418)">
<path fill-rule="evenodd" clip-rule="evenodd" d="M143.744 34.7236L139.641 30.621H132.019V25.3443H125.569V49.3796H132.019V37.0682H137.294V49.3796H143.744V34.7236ZM123.226 30.621H113.26L109.156 34.7236V45.2752L113.26 49.3796H123.226V42.9318H115.604V37.0682H123.226V30.621ZM106.811 30.621H101.536V25.3443H95.0866V45.2752L99.1904 49.3796H106.811V42.9318H101.536V37.0682H106.811V30.621ZM92.7417 25.3443H86.2939V28.2764H92.7417V25.3443ZM92.7417 30.621H86.2939V49.3793H92.7417V30.621ZM83.949 30.621H77.5006V42.9318H75.1563V30.621H68.7076V42.9318H66.3636V30.621H59.914V49.3796H79.8461L83.949 45.2752V30.621ZM57.5691 30.621H52.2936V25.3443H45.8452V45.2752L49.9487 49.3796H57.5691V42.9318H52.2936V37.0682H57.5691V30.621ZM146.087 33.551V51.1373L137.294 57H131.432V54.0679L127.329 57H122.054V54.0679L119.123 57H109.743L106.811 54.0679L106.224 57H98.0187L94.663 54.0679L94.475 57H85.1739L84.845 54.0679L82.3272 57H68.1207L65.1892 55.8274V57H57.5691L48.7755 51.7227L43.5 46.4493V23H54.6388L59.914 28.2764H83.949V23H103.88V28.2764H109.156V31.2067L112.088 28.2764H117.949L123.226 23H134.364V28.2764H140.813L146.087 33.551Z" fill="black" fill-opacity="0.15"/>
</g>
<defs>
<clipPath id="clip0_347_418">
<rect width="103" height="48" fill="white" transform="translate(43.5 16)"/>
</clipPath>
</defs>
</svg>
