<svg width="191" height="80" viewBox="0 0 191 80" fill="none" xmlns="http://www.w3.org/2000/svg">
<g clip-path="url(#clip0_676_2915)">
<path fill-rule="evenodd" clip-rule="evenodd" d="M141.878 35.3832L137.974 31.7934H130.722V27.1763H124.585V48.2072H130.722V37.4347H135.741V48.2072H141.878V35.3832ZM122.356 31.7934H112.874L108.969 35.3832V44.6158L112.874 48.2072H122.356V42.5653H115.104V37.4347H122.356V31.7934ZM106.738 31.7934H101.719V27.1763H95.5824V44.6158L99.487 48.2072H106.738V42.5653H101.719V37.4347H106.738V31.7934ZM93.3513 27.1763H87.2165V29.7419H93.3513V27.1763ZM93.3513 31.7934H87.2165V48.2069H93.3513V31.7934ZM84.9855 31.7934H78.8501V42.5653H76.6196V31.7934H70.4839V42.5653H68.2537V31.7934H62.1172V48.2072H81.0817L84.9855 44.6158V31.7934ZM59.8861 31.7934H54.8667V27.1763H48.7314V44.6158L52.6357 48.2072H59.8861V42.5653H54.8667V37.4347H59.8861V31.7934ZM144.107 34.3571V49.7451L135.741 54.875H130.164V52.3094L126.26 54.875H121.24V52.3094L118.452 54.875H109.528L106.738 52.3094L106.18 54.875H98.3722L95.1793 52.3094L95.0005 54.875H86.1509L85.8379 52.3094L83.4424 54.875H69.9255L67.1363 53.849V54.875H59.8861L51.5194 50.2574L46.5 45.6431V25.125H57.0981L62.1172 29.7419H84.9855V25.125H103.949V29.7419H108.969V32.3059L111.759 29.7419H117.335L122.356 25.125H132.953V29.7419H139.089L144.107 34.3571Z" fill="black" fill-opacity="0.15"/>
</g>
<defs>
<clipPath id="clip0_676_2915">
<rect width="98" height="42" fill="white" transform="translate(46.5 19)"/>
</clipPath>
</defs>
</svg>
