<svg width="190" height="80" viewBox="0 0 190 80" fill="none" xmlns="http://www.w3.org/2000/svg">
<path fill-rule="evenodd" clip-rule="evenodd" d="M125.707 36.5972C126.081 37.2429 126.204 37.9774 126.244 38.8032L126.297 39.9039V47.6007L126.352 48.7025C126.46 50.502 127.787 51.8325 129.601 51.9457L130.697 52V39.9039L130.751 38.8032C130.796 37.9867 130.917 37.2382 131.297 36.588C131.685 35.921 132.24 35.3677 132.909 34.9835C133.578 34.5993 134.336 34.3978 135.107 34.3992C135.878 34.4006 136.635 34.6049 137.303 34.9915C137.97 35.3781 138.524 35.9335 138.909 36.6018C139.283 37.2475 139.4 37.9959 139.445 38.8032L139.499 39.9005V47.6007L139.553 48.7025C139.666 50.5112 140.983 51.8418 142.802 51.9457L143.898 52V38.8032C143.898 36.4697 142.971 34.2317 141.322 32.5813C139.672 30.9309 137.434 30.0032 135.101 30.0023C133.852 30.001 132.617 30.2662 131.479 30.7803C130.34 31.2944 129.325 32.0454 128.5 32.9833C127.675 32.0458 126.659 31.2949 125.521 30.7807C124.383 30.2665 123.148 30.0007 121.899 30.0012C120.072 30.0012 118.377 30.5555 116.972 31.513C116.115 30.5567 114.198 30.0012 113.097 30.0012V52L114.198 51.9457C116.039 51.8244 117.369 50.5297 117.441 48.7025L117.5 47.6007V39.9039L117.554 38.8032C117.6 37.9728 117.716 37.2429 118.091 36.5926C118.479 35.9261 119.034 35.3728 119.703 34.9882C120.371 34.6035 121.128 34.4009 121.899 34.4005C122.671 34.4006 123.429 34.6037 124.097 34.9893C124.766 35.3748 125.321 35.9294 125.707 36.5972ZM50.3993 51.9469L51.5 52H67.9988L67.9446 50.9028C67.7956 49.0941 66.5147 47.7728 64.7002 47.655L63.5995 47.6007H53.7014L66.8982 34.3993L66.8439 33.3032C66.7584 31.4761 65.4232 30.1559 63.5995 30.0554L62.4988 30.0058L46 30.0012L46.0543 31.1019C46.1987 32.8932 47.498 34.2422 49.2975 34.3462L50.3993 34.4005H60.2975L47.1007 47.6018L47.155 48.7025C47.2635 50.5159 48.5721 51.8291 50.3993 51.9457V51.9469ZM108.779 33.2212C109.8 34.2426 110.611 35.4552 111.164 36.7898C111.717 38.1244 112.001 39.5548 112.001 40.9994C112.001 42.444 111.717 43.8744 111.164 45.209C110.611 46.5436 109.8 47.7562 108.779 48.7776C106.715 50.8399 103.917 51.9983 100.999 51.9983C98.0812 51.9983 95.2829 50.8399 93.2189 48.7776C88.9236 44.4823 88.9236 37.5166 93.2189 33.2212C94.2396 32.2002 95.4513 31.3902 96.785 30.8375C98.1187 30.2848 99.5482 30.0002 100.992 30C102.438 29.999 103.87 30.2831 105.206 30.836C106.542 31.3889 107.756 32.1999 108.779 33.2224V33.2212ZM105.666 36.3362C106.903 37.5744 107.598 39.2531 107.598 41.0035C107.598 42.7538 106.903 44.4326 105.666 45.6707C104.428 46.908 102.749 47.6029 100.999 47.6029C99.2485 47.6029 97.5697 46.908 96.3316 45.6707C95.0944 44.4326 94.3994 42.7538 94.3994 41.0035C94.3994 39.2531 95.0944 37.5744 96.3316 36.3362C97.5697 35.099 99.2485 34.404 100.999 34.404C102.749 34.404 104.428 35.099 105.666 36.3362ZM77.9062 30C79.35 30.0004 80.7795 30.2851 82.1133 30.8381C83.4469 31.391 84.6587 32.2012 85.6792 33.2224C89.9757 37.5166 89.9757 44.4834 85.6792 48.7776C83.6153 50.8399 80.817 51.9983 77.8993 51.9983C74.9816 51.9983 72.1833 50.8399 70.1194 48.7776C65.824 44.4823 65.824 37.5166 70.1194 33.2212C71.14 32.2002 72.3518 31.3902 73.6855 30.8375C75.0192 30.2848 76.4487 30.0002 77.8924 30H77.9062ZM82.5666 36.3339C83.8041 37.5721 84.4994 39.2511 84.4994 41.0017C84.4994 42.7524 83.8041 44.4314 82.5666 45.6696C81.3284 46.9068 79.6497 47.6018 77.8993 47.6018C76.1489 47.6018 74.4702 46.9068 73.232 45.6696C71.9948 44.4314 71.2998 42.7527 71.2998 41.0023C71.2998 39.252 71.9948 37.5732 73.232 36.335C74.4702 35.0978 76.1489 34.4028 77.8993 34.4028C79.6497 34.4028 81.3284 35.0978 82.5666 36.335V36.3339Z" fill="#2D8CFF"/>
</svg>
