<svg width="191" height="80" viewBox="0 0 191 80" fill="none" xmlns="http://www.w3.org/2000/svg">
<g opacity="0.15">
<g clip-path="url(#clip0_676_2910)">
<path fill-rule="evenodd" clip-rule="evenodd" d="M123.074 36.9515C123.41 37.5299 123.52 38.1879 123.556 38.9277L123.604 39.9138V46.8088L123.653 47.7959C123.75 49.4079 124.942 50.5998 126.57 50.7012L127.554 50.7498V39.9138L127.603 38.9277C127.643 38.1962 127.752 37.5258 128.094 36.9432C128.441 36.3458 128.94 35.85 129.541 35.5059C130.141 35.1617 130.822 34.9812 131.514 34.9824C132.207 34.9837 132.887 35.1667 133.486 35.513C134.085 35.8594 134.583 36.3569 134.928 36.9557C135.264 37.534 135.369 38.2045 135.409 38.9277L135.458 39.9107V46.8088L135.507 47.7959C135.609 49.4162 136.791 50.6081 138.424 50.7012L139.409 50.7498V38.9277C139.409 36.8373 138.576 34.8324 137.095 33.3539C135.614 31.8754 133.604 31.0444 131.509 31.0436C130.387 31.0424 129.278 31.28 128.256 31.7405C127.234 32.201 126.322 32.8739 125.582 33.7141C124.841 32.8742 123.929 32.2015 122.907 31.7409C121.885 31.2802 120.776 31.0422 119.654 31.0425C118.014 31.0425 116.491 31.5392 115.23 32.3969C114.461 31.5402 112.739 31.0425 111.751 31.0425V50.7498L112.739 50.7012C114.392 50.5926 115.587 49.4327 115.651 47.7959L115.704 46.8088V39.9138L115.753 38.9277C115.794 38.1838 115.898 37.5299 116.235 36.9474C116.583 36.3503 117.082 35.8547 117.682 35.5101C118.282 35.1655 118.962 34.9839 119.654 34.9836C120.347 34.9837 121.028 35.1656 121.628 35.511C122.228 35.8564 122.727 36.3532 123.074 36.9515ZM55.4504 50.7022L56.4388 50.7498H71.2541L71.2053 49.7669C71.0715 48.1466 69.9214 46.963 68.292 46.8574L67.3037 46.8088H58.4155L70.2657 34.9826L70.2169 34.0007C70.1402 32.3638 68.9413 31.1812 67.3037 31.0912L66.3153 31.0467L51.5 31.0425L51.5487 32.0286C51.6784 33.6333 52.8451 34.8418 54.461 34.935L55.4504 34.9836H64.3385L52.4884 46.8098L52.5371 47.7959C52.6346 49.4203 53.8097 50.5967 55.4504 50.7012V50.7022ZM107.873 33.9272C108.79 34.8422 109.518 35.9285 110.014 37.124C110.511 38.3196 110.766 39.601 110.766 40.8952C110.766 42.1893 110.511 43.4707 110.014 44.6663C109.518 45.8618 108.79 46.9481 107.873 47.8631C106.019 49.7106 103.507 50.7483 100.887 50.7483C98.2668 50.7483 95.754 49.7106 93.9007 47.8631C90.0436 44.0152 90.0436 37.7751 93.9007 33.9272C94.8172 33.0125 95.9053 32.2869 97.1029 31.7918C98.3005 31.2967 99.5841 31.0417 100.88 31.0415C102.179 31.0406 103.465 31.2951 104.665 31.7904C105.864 32.2858 106.955 33.0122 107.873 33.9282V33.9272ZM105.078 36.7177C106.189 37.8269 106.813 39.3307 106.813 40.8988C106.813 42.4668 106.189 43.9707 105.078 45.0799C103.966 46.1882 102.458 46.8108 100.887 46.8108C99.315 46.8108 97.8075 46.1882 96.6957 45.0799C95.5847 43.9707 94.9607 42.4668 94.9607 40.8988C94.9607 39.3307 95.5847 37.8269 96.6957 36.7177C97.8075 35.6093 99.315 34.9868 100.887 34.9868C102.458 34.9868 103.966 35.6093 105.078 36.7177ZM80.1505 31.0415C81.4469 31.0418 82.7306 31.297 83.9282 31.7923C85.1258 32.2876 86.2139 33.0134 87.1303 33.9282C90.9884 37.7751 90.9884 44.0162 87.1303 47.8631C85.277 49.7106 82.7642 50.7483 80.1443 50.7483C77.5243 50.7483 75.0116 49.7106 73.1582 47.8631C69.3012 44.0152 69.3012 37.7751 73.1582 33.9272C74.0747 33.0125 75.1628 32.2869 76.3604 31.7918C77.558 31.2967 78.8417 31.0417 80.138 31.0415H80.1505ZM84.3353 36.7156C85.4466 37.8248 86.0708 39.3289 86.0708 40.8972C86.0708 42.4655 85.4466 43.9696 84.3353 45.0788C83.2235 46.1872 81.716 46.8098 80.1443 46.8098C78.5725 46.8098 77.0651 46.1872 75.9533 45.0788C74.8423 43.9696 74.2182 42.4658 74.2182 40.8977C74.2182 39.3297 74.8423 37.8258 75.9533 36.7167C77.0651 35.6083 78.5725 34.9857 80.1443 34.9857C81.716 34.9857 83.2235 35.6083 84.3353 36.7167V36.7156Z" fill="black"/>
</g>
</g>
<defs>
<clipPath id="clip0_676_2910">
<rect width="88" height="43" fill="white" transform="translate(51.5 18.5)"/>
</clipPath>
</defs>
</svg>
